<?xml version="1.0" standalone="no"?>
<!DOCTYPE svg PUBLIC "-//W3C//DTD SVG 20010904//EN"
 "http://www.w3.org/TR/2001/REC-SVG-20010904/DTD/svg10.dtd">
<svg version="1.0" xmlns="http://www.w3.org/2000/svg"
 width="404.000000pt" height="404.000000pt" viewBox="0 0 404.000000 404.000000"
 preserveAspectRatio="xMidYMid meet">
<metadata>
Created by potrace 1.11, written by Peter Selinger 2001-2013
</metadata>
<g transform="translate(0.000000,404.000000) scale(0.100000,-0.100000)"
fill="#000000" stroke="none">
<path d="M0 3068 l0 -971 22 19 c13 10 151 145 308 300 157 155 373 367 480
470 107 104 411 404 675 666 l480 478 278 0 c152 0 277 -2 277 -5 0 -3 -20
-19 -44 -37 -71 -53 -301 -232 -306 -238 -3 -3 -25 -21 -50 -40 -25 -19 -47
-37 -50 -40 -3 -4 -52 -42 -109 -86 -57 -43 -147 -113 -201 -154 -53 -41 -179
-138 -279 -215 -101 -77 -249 -192 -330 -255 -224 -177 -356 -279 -466 -360
-55 -41 -146 -112 -202 -158 -57 -45 -121 -95 -142 -110 -22 -15 -107 -78
-190 -141 l-151 -115 0 -49 c0 -51 7 -63 96 -167 12 -14 91 -108 175 -210 154
-186 208 -252 400 -479 57 -68 126 -152 153 -185 27 -34 52 -63 56 -66 6 -4
22 -25 118 -150 15 -19 45 -55 67 -80 22 -25 80 -95 130 -155 49 -61 135 -164
190 -230 55 -67 111 -135 125 -152 14 -17 48 -58 75 -91 l50 -61 254 0 254 -1
-89 83 c-49 46 -116 107 -149 137 -33 29 -132 122 -220 205 -88 83 -196 184
-240 225 -44 40 -121 112 -170 159 -50 47 -129 122 -175 165 -47 44 -114 107
-150 141 -36 34 -150 139 -255 235 -104 95 -259 239 -343 319 -85 80 -186 176
-225 213 -40 37 -69 69 -66 72 6 7 153 -96 405 -281 24 -18 60 -43 81 -56 21
-14 48 -33 60 -43 12 -11 44 -34 70 -52 107 -75 222 -156 293 -207 41 -29 89
-63 105 -75 17 -12 80 -57 140 -100 61 -43 124 -88 140 -100 17 -12 77 -56
135 -98 97 -71 188 -137 593 -430 82 -59 161 -116 176 -127 16 -11 66 -46 112
-78 46 -32 163 -114 259 -182 l175 -125 254 0 c140 0 251 3 247 7 -4 5 -31 21
-61 38 -134 76 -199 115 -320 190 -71 45 -222 137 -335 205 -113 68 -241 146
-285 175 -44 28 -156 97 -250 154 -93 56 -208 127 -255 157 -47 30 -105 66
-130 79 -25 14 -155 92 -290 174 -135 83 -288 175 -340 206 -52 31 -131 79
-175 107 -44 28 -145 89 -225 136 -80 47 -227 137 -327 201 -190 121 -241 152
-283 172 l-25 12 25 7 c37 12 567 11 1050 0 234 -6 902 -17 1485 -26 583 -8
1153 -18 1268 -20 l207 -5 0 106 0 107 -177 -7 c-217 -7 -1364 -43 -1633 -50
-107 -3 -370 -12 -585 -20 -214 -8 -500 -17 -635 -20 -242 -6 -622 -19 -855
-31 -81 -4 -117 -2 -110 5 6 5 91 36 190 69 156 52 288 99 585 209 36 13 90
32 120 42 30 11 98 34 150 53 52 19 167 61 255 92 164 59 368 133 465 168 83
31 356 126 435 153 39 13 108 38 155 55 47 17 168 59 270 94 102 35 271 94
375 131 464 163 904 318 948 333 l47 17 0 177 0 177 -37 -16 c-21 -8 -155 -67
-298 -130 -143 -63 -307 -135 -365 -160 -58 -25 -124 -54 -147 -64 -23 -11
-44 -19 -47 -19 -3 0 -38 -15 -78 -34 -40 -19 -127 -58 -193 -86 -66 -28 -133
-58 -150 -65 -59 -26 -271 -118 -326 -141 -31 -12 -118 -51 -195 -85 -76 -34
-177 -77 -224 -95 -47 -19 -93 -39 -104 -45 -10 -6 -35 -17 -55 -24 -20 -7
-65 -26 -101 -43 -36 -17 -99 -45 -140 -63 -41 -17 -79 -35 -84 -40 -6 -5 -17
-9 -25 -9 -8 0 -33 -8 -55 -19 -179 -82 -376 -171 -382 -171 -3 0 -40 -16 -82
-36 -137 -64 -236 -110 -287 -131 -27 -12 -113 -48 -190 -81 -311 -134 -351
-151 -380 -157 -26 -5 -23 -2 15 19 40 22 441 283 515 336 17 11 104 70 195
129 389 255 645 423 840 549 358 233 756 494 1095 718 116 76 221 144 233 151
19 10 142 13 540 16 285 1 -393 3 -1505 5 l-2023 2 0 -972z m1490 920 c-37
-53 -177 -232 -285 -366 -44 -55 -109 -137 -145 -183 -55 -72 -239 -304 -330
-419 -16 -19 -52 -64 -80 -100 -29 -36 -73 -89 -98 -118 -25 -28 -99 -121
-165 -205 -65 -83 -154 -197 -197 -252 -94 -121 -166 -201 -149 -165 15 30
401 601 533 787 171 242 483 700 644 945 l77 118 113 0 113 0 -31 -42z"/>
<path d="M105 1987 c11 -7 38 -20 60 -29 22 -8 134 -54 250 -101 116 -47 273
-110 350 -141 77 -31 149 -61 160 -66 60 -27 135 -57 260 -105 77 -29 167 -65
200 -80 33 -15 78 -33 100 -41 22 -7 74 -27 115 -44 112 -47 629 -256 755
-305 61 -24 155 -62 210 -85 55 -23 123 -50 151 -60 28 -10 59 -23 70 -29 10
-6 145 -60 299 -121 154 -60 288 -115 297 -120 10 -5 57 -25 105 -44 173 -67
293 -116 310 -126 22 -12 224 -90 235 -90 4 0 8 64 8 143 l0 142 -207 69
c-115 37 -252 84 -306 103 -54 19 -133 45 -175 58 -42 13 -183 59 -312 103
-338 115 -534 179 -625 207 -44 13 -134 42 -200 65 -66 23 -140 47 -165 55
-25 7 -137 45 -250 83 -113 38 -416 139 -675 225 -259 86 -535 179 -615 207
-80 28 -163 58 -185 65 -22 7 -79 27 -127 44 -94 33 -125 39 -93 18z"/>
<path d="M0 972 l0 -972 680 0 c402 0 680 4 680 9 0 5 -17 31 -38 58 -35 45
-107 146 -275 388 -38 55 -84 123 -103 150 -19 28 -70 102 -114 165 -45 63
-93 133 -109 155 -15 22 -67 96 -116 165 -49 69 -141 199 -205 290 -198 280
-334 473 -368 519 l-32 44 0 -971z"/>
</g>
</svg>
