<svg xmlns="http://www.w3.org/2000/svg">
<defs>
<font id="Aver-Italic" horiz-adv-x="586" >
  <font-face 
    font-family="Aver"
    font-weight="400"
    font-style="italic"
    font-stretch="normal"
    units-per-em="1024"
    panose-1="2 4 5 3 5 4 8 9 2 3"
    ascent="819"
    descent="-205"
    x-height="477"
    cap-height="710"
    bbox="-134 -246 1409 909"
    underline-thickness="150"
    underline-position="-367"
    slope="-12"
    unicode-range="U+0020-FB06"
  />
<missing-glyph horiz-adv-x="918" 
d="M472 145q0 12 -3 12h-10v-17h9v5h4zM741 410q0 11 -3 11h-10v-16h9v5h4zM552 634q5 0 8 5q5 7 5 19q-1 12 -5 19q-4 5 -9 5t-8 -5q-5 -6 -5 -19q1 -12 5 -18t9 -6zM729 465q6 0 9 5q4 6 4 19q0 12 -5 19q-3 5 -8 5q-6 0 -9 -5q-4 -7 -4 -19t5 -19q3 -5 8 -5zM189 279
q6 0 9 5q4 7 4 19t-5 19q-3 5 -8 5q-6 0 -9 -5q-4 -6 -4 -19q0 -12 5 -18q3 -6 8 -6zM377 115q5 7 5 19t-4 19q-4 5 -9 5t-9 -5q-4 -7 -4 -19q0 -13 4 -19q3 -5 8 -5t9 5zM201 405q0 11 -3 11h-10v-16h9v5h4zM480 145v-20h-12v5h-9v-17q0 -4 7 -4v-9h-31v9q6 0 6 2v46
q0 2 -6 2v8h50v-22h-5zM648 158h-4v9h24v-9q-5 0 -6 -3l-14 -26v-18q0 -2 6 -2v-9h-30v9q6 0 6 2v18l-14 26q-2 3 -6 3v9h28v-9h-4l7 -14zM290 683h-3v9h23v-9q-4 0 -6 -3l-13 -27v-18q0 -2 6 -2v-8h-31v8q7 0 7 2v18l-15 27q-2 3 -5 3v9h27v-9h-4l8 -14zM198 598h-4v9h24
v-9q-5 0 -6 -3l-14 -26v-18q0 -2 6 -2v-9h-30v9q6 0 6 2v18l-14 26q-2 3 -6 3v9h28v-9h-4l7 -14zM749 410v-20h-12v4h-9v-16q0 -4 7 -4v-9h-31v9q6 0 6 2v45q0 2 -6 2v9h50v-22h-5zM738 243h-4v9h24v-9q-5 0 -6 -3l-14 -26v-18q0 -2 6 -2v-9h-30v9q6 0 6 2v18l-14 26
q-2 3 -6 3v9h28v-9h-4l7 -14zM176 659v-23q0 -2 9 -2v-9h-28v9q5 0 5 2v41q0 6 -5 6v9h15l29 -35v24q0 2 -8 2v9h28v-9q-5 0 -5 -2v-56h-10zM349 692l21 -43l18 43h20v-9q-5 0 -5 -6v-41q0 -2 5 -2v-9h-27v9q4 0 4 1v15l-11 -25h-12l-13 26v-15q0 -2 4 -2v-9h-23v9q4 0 4 2
v41q0 6 -4 6v9h19zM584 658q0 -14 -8 -24t-24 -10q-17 0 -25 10t-8 24q0 15 8 24q8 10 24 10q17 0 25 -10q8 -9 8 -24zM626 659v-23q0 -2 9 -2v-9h-28v9q4 0 4 2v41q0 6 -4 6v9h15l29 -35v24q0 2 -8 2v9h27v-9q-4 0 -4 -2v-56h-11zM756 692v-22h-13q0 11 -3 11h-2v-45

<glyph glyph-name=".notdef" horiz-adv-x="918" 
d="M472 145q0 12 -3 12h-10v-17h9v5h4zM741 410q0 11 -3 11h-10v-16h9v5h4zM552 634q5 0 8 5q5 7 5 19q-1 12 -5 19q-4 5 -9 5t-8 -5q-5 -6 -5 -19q1 -12 5 -18t9 -6zM729 465q6 0 9 5q4 6 4 19q0 12 -5 19q-3 5 -8 5q-6 0 -9 -5q-4 -7 -4 -19t5 -19q3 -5 8 -5zM189 279
q6 0 9 5q4 7 4 19t-5 19q-3 5 -8 5q-6 0 -9 -5q-4 -6 -4 -19q0 -12 5 -18q3 -6 8 -6zM377 115q5 7 5 19t-4 19q-4 5 -9 5t-9 -5q-4 -7 -4 -19q0 -13 4 -19q3 -5 8 -5t9 5zM201 405q0 11 -3 11h-10v-16h9v5h4zM480 145v-20h-12v5h-9v-17q0 -4 7 -4v-9h-31v9q6 0 6 2v46
q0 2 -6 2v8h50v-22h-5zM648 158h-4v9h24v-9q-5 0 -6 -3l-14 -26v-18q0 -2 6 -2v-9h-30v9q6 0 6 2v18l-14 26q-2 3 -6 3v9h28v-9h-4l7 -14zM290 683h-3v9h23v-9q-4 0 -6 -3l-13 -27v-18q0 -2 6 -2v-8h-31v8q7 0 7 2v18l-15 27q-2 3 -5 3v9h27v-9h-4l8 -14zM198 598h-4v9h24
v-9q-5 0 -6 -3l-14 -26v-18q0 -2 6 -2v-9h-30v9q6 0 6 2v18l-14 26q-2 3 -6 3v9h28v-9h-4l7 -14zM749 410v-20h-12v4h-9v-16q0 -4 7 -4v-9h-31v9q6 0 6 2v45q0 2 -6 2v9h50v-22h-5zM738 243h-4v9h24v-9q-5 0 -6 -3l-14 -26v-18q0 -2 6 -2v-9h-30v9q6 0 6 2v18l-14 26
q-2 3 -6 3v9h28v-9h-4l7 -14zM176 659v-23q0 -2 9 -2v-9h-28v9q5 0 5 2v41q0 6 -5 6v9h15l29 -35v24q0 2 -8 2v9h28v-9q-5 0 -5 -2v-56h-10zM349 692l21 -43l18 43h20v-9q-5 0 -5 -6v-41q0 -2 5 -2v-9h-27v9q4 0 4 1v15l-11 -25h-12l-13 26v-15q0 -2 4 -2v-9h-23v9q4 0 4 2
v41q0 6 -4 6v9h19zM584 658q0 -14 -8 -24t-24 -10q-17 0 -25 10t-8 24q0 15 8 24q8 10 24 10q17 0 25 -10q8 -9 8 -24zM626 659v-23q0 -2 9 -2v-9h-28v9q4 0 4 2v41q0 6 -4 6v9h15l29 -35v24q0 2 -8 2v9h27v-9q-4 0 -4 -2v-56h-11zM756 692v-22h-13q0 11 -3 11h-2v-45
q0 -2 6 -2v-9h-30v9q6 0 6 2v45h-2q-3 0 -3 -11h-13v22h54zM459 654v-16q0 -4 7 -4v-9h-31v9q6 0 6 2v45q0 2 -6 2v9h50v-22h-13q0 11 -3 11h-10v-16h9v4h12v-19h-12v4h-9zM716 134v-23q0 -2 9 -2v-9h-28v9q5 0 5 2v41q0 6 -5 6v9h15l29 -35v24q0 2 -8 2v9h28v-9q-5 0 -5 -2
v-56h-10zM709 342l21 -43l18 43h20v-9q-4 0 -4 -6v-41q0 -2 4 -2v-9h-27v9q5 0 5 1v14l-12 -24h-12l-13 26v-15q0 -2 4 -2v-9h-23v9q4 0 4 2v41q0 6 -4 6v9h19zM761 488q0 -14 -7 -23q-8 -10 -25 -10t-24 9q-8 10 -8 24q0 16 7 25q8 10 24 10q18 0 26 -10q7 -9 7 -25z
M716 579v-23q0 -2 9 -2v-9h-28v9q5 0 5 2v41q0 6 -5 6v9h15l29 -35v24q0 2 -8 2v9h28v-9q-5 0 -5 -2v-56h-10zM216 168v-22h-13q0 11 -3 11h-2v-45q0 -2 6 -2v-9h-30v9q6 0 6 2v45h-2q-3 0 -3 -11h-13v22h54zM169 517l21 -42l18 42h20v-8q-4 0 -4 -7v-41q0 -2 4 -2v-9h-27v9
q5 0 5 2v14l-12 -25h-12l-13 26v-15q0 -2 4 -2v-9h-23v9q4 0 4 2v41q0 7 -4 7v8h19zM221 303q0 -15 -7 -24q-8 -10 -25 -10t-24 10q-8 9 -8 24t7 24q8 10 24 10q18 0 26 -10q7 -9 7 -24zM176 214v-23q0 -2 9 -2v-9h-28v9q5 0 5 2v41q0 6 -5 6v9h15l29 -35v24q0 2 -8 2v9h28
v-9q-5 0 -5 -2v-56h-10zM531 167l21 -42l19 42h19v-8q-4 0 -4 -7v-41q0 -2 4 -2v-9h-26v9q4 0 4 2v14l-11 -25h-12l-13 26v-15q0 -2 4 -2v-9h-23v9q4 0 4 2v41q0 7 -4 7v8h18zM344 158q8 10 25 10q16 0 25 -10q7 -9 7 -25q0 -14 -8 -24q-8 -9 -25 -9q-16 0 -24 10
q-8 9 -8 23q0 16 8 25zM269 134v-23q0 -2 9 -2v-9h-28v9q4 0 4 2v41q0 7 -4 7v8h15l29 -35v25q0 2 -9 2v8h28v-8q-5 0 -5 -2v-57h-10zM209 405v-20h-12v4h-9v-16q0 -4 7 -4v-9h-31v9q6 0 6 2v45q0 2 -6 2v9h50v-22h-5z" />
    <glyph glyph-name=".null" horiz-adv-x="0" 
 />
    <glyph glyph-name="nonmarkingreturn" horiz-adv-x="254" 
 />
    <glyph glyph-name="space" unicode=" " horiz-adv-x="254" 
 />
    <glyph glyph-name="space" unicode="&#xa0;" horiz-adv-x="254" 
 />
    <glyph glyph-name="exclam" unicode="!" horiz-adv-x="239" 
d="M132 200q12 184 20.5 289.5t13.5 134.5q18 93 93 93q61 0 61 -61q0 -14 -3 -32q-7 -29 -39 -134.5t-92 -289.5h-54zM178 52q0 -22 -17 -39t-41 -17t-41 17t-17 39q0 23 17 40q16 16 41 16t41 -16q17 -17 17 -40z" />
    <glyph glyph-name="quotedbl" unicode="&#x22;" horiz-adv-x="349" 
d="M241 719q43 -1 43 -38q0 -10 -1 -15q-8 -32 -66 -129h-24q-16 73 -16 111q0 13 1 18q10 51 63 53zM387 719q44 -2 44 -38q0 -5 -2 -15q-6 -32 -66 -129h-23q-17 77 -17 111q0 8 2 18q9 51 62 53z" />
    <glyph glyph-name="numbersign" unicode="#" horiz-adv-x="559" 
d="M396 171h-189l-50 -170h-48l50 170h-101l13 48h101l41 140h-101l14 48h102l64 223h48l-65 -223h189l65 223h48l-65 -223h101l-14 -48h-101l-41 -140h101l-14 -48h-101l-49 -170h-48zM220 219h189l41 140h-189z" />
    <glyph glyph-name="dollar" unicode="$" horiz-adv-x="421" 
d="M266 411l41 213q-68 -24 -87 -101q-5 -18 -5 -34q0 -52 51 -78zM252 87q68 23 86 114q1 4 1 8v9q0 45 -45 80zM311 385q130 -52 130 -146q0 -12 -3 -25q-28 -151 -194 -172l-8 -42h-50l8 40q-78 6 -108 50q-26 32 -26 77q0 17 3 35q19 66 77 66q47 0 47 -37v-7
q-8 -37 -37 -59q-17 -14 -20 -28v-6q0 -11 6 -21q16 -27 65 -31l48 246q-131 53 -131 146q0 11 3 25q28 149 195 172l8 42h50l-8 -40q76 -6 108 -50q25 -31 25 -77q0 -17 -3 -35q-20 -66 -77 -66q-47 0 -47 37q0 4 1 7q8 37 36 59q17 14 20 28v6q0 10 -6 21q-16 27 -65 31z
" />
    <glyph glyph-name="percent" unicode="%" horiz-adv-x="770" 
d="M442 142q12 58 54 98q42 42 121 42q80 0 106 -42q18 -29 18 -66q0 -16 -3 -32q-11 -59 -53 -100q-42 -43 -123 -43q-80 0 -105 43q-18 28 -18 65q0 17 3 35zM668 141q4 17 4 35q0 19 -6 36q-11 30 -56 30q-47 0 -68 -30q-21 -28 -30 -71q-4 -17 -4 -36q0 -20 6 -36
q9 -30 56 -30q48 0 69 30q22 33 29 72zM146 0l564 709h51l-566 -709h-49zM465 570q-10 -56 -53 -99q-43 -41 -122 -41t-105 41q-18 28 -18 66q0 16 3 33q11 59 53 100q43 43 122 43q81 0 106 -43q18 -29 18 -66q0 -18 -4 -34zM240 571q-4 -17 -4 -36q0 -18 5 -35
q10 -30 57 -30t68 30q21 29 30 71q3 18 3 34q0 19 -5 37q-10 31 -57 31t-68 -31q-22 -33 -29 -71z" />
    <glyph glyph-name="ampersand" unicode="&#x26;" horiz-adv-x="608" 
d="M545 310q-185 -31 -196 -85q4 -13 22 -13l24 4t25 4h1q45 0 45 -34q0 -7 -1 -11q-11 -53 -82 -54q-88 7 -88 87q0 15 3 32q20 104 170 142q151 39 159 81q-5 20 -19 20q-9 0 -27 -8q-15 -4 -29 -4q-44 0 -44 37q0 8 1 12q7 40 68 49q100 0 100 -87v-11q0 -5 -1 -11
q-14 -68 -66 -107q22 -34 22 -84q0 -24 -6 -52q-42 -218 -306 -224q-249 4 -249 171q0 12 1.5 25.5t3.5 27.5q32 159 193 205q-63 40 -63 113q0 18 3 38q32 137 184 139q43 0 84 -18h37l-26 -132h-36q3 16 3 31q0 65 -60 65q-76 -8 -89 -81q-3 -12 -3 -22q0 -84 137 -102
l-60 -54q-150 -4 -184 -182q-6 -32 -6 -58q0 -126 137 -128q168 3 214 186q7 32 7 62q0 16 -3 31z" />
    <glyph glyph-name="quotesingle" unicode="'" horiz-adv-x="202" 
d="M241 719q43 -1 43 -38q0 -10 -1 -15q-8 -32 -66 -129h-24q-16 73 -16 111q0 13 1 18q10 51 63 53z" />
    <glyph glyph-name="parenleft" unicode="(" horiz-adv-x="298" 
d="M417 737l-6 -30q-75 -20 -116 -112q-21 -46 -39 -106t-32 -136q-23 -121 -23 -202v-19q0 -8 1 -16q6 -93 72 -112l-5 -29q-108 0 -147 104q-20 57 -20 130q0 64 15 144q35 175 112 279q79 105 188 105z" />
    <glyph glyph-name="parenright" unicode=")" horiz-adv-x="298" 
d="M338 632q20 -57 20 -130q0 -69 -16 -149q-33 -169 -111 -274q-80 -104 -187 -104l6 29q74 20 116 112q41 90 70 237q24 124 24 208v17q0 9 -1 17q-6 93 -72 112l5 30q108 0 146 -105z" />
    <glyph glyph-name="asterisk" unicode="*" horiz-adv-x="459" 
d="M332 459l-59 -129q-17 -33 -47 -33q-21 0 -36 15t-15 36q0 20 23 45l112 80h-125q-21 0 -36 15t-15 36t15 36t36 15q22 0 35 -13l97 -73l-36 125q-3 7 -3 17q0 21 15 36t39 15t39 -15t15 -36q0 -10 -3 -17l-36 -125l97 73q13 13 35 13q21 0 36 -15t15 -36t-15 -36
t-36 -15h-125l112 -80q23 -25 23 -45q0 -21 -15 -36t-36 -15q-31 0 -47 33z" />
    <glyph glyph-name="plus" unicode="+" 
d="M269 283v195h47v-195h196v-48h-196v-195h-47v195h-195v48h195z" />
    <glyph glyph-name="comma" unicode="," horiz-adv-x="191" 
d="M33 -110l-15 20q37 40 57 86q-10 4 -21 17q-16 16 -16 39q0 24 16 40t41 16q26 0 42 -16t16 -40q0 -19 -18 -56q-19 -39 -102 -106z" />
    <glyph glyph-name="hyphen" unicode="-" horiz-adv-x="399" 
d="M86 244l10 48h321l-10 -48h-321z" />
    <glyph glyph-name="hyphen" unicode="&#xad;" horiz-adv-x="399" 
d="M86 244l10 48h321l-10 -48h-321z" />
    <glyph glyph-name="period" unicode="." horiz-adv-x="213" 
d="M178 52q0 -22 -17 -39t-41 -17t-41 17t-17 39q0 23 17 40q16 16 41 16t41 -16q17 -17 17 -40z" />
    <glyph glyph-name="slash" unicode="/" horiz-adv-x="331" 
d="M0 0l425 744h51l-426 -744h-50z" />
    <glyph glyph-name="zero" unicode="0" 
d="M623 284q-25 -127 -109 -209q-86 -80 -222 -80q-138 0 -191 80q-36 55 -36 132q0 34 8 77q24 128 109 210q85 83 220 83t191 -83q38 -58 38 -136q0 -17 -2 -35.5t-6 -38.5zM181 284q-9 -50 -9 -90q0 -51 15 -90q28 -69 112 -69q85 0 141 69q52 61 75 180q4 23 6 44t2 41
q0 54 -17 96q-29 72 -112 72q-82 0 -137 -72q-53 -69 -76 -181z" />
    <glyph glyph-name="one" unicode="1" 
d="M307 373h-137l9 45q143 10 226 138h56l-80 -414q-3 -14 -3 -24q0 -78 121 -79l-8 -39h-395l8 38q137 1 157 104z" />
    <glyph glyph-name="two" unicode="2" 
d="M149 91h388l-18 -91h-452l9 48q26 119 184 185q158 65 185 202q3 15 3 29q0 77 -99 77q-76 0 -95 -40v-5q0 -16 15 -32q14 -16 14 -34q0 -8 -1 -13q-17 -42 -64 -45q-56 0 -56 51q0 5 0.5 10t1.5 10q10 47 46 80q65 56 171 56q177 0 177 -129q0 -18 -5 -43
q-28 -148 -208 -193q-179 -46 -196 -123z" />
    <glyph glyph-name="three" unicode="3" 
d="M433 409q2 14 3.5 26.5t1.5 23.5q0 25 -8 41q-26 45 -81 45q-56 0 -72 -28v-3q0 -12 16 -22q23 -14 23 -35q0 -5 -1 -8q-9 -44 -60 -49q-47 5 -47 48v8q0 4 1 9q8 40 32 63q58 54 149 54q88 0 135 -53q29 -34 29 -78q0 -14 -3 -30q-21 -106 -148 -151q129 -29 129 -153
q0 -27 -6 -58q-14 -72 -74 -131q-89 -87 -204 -87q-128 5 -160 97q-12 40 -12 74q0 14 3 28q17 77 83 77q48 0 48 -39v-8q0 -4 -1 -8q-7 -40 -43 -68q-21 -16 -26 -36q1 -70 102 -76q76 1 131 55q35 37 49 105q6 31 6 58q0 138 -167 140l8 43q139 2 164 126z" />
    <glyph glyph-name="four" unicode="4" 
d="M489 556h67l-85 -437h66l-14 -68h-65l-30 -155h-94l30 155h-282l13 68zM167 119h210l60 310z" />
    <glyph glyph-name="five" unicode="5" 
d="M166 207l-18 22l160 328h275l-17 -89h-254l-91 -185q41 29 118 30q102 0 162 -67q45 -53 45 -120q0 -23 -4 -43q-21 -102 -109 -169q-89 -68 -210 -68q-115 7 -145 97q-12 40 -12 73q0 8 0.5 14.5t1.5 12.5q18 79 84 79q49 -3 49 -43q0 -5 -1 -8q-9 -45 -44 -72
q-21 -17 -26 -36q6 -70 97 -76q67 2 128 55q62 55 83 145q4 20 4 42q0 49 -25 86q-36 53 -113 53q-78 -1 -138 -61z" />
    <glyph glyph-name="six" unicode="6" 
d="M248 401q64 46 151 46q184 0 184 -155q0 -33 -7 -67q-51 -230 -279 -230q-198 0 -198 192q0 32 6 73q60 274 355 446h52q-212 -167 -264 -305zM214 254q-10 -50 -10 -92q0 -122 98 -122q130 0 171 180q7 32 7 62q0 111 -106 111q-96 0 -160 -139z" />
    <glyph glyph-name="seven" unicode="7" 
d="M626 496l-378 -592h-108l407 567h-327q-37 -13 -57 -112h-37l38 196h474z" />
    <glyph glyph-name="eight" unicode="8" 
d="M327 372q-40 -9 -74 -45q-48 -48 -61 -114q-2 -16 -3.5 -29.5t-1.5 -26.5q0 -105 103 -106q145 1 175 162q4 17 4 37q0 43 -22 69q-32 41 -67 45q-17 2 -30.5 4t-22.5 4zM403 413q26 6 52 36q34 38 44 92q2 12 3 23t1 21q0 83 -80 85q-101 0 -126 -129q-4 -16 -4 -33
q0 -31 16 -53q22 -33 94 -42zM266 394q-68 47 -68 117q0 15 3 32q33 171 231 175q169 -4 169 -129q0 -11 -1.5 -22.5t-3.5 -23.5q-20 -102 -124 -149q100 -43 100 -143q0 -11 -1 -22t-3 -22q-40 -208 -275 -208h-1q-200 0 -200 150q0 26 6 58q28 143 168 187z" />
    <glyph glyph-name="nine" unicode="9" 
d="M450 173q-64 -46 -151 -46q-184 0 -184 155q0 16 2 32.5t6 35.5q50 230 278 230q198 0 198 -193q0 -33 -6 -73q-60 -272 -356 -446h-51q210 166 264 305zM483 320q11 55 11 92q0 123 -98 123q-131 0 -171 -181q-7 -32 -7 -62q0 -111 106 -111q96 0 159 139z" />
    <glyph glyph-name="colon" unicode=":" horiz-adv-x="213" 
d="M178 52q0 -22 -17 -39t-41 -17t-41 17t-17 39q0 23 17 40q16 16 41 16t41 -16q17 -17 17 -40zM261 418q0 -22 -17 -39t-41 -17t-41 17t-17 39q0 23 17 40t41 17t41 -17t17 -40z" />
    <glyph glyph-name="semicolon" unicode=";" horiz-adv-x="213" 
d="M266 418q0 -22 -17 -39t-41 -17t-41 17t-17 39q0 23 17 40t41 17t41 -17t17 -40zM33 -110l-15 20q37 40 57 86q-10 4 -21 17q-16 16 -16 39q0 24 16 40t41 16q26 0 42 -16t16 -40q0 -19 -18 -56q-19 -39 -102 -106z" />
    <glyph glyph-name="semicolon" unicode="&#x37e;" horiz-adv-x="213" 
d="M266 418q0 -22 -17 -39t-41 -17t-41 17t-17 39q0 23 17 40t41 17t41 -17t17 -40zM33 -110l-15 20q37 40 57 86q-10 4 -21 17q-16 16 -16 39q0 24 16 40t41 16q26 0 42 -16t16 -40q0 -19 -18 -56q-19 -39 -102 -106z" />
    <glyph glyph-name="less" unicode="&#x3c;" 
d="M128 273l383 -166v-47l-438 190v47l438 189v-47z" />
    <glyph glyph-name="equal" unicode="=" 
d="M512 380v-47h-438v47h438zM512 185v-47h-438v47h438z" />
    <glyph glyph-name="greater" unicode="&#x3e;" 
d="M73 439v47l438 -189v-47l-438 -190v47l383 166z" />
    <glyph glyph-name="question" unicode="?" horiz-adv-x="428" 
d="M251 52q-5 -23 -24 -39q-20 -17 -44 -17t-38 17q-10 11 -10 28q0 7 1 11q5 24 24 40t44 16q26 0 39 -16q9 -12 9 -29q0 -7 -1 -11zM210 199q24 104 101 190q81 90 97 172q2 10 3 19.5t1 17.5q0 86 -100 87q-61 -5 -88 -35q-15 -15 -16 -26v-6q0 -12 9 -22q15 -17 15 -40
q0 -5 -0.5 -9t-1.5 -9q-11 -41 -54 -41t-43 49v13q14 68 65 111q49 43 132 48q160 -7 160 -126q0 -11 -1 -22t-3 -22q-24 -112 -126 -197q-90 -78 -117 -152h-33z" />
    <glyph glyph-name="at" unicode="@" horiz-adv-x="596" 
d="M515 429q-15 -15 -75 -21q-58 -4 -75 -65q-1 -5 -1 -10v-8q0 -57 68 -59q33 0 56 21zM311 -5q-219 4 -219 233q0 58 13 126q69 354 346 361q169 0 169 -155q0 -23 -3 -48l-44 -223q-1 -4 -1 -10q0 -12 10 -12q9 0 24 7l18 -20q-36 -40 -76 -43q-38 0 -56 32
q-47 -37 -103 -37q-110 2 -110 95q0 18 4 35q18 93 125 108q111 15 121 46l11 54q1 8 1 14v13q0 105 -97 105q-180 0 -242 -320q-16 -80 -16 -144q0 -175 134 -177q99 0 128 59q1 1 1 5q0 13 -20 15l6 33h153l-6 -33q-22 -1 -97 -60q-74 -59 -174 -59z" />
    <glyph glyph-name="A" unicode="A" horiz-adv-x="627" 
d="M244 276h207l-43 310zM213 223l-54 -95q-10 -20 -13 -37q-2 -10 -2 -15q0 -42 60 -43l-7 -33h-207l7 33q32 2 79 80l342 597h65l112 -597q16 -78 49 -80l-7 -33h-256l7 33q74 0 84 58q3 12 3 27q0 7 -1 10l-12 95h-249z" />
    <glyph glyph-name="B" unicode="B" horiz-adv-x="649" 
d="M415 402q111 9 134 128q4 17 4 35q0 99 -135 104h-63l-52 -267h112zM493 710q169 -1 169 -127q0 -11 -1.5 -22t-3.5 -23q-20 -105 -138 -156q134 -23 134 -139q0 -10 -1 -21t-3 -22q-39 -200 -274 -200h-326l6 33q73 1 85 57l103 530q1 5 1 13q0 43 -64 44l7 33h306z
M427 349h-134l-48 -246q-1 -5 -1 -14q0 -46 71 -46h22q166 1 196 151q2 14 3.5 26t1.5 23q0 101 -111 106z" />
    <glyph glyph-name="C" unicode="C" horiz-adv-x="657" 
d="M244 351q-5 -28 -8 -53t-3 -48q0 -72 27 -123q42 -83 134 -83q97 1 162 56q67 55 88 108h29q-30 -80 -109 -147q-77 -66 -204 -68q-138 0 -205 93q-48 66 -48 165q0 23 2.5 48t7.5 52q33 169 145 266q112 100 248 100q83 0 122 -30q16 -12 28 -12q19 0 25 33h44l-46 -233
h-43q1 8 1 15v14q0 69 -21 113q-25 52 -108 52t-162 -90q-79 -88 -106 -228z" />
    <glyph glyph-name="D" unicode="D" horiz-adv-x="678" 
d="M272 47h18q109 2 189 86q80 85 106 215q5 25 7.5 48.5t2.5 45.5q0 75 -30 134q-47 90 -155 90h-84l-112 -573q-1 -4 -1 -10q0 -36 59 -36zM423 710q169 -4 238 -97q47 -65 47 -162q0 -23 -3 -48t-8 -52q-31 -160 -136 -253t-276 -98h-265l6 33q73 1 84 57l103 530
q1 4 1.5 7t0.5 6q0 43 -64 44l7 33h265z" />
    <glyph glyph-name="E" unicode="E" horiz-adv-x="607" 
d="M267 340l-47 -245q-2 -10 -2 -12q0 -29 40 -29h144q135 0 161 134h46l-36 -188h-549l7 33q73 1 84 57l103 530q1 4 1.5 7t0.5 6q0 43 -64 44l7 33h516l-37 -188h-45q4 19 4 39q0 95 -118 95h-154l-51 -262h163q55 0 66 54h39l-30 -157h-39q1 4 1 12q0 37 -48 37h-163z
" />
    <glyph glyph-name="F" unicode="F" horiz-adv-x="515" 
d="M267 340l-43 -225q-3 -14 -3 -26q0 -55 64 -56l-6 -33h-250l7 33q68 2 80 57l103 530q1 5 1 14q0 41 -59 43l6 33h476l-37 -188h-45q6 30 6 53q0 81 -70 81h-168l-51 -262h154q55 0 67 54h39l-31 -157h-39q1 4 1 12q0 37 -48 37h-154z" />
    <glyph glyph-name="G" unicode="G" horiz-adv-x="683" 
d="M569 110l20 108q1 4 1.5 7t0.5 6q0 48 -85 49l7 34h211l-7 -34q-27 -2 -39 -62l-40 -208l-22 -16q-40 11 -50 42l-2 24q-79 -67 -209 -68q-132 0 -201 93q-48 66 -48 165q0 44 11 99q31 167 144 265q112 97 261 103q96 0 134 -30q17 -14 29 -14q18 0 23 32h44l-45 -233
h-43q1 8 1 15v14q0 70 -22 113q-25 52 -120 52t-174 -90q-79 -88 -105 -227q-5 -27 -8 -51.5t-3 -47.5q0 -72 26 -124q44 -83 137 -83q94 1 173 67z" />
    <glyph glyph-name="H" unicode="H" horiz-adv-x="700" 
d="M256 337l-48 -247q-1 -5 -1 -13q0 -42 68 -44l-6 -33h-254l6 33q73 1 84 57l103 530q1 4 1.5 7t0.5 6q0 43 -64 44l7 33h254l-7 -33q-77 -1 -88 -57l-45 -229h318l44 229q1 4 1.5 7t0.5 6q0 43 -64 44l7 33h249l-7 -33q-77 -1 -88 -57l-103 -530q-1 -4 -1.5 -7t-0.5 -6
q0 -42 68 -44l-6 -33h-249l6 33q73 1 84 57l48 247h-318z" />
    <glyph glyph-name="I" unicode="I" horiz-adv-x="303" 
d="M218 90q-1 -5 -1 -13q0 -42 68 -44l-7 -33h-254l7 33q73 1 84 57l103 530q1 4 1.5 7t0.5 6q0 43 -64 44l7 33h254l-7 -33q-79 -2 -89 -57z" />
    <glyph glyph-name="J" unicode="J" horiz-adv-x="312" 
d="M224 64q-27 -128 -120 -201q-92 -73 -155 -73l9 44q68 33 105 85t60 153l106 548q1 5 1 14q0 41 -63 43l6 33h255l-7 -33q-79 -2 -89 -57z" />
    <glyph glyph-name="K" unicode="K" horiz-adv-x="629" 
d="M274 305l309 324q2 5 4 8.5t3 7.5v3q0 21 -44 29l7 31h204l-7 -32q-62 -11 -113 -65l-202 -210l146 -313q23 -45 74 -56l-7 -32h-148l-155 304l-91 -102l-16 -87q-3 -14 -3 -26q0 -55 64 -56l-6 -33h-254l6 33q75 2 85 57l103 530q1 5 1 13q0 43 -64 44l7 33h254l-7 -33
q-78 -2 -88 -57z" />
    <glyph glyph-name="L" unicode="L" horiz-adv-x="555" 
d="M350 54q135 0 160 130h46l-35 -184h-477l6 33q75 2 85 57l103 530q1 5 1 13q0 43 -64 44l7 33h254l-7 -33q-78 -2 -88 -57l-103 -527q-1 -3 -1 -9q0 -30 53 -30h60z" />
    <glyph glyph-name="M" unicode="M" horiz-adv-x="855" 
d="M292 710l173 -578l366 578h133l-6 -33q-49 -1 -70 -106l-93 -481q-1 -5 -1.5 -9.5t-0.5 -9.5q0 -37 40 -38l-7 -33h-205l6 33q47 2 63 50l78 402l-316 -485h-68l-147 481l-76 -391q-1 -5 -1.5 -9.5t-0.5 -8.5q0 -38 40 -39l-7 -33h-163l7 33q48 1 60 57l93 481q6 31 6 53
q0 52 -34 53l6 33h125z" />
    <glyph glyph-name="N" unicode="N" horiz-adv-x="688" 
d="M239 491l-78 -401q-1 -3 -1 -10q0 -45 92 -47l-6 -33h-217l7 33q48 1 60 57l93 481q6 31 6 53q0 52 -34 53l6 33h92l320 -511l82 421q1 3 1 10q0 46 -88 47l7 33h216l-7 -33q-54 -2 -64 -57l-121 -620h-40z" />
    <glyph glyph-name="O" unicode="O" horiz-adv-x="742" 
d="M764 351q-32 -162 -132 -259q-101 -99 -259 -99q-166 0 -227 99q-42 64 -42 158q0 23 3 48.5t8 52.5q31 168 132 267q100 99 257 99q169 0 231 -99q40 -64 40 -159q0 -47 -11 -108zM382 37q97 0 164 82q69 83 98 232q5 29 7.5 55t2.5 50q0 77 -25 127q-42 84 -134 84
q-94 0 -163 -82q-69 -83 -99 -234q-9 -56 -9 -101q0 -74 26 -128q40 -85 132 -85z" />
    <glyph glyph-name="P" unicode="P" horiz-adv-x="573" 
d="M267 316l-35 -177q-4 -20 -4 -39q0 -65 62 -67l-7 -33h-254l7 33q73 1 84 57l103 530q1 4 1.5 7t0.5 6q0 43 -64 44l6 33h238q258 -2 258 -154q0 -18 -5 -43q-37 -195 -330 -197h-61zM335 667l-51 -266q-1 -4 -1 -11q0 -32 42 -32h20q167 6 196 155q4 20 4 42
q0 107 -140 112h-70z" />
    <glyph glyph-name="Q" unicode="Q" horiz-adv-x="742" 
d="M382 37q97 0 164 82q69 83 98 232q5 29 7.5 55t2.5 50q0 77 -25 127q-42 84 -134 84q-94 0 -163 -82q-69 -83 -99 -234q-9 -56 -9 -101q0 -74 26 -128q40 -85 132 -85zM381 -7h-8q-166 0 -227 99q-42 64 -42 158q0 23 3 48.5t8 52.5q31 168 132 267q100 99 257 99
q169 0 231 -99q40 -64 40 -159q0 -47 -11 -108q-32 -162 -132 -259q-46 -46 -104 -70q71 -13 124 -78q88 -122 181 -130l-5 -22h-116q-110 0 -191 104q-79 91 -140 97z" />
    <glyph glyph-name="R" unicode="R" horiz-adv-x="603" 
d="M524 193q12 -158 104 -166l-5 -27h-116q-110 2 -110 175v8q0 140 -78 140q-29 0 -62 -10l-34 -174q-5 -25 -5 -39q0 -65 62 -67l-7 -33h-253l6 33q73 1 84 57l103 530q1 4 1.5 7t0.5 6q0 43 -64 44l7 33h201q273 0 273 -152q0 -7 -0.5 -13.5t-1.5 -13.5
q-33 -175 -261 -194q148 -5 155 -144zM325 665l-53 -274q-1 -2 -1 -6q0 -24 46 -24q176 17 202 152q4 20 4 40q0 110 -147 112h-51z" />
    <glyph glyph-name="S" unicode="S" horiz-adv-x="557" 
d="M216 408q-52 45 -52 110q0 5 0.5 10.5t1.5 10.5q13 73 83 126q68 52 177 52q108 0 164 -62l-25 -132h-34q-5 82 -33 113t-76 31q-62 0 -96 -31q-36 -31 -45 -77v-7q0 -47 87 -99q47 -28 80.5 -51.5t54.5 -42.5q57 -53 57 -134q0 -8 -0.5 -16t-1.5 -16q-17 -89 -90 -144
q-74 -56 -199 -56q-146 0 -205 83l34 176h49q-1 -10 -1 -20v-18q0 -103 29 -135q33 -38 96 -38q74 0 114 31q42 31 55 98q1 5 1.5 9t0.5 9q0 71 -89 127q-51 31 -84.5 54t-52.5 39z" />
    <glyph glyph-name="T" unicode="T" horiz-adv-x="562" 
d="M681 710l-37 -188h-45q2 15 3.5 28.5t1.5 24.5q0 81 -70 81h-74l-110 -566q-1 -5 -1 -13q0 -43 63 -44l-6 -33h-250l7 33q73 1 84 57l110 566h-74q-90 0 -116 -134h-46l37 188h523z" />
    <glyph glyph-name="U" unicode="U" horiz-adv-x="701" 
d="M202 619q1 5 1 14q0 42 -63 44l6 33h254l-6 -33q-78 -2 -99 -107l-59 -306q-7 -32 -7 -62q0 -56 26 -91q39 -52 129 -52t144 52.5t73 149.5l60 309q2 11 3 21.5t1 19.5q0 65 -58 66l7 33h217l-7 -33q-77 -2 -89 -58l-71 -369q-22 -111 -102 -185q-80 -72 -219 -72
q-138 0 -186 72q-34 50 -34 119q0 29 6 61z" />
    <glyph glyph-name="V" unicode="V" horiz-adv-x="602" 
d="M355 0h-64l-112 598q-18 78 -67 79l6 33h255l-7 -33q-53 -2 -60 -43q-1 -3 -1 -10q0 -8 1 -12l59 -493l255 499q2 5 2.5 9.5t1.5 6.5q1 4 1 11q0 30 -45 32l6 33h173l-7 -33q-32 -2 -78 -79z" />
    <glyph glyph-name="W" unicode="W" horiz-adv-x="817" 
d="M507 490l-209 -490h-80l-70 628q-7 34 -37 45l8 37h233l-8 -40q-66 -6 -74 -48l44 -452l229 542h37l56 -562l215 475q1 3 1 8q0 34 -66 36l8 41h186l-8 -38q-33 -10 -51 -44l-294 -628h-79z" />
    <glyph glyph-name="X" unicode="X" horiz-adv-x="610" 
d="M412 375l137 -284q33 -56 77 -58l-6 -33h-241l7 33q40 1 48 33q1 3 1 9q0 7 -3 15l-83 190l-162 -190q-8 -9 -9 -19q-1 -3 -1 -9q0 -28 45 -29l-6 -33h-226l7 33q70 2 125 58l210 243l-138 285q-27 56 -72 58l6 33h237l-7 -33q-42 -2 -48 -33q-1 -3 -1 -8q0 -9 3 -16
l83 -190l162 190q7 10 9 21q1 3 1 9q0 25 -33 27l7 33h217l-7 -33q-75 -2 -130 -58z" />
    <glyph glyph-name="Y" unicode="Y" horiz-adv-x="538" 
d="M381 301l-41 -211q-1 -5 -1 -13q0 -43 64 -44l-7 -33h-250l7 33q73 1 84 57l42 213l-112 316q-22 57 -50 58l7 33h213l-6 -33q-42 -2 -48 -33q-1 -3 -1 -9q0 -5 2 -15l81 -251l174 251q10 14 11 24q1 3 1 8q0 23 -36 25l6 33h170l-6 -33q-41 -2 -81 -58z" />
    <glyph glyph-name="Z" unicode="Z" horiz-adv-x="527" 
d="M139 54h222q112 0 146 178h45l-45 -232h-487l8 46l499 614h-194q-136 0 -161 -130h-46l36 184h482l-10 -54z" />
    <glyph glyph-name="bracketleft" unicode="[" horiz-adv-x="344" 
d="M450 710l-9 -47h-108l-146 -749h108l-9 -48h-187l164 844h187z" />
    <glyph glyph-name="backslash" unicode="\" horiz-adv-x="331" 
d="M281 0l-136 744h50l136 -744h-50z" />
    <glyph glyph-name="bracketright" unicode="]" horiz-adv-x="344" 
d="M357 710l-164 -844h-188l10 48h109l145 749h-109l9 47h188z" />
    <glyph glyph-name="asciicircum" unicode="^" 
d="M127 272h-47l189 438h47l190 -438h-47l-167 383z" />
    <glyph glyph-name="underscore" unicode="_" horiz-adv-x="517" 
d="M-44 -90l10 49h571l-10 -49h-571z" />
    <glyph glyph-name="grave" unicode="`" horiz-adv-x="244" 
d="M272 509q-82 57 -96 77q-6 10 -6 21q0 7 1 11q3 12 10.5 23.5t20.5 19.5q16 12 36 12q25 0 38 -21l1 -3q12 -21 20 -125z" />
    <glyph glyph-name="a" unicode="a" horiz-adv-x="561" 
d="M440 364q-24 79 -84 84q-110 -2 -156 -200q-13 -48 -13 -85v-3q0 -111 104 -111q63 0 99 58zM490 80q0 -22 27 -22q31 0 66 23l-7 -34q-56 -48 -129 -48q-52 0 -52 39q0 7 1 12q-71 -51 -150 -51q-159 0 -159 155v4q0 38 12 88q52 247 239 247q111 0 144 -48q21 23 56 35
l25 -16z" />
    <glyph glyph-name="b" unicode="b" horiz-adv-x="557" 
d="M203 140q2 -88 85 -92q127 2 164 201q8 46 8 78q0 120 -98 120q-71 0 -112 -65zM82 45l115 592v6q0 40 -69 43l8 39q84 0 183 12l-55 -283q52 39 134 39q169 0 169 -166q0 -32 -8 -78q-48 -248 -296 -250q-141 0 -181 46z" />
    <glyph glyph-name="c" unicode="c" horiz-adv-x="486" 
d="M261 -1q-178 1 -178 173q0 18 1.5 37.5t5.5 40.5q53 242 287 243q73 -2 109 -32q34 -28 34 -72v-8q0 -4 -1 -9q-11 -50 -63 -54q-48 4 -48 46v8q0 4 1 8l3 9t4 14q2 6 4 14q1 2 1 7q0 26 -41 26q-133 -1 -175 -199q-8 -43 -8 -73q0 -120 107 -122q86 0 151 96l24 -19
q-77 -134 -218 -134z" />
    <glyph glyph-name="d" unicode="d" horiz-adv-x="546" 
d="M461 465l33 178q0 40 -69 43l8 39q84 0 183 12l-126 -657q0 -22 27 -22q31 0 66 23l-7 -34q-56 -48 -129 -48q-58 0 -65 33q-60 -33 -136 -33q-159 0 -159 155v4q0 38 12 88q52 247 239 247q85 0 123 -28zM395 106l48 259l-3 -6q-24 79 -84 84q-110 -2 -156 -200
q-13 -48 -13 -85v-3q0 -111 104 -111q62 0 104 62z" />
    <glyph glyph-name="e" unicode="e" horiz-adv-x="488" 
d="M217 291q16 -2 30.5 -3t27.5 -1q98 0 136 86q10 23 10 42q0 36 -42 41q-86 0 -162 -165zM267 -1q-180 4 -180 183q0 32 6 70q56 240 270 241q146 0 146 -98q-2 -149 -209 -149q-20 0 -42.5 1.5t-47.5 3.5q-8 -46 -8 -78q0 -117 100 -118q91 0 153 95l25 -21
q-71 -126 -213 -130z" />
    <glyph glyph-name="f" unicode="f" horiz-adv-x="361" 
d="M307 477h151l-10 -40h-150l-86 -451q-36 -182 -192 -196q-124 0 -124 100v2q13 66 70 67q49 -3 49 -41q0 -6 -1 -10q-5 -22 -13 -31q-16 -21 -17 -25v-2q0 -12 24 -12q73 0 95 115l92 484h-90l9 40h91l23 119q36 182 192 196q124 0 124 -100v-3q-14 -65 -71 -66
q-48 1 -48 40q0 7 1 11q5 20 13 31q14 17 16 25v2q0 11 -24 11q-72 0 -94 -115z" />
    <glyph glyph-name="g" unicode="g" horiz-adv-x="504" 
d="M377 103l50 256q-24 79 -83 84q-123 -1 -164 -195q-4 -22 -6 -41t-2 -36q0 -127 107 -127q63 0 98 59zM371 39q-50 -40 -118 -40q-183 0 -183 172q0 17 2 36.5t6 40.5q51 245 268 245q67 0 102 -26q14 -9 21 -25q19 21 56 35l25 -17l-56 -291l-3 -4l-24 -122
q-49 -252 -287 -253q-62 2 -99 31q-20 23 -20 49q0 9 1 14q2 10 4 15q17 41 54 41h2q36 -1 41 -27v-7q0 -9 -1 -13q-4 -15 -15 -29q-2 -3 -4 -9v-2q0 -13 34 -20q134 0 194 206z" />
    <glyph glyph-name="h" unicode="h" horiz-adv-x="581" 
d="M465 328q4 17 4 36q0 66 -65 66q-68 0 -142 -77l-69 -353h-103l124 637q1 2 1 6q0 39 -69 44l8 38q84 0 182 12l-61 -319q79 75 174 75q74 0 105 -40q20 -28 20 -71q0 -19 -5 -47l-48 -245q-1 -4 -1 -8v-6q0 -18 13 -18q15 0 50 23l-6 -34q-56 -48 -115 -48q-47 0 -47 55
q0 16 3 36z" />
    <glyph glyph-name="i" unicode="i" horiz-adv-x="306" 
d="M232 90q-2 -10 -2 -14q0 -18 14 -18q15 0 50 23l-6 -34q-56 -48 -115 -48q-48 0 -48 55q0 19 4 36l59 306q2 10 2 14q0 18 -14 18q-16 0 -50 -22l6 33q55 49 115 49q48 0 48 -55q0 -18 -4 -37zM348 679q0 -26 -20 -46t-51 -20t-51 20t-20 46t20 46t51 20t51 -20t20 -46z
" />
    <glyph glyph-name="j" unicode="j" horiz-adv-x="229" 
d="M178 -24q-16 -88 -82 -137q-64 -49 -132 -49l8 41q79 27 102 143l82 422q2 10 2 14q0 18 -14 18q-16 0 -50 -22l6 33q55 49 115 49q48 0 48 -55q0 -18 -4 -37zM318 679q0 -26 -20 -46t-50 -20q-32 0 -52 20t-20 46t20 46t52 20q30 0 50 -20t20 -46z" />
    <glyph glyph-name="k" unicode="k" horiz-adv-x="526" 
d="M285 227q-18 -27 -38.5 -58.5t-43.5 -67.5l-19 -101h-103l124 637v6q0 39 -69 44l8 38q84 0 183 12l-103 -531q157 271 300 271h3q65 -5 65 -54q0 -4 -0.5 -8.5t-1.5 -9.5q-20 -56 -78 -57q-45 0 -68 22q-11 11 -24 11q-20 0 -69 -63l121 -226q16 -34 36 -34q15 0 50 23
l-6 -34q-41 -48 -91 -48q-57 0 -75 44z" />
    <glyph glyph-name="l" unicode="l" horiz-adv-x="273" 
d="M207 637q1 2 1 6q0 39 -69 44l7 38q83 0 184 12l-126 -647q-1 -4 -1 -8v-6q0 -18 13 -18q16 0 51 23l-7 -34q-54 -48 -114 -48q-49 0 -49 55q0 19 4 36z" />
    <glyph glyph-name="m" unicode="m" horiz-adv-x="804" 
d="M757 90q-1 -4 -1 -8v-6q0 -18 14 -18q15 0 50 23l-7 -34q-54 -48 -113 -48q-48 0 -48 55q0 19 4 36l47 238q2 12 3.5 22.5t1.5 20.5q0 59 -48 59t-117 -70l-70 -360h-101l64 328q2 12 3.5 22.5t1.5 20.5q0 59 -47 59q-51 0 -125 -77l-69 -353h-103l77 396q2 10 2 14
q0 18 -14 18q-16 0 -50 -22l6 33q53 49 114 49q49 0 49 -57q0 -7 -1 -11l2 2v-2q66 73 156 73q100 0 100 -72v-3q76 75 167 75q107 0 107 -101q0 -22 -6 -50z" />
    <glyph glyph-name="n" unicode="n" horiz-adv-x="578" 
d="M167 396q1 4 1 7v7q0 18 -14 18q-16 0 -50 -22l7 33q53 49 114 49q48 0 48 -56v-8q0 -4 -1 -8l2 1q79 76 175 76q74 0 105 -40q19 -26 19 -70q0 -11 -1.5 -24t-3.5 -27l-47 -242q-1 -4 -1 -8v-6q0 -18 13 -18q15 0 50 23l-6 -34q-56 -48 -115 -48q-47 0 -47 55q0 16 3 36
l47 238q4 17 4 36q0 66 -65 66q-68 0 -142 -77l-69 -353h-103z" />
    <glyph glyph-name="o" unicode="o" horiz-adv-x="569" 
d="M370 445q-133 0 -172 -195q-4 -23 -6 -43t-2 -37q0 -123 105 -123q133 0 172 200q4 22 6 41t2 36q0 121 -105 121zM381 493q199 0 199 -170q0 -17 -2 -36.5t-6 -40.5q-49 -247 -288 -247q-201 0 -201 170q0 35 9 77q49 247 289 247z" />
    <glyph glyph-name="p" unicode="p" horiz-adv-x="572" 
d="M272 374l-45 -234q3 -88 87 -92q126 1 165 201q8 46 8 78q0 120 -98 120q-72 0 -117 -73zM280 442l7 5q55 46 138 46q169 0 169 -166q0 -32 -8 -78q-48 -248 -273 -250q-66 0 -107 28l-28 -142q-2 -10 -2 -15q0 -41 35 -42l-6 -33h-187l6 33q41 2 51 57l99 511q1 4 1 7v7
q0 18 -13 18q-17 0 -51 -22l7 33q53 49 114 49q44 0 48 -46z" />
    <glyph glyph-name="q" unicode="q" horiz-adv-x="521" 
d="M377 103l50 256q-24 79 -83 84q-123 -1 -164 -195q-4 -22 -6 -41t-2 -36q0 -127 107 -127q63 0 98 59zM448 467q14 -9 21 -25q19 21 56 35l25 -17l-113 -580q-1 -4 -1 -8v-8q0 -39 50 -41l-6 -33h-223l7 33q60 2 70 57l30 152q-50 -33 -111 -33q-183 0 -183 172
q0 17 2 36.5t6 40.5q51 245 268 245q67 0 102 -26z" />
    <glyph glyph-name="r" unicode="r" horiz-adv-x="411" 
d="M284 396h1q54 93 125 93q65 0 65 -51q0 -7 -1 -11q-12 -62 -66 -66q-49 2 -53 47q-2 6 -5 6q-9 0 -28 -19q-31 -31 -54 -83l-60 -312h-104l78 396q1 4 1 7v7q0 18 -14 18q-16 0 -50 -22l6 33q55 49 115 49q48 0 48 -56q0 -17 -4 -36z" />
    <glyph glyph-name="s" unicode="s" horiz-adv-x="444" 
d="M435 458q25 -22 25 -51q0 -8 -1 -12q-2 -8 -4 -14q-17 -41 -53 -41h-1q-39 2 -42 28v7q0 9 1 13q3 14 14 29q2 2 4 7v1q0 8 -13 12q-21 8 -54 8q-68 -8 -83 -60v-6q0 -40 111 -83q97 -33 97 -118q0 -15 -3 -33q-2 -12 -6 -22q-39 -124 -218 -124h-13q-95 6 -120 48
q-12 19 -12 37q0 8 1 11q3 16 16 30q21 25 46 25q11 0 20 -4q24 -9 24 -33q0 -8 -1 -12l-2 -8t-2 -9l-3 -9q-1 -2 -1 -7q0 -26 46 -26h8q5 0 10 1q80 8 96 85q1 4 1 8v8q0 28 -22 50q-30 28 -74 45q-115 27 -115 98q0 10 1 15q12 63 71 102q57 39 133 39q80 -1 118 -35z" />
    <glyph glyph-name="t" unicode="t" horiz-adv-x="302" 
d="M260 437l-61 -327q-1 -5 -1.5 -8.5t-0.5 -7.5q0 -25 18 -29q34 0 63 21l20 -29q-56 -59 -117 -59q-90 1 -90 75q0 12 3 29l64 335h-75l10 40q98 21 143 135h60l-26 -135h96l-10 -40h-96z" />
    <glyph glyph-name="u" unicode="u" horiz-adv-x="596" 
d="M169 396q2 10 2 14q0 18 -14 18q-16 0 -50 -22l6 33q55 49 115 49q48 0 48 -55q0 -18 -4 -37l-45 -232q-2 -10 -3 -19.5t-1 -17.5q0 -65 64 -65q68 0 143 77l66 338h103l-76 -387q-1 -5 -1 -13q0 -19 14 -19q15 0 50 23l-6 -34q-56 -48 -115 -48q-48 0 -48 58v8q0 5 1 10
l-1 -1q-81 -75 -175 -75q-76 0 -104 40q-20 26 -20 70q0 11 1.5 24t3.5 27z" />
    <glyph glyph-name="v" unicode="v" horiz-adv-x="545" 
d="M224 187q-6 -27 -6 -48q0 -81 77 -81q87 1 139 85q23 37 31 76q4 17 4 39q0 33 -10 63q-25 60 -25 96q0 5 2 15q11 55 65 55q31 0 46 -27q19 -29 19 -87q0 -14 -1.5 -30.5t-3.5 -34.5q-1 -5 -2 -10.5t-2 -10.5q-23 -114 -100 -197q-85 -91 -213 -91q-130 0 -130 124
q0 8 0.5 17.5t1.5 19.5h-1l46 236q2 10 2 14q0 18 -14 18q-16 0 -50 -22l6 33q53 49 114 49q49 0 49 -56q0 -19 -4 -36z" />
    <glyph glyph-name="w" unicode="w" horiz-adv-x="877" 
d="M161 396q2 10 2 14q0 18 -14 18q-16 0 -50 -22l6 33q53 49 114 49q49 0 49 -56q0 -19 -4 -36l-40 -209q-6 -27 -6 -48q0 -81 77 -81q87 1 139 85q5 7 8.5 14t7.5 14q1 4 1.5 8t1.5 8l56 290h103l-56 -290q-6 -27 -6 -48q0 -81 77 -81q87 1 139 85q23 37 31 76q4 17 4 39
q0 31 -9 63q-26 63 -26 96q0 5 2 15q11 55 65 55q31 0 46 -27q19 -29 19 -87q0 -14 -1.5 -30.5t-3.5 -34.5q-1 -5 -2 -10.5t-2 -10.5q-23 -114 -100 -197q-85 -91 -213 -91q-107 0 -126 84q-86 -84 -206 -84q-130 0 -130 124q0 8 0.5 17.5t1.5 19.5h-1z" />
    <glyph glyph-name="x" unicode="x" horiz-adv-x="518" 
d="M284 160q-131 -159 -200 -161h-5q-56 0 -56 34q0 7 1 10q11 47 52 57q12 3 23 3q24 0 34 -16q1 -3 5 -3q24 0 120 123l-94 178q-18 33 -37 33q-16 0 -50 -22l6 33q40 49 90 49q56 0 76 -45l74 -132q140 174 209 175h6q57 0 57 -37v-8l-1 -5q-9 -42 -51 -51q-14 -3 -23 -3
q-26 0 -36 16q-2 2 -5 2q-24 0 -131 -137l86 -161q18 -34 37 -34q15 0 50 23l-7 -34q-39 -48 -90 -48q-57 0 -75 44z" />
    <glyph glyph-name="y" unicode="y" horiz-adv-x="596" 
d="M169 396q1 4 1 7v7q0 18 -13 18q-17 0 -51 -22l7 33q53 49 115 49q48 0 48 -55q0 -18 -4 -37l-45 -232q-2 -10 -3 -19.5t-1 -17.5q0 -65 63 -65q68 0 143 77l66 338h103l-86 -444q-46 -241 -287 -243q-62 2 -99 31q-21 22 -21 50q0 3 0.5 6t1.5 7q2 10 4 15q17 41 54 41
h2q38 -2 41 -27v-7q0 -9 -1 -13q-3 -15 -15 -29q-4 -4 -4 -9v-2q0 -13 34 -20q147 0 201 232q-92 -66 -181 -66q-75 0 -105 40q-20 26 -20 70q0 22 6 51z" />
    <glyph glyph-name="z" unicode="z" horiz-adv-x="437" 
d="M477 435l-309 -394h135q46 10 64 106h46l-20 -147h-349l11 55l298 381h-121q-47 -17 -65 -106h-45l21 147h342z" />
    <glyph glyph-name="braceleft" unicode="{" horiz-adv-x="324" 
d="M273 -26q-160 0 -160 106q0 17 4 33q22 64 34.5 106.5t16.5 65.5q4 17 4 31q0 24 -13 24q-17 -3 -24 -3q-20 0 -20 14q0 3 1 5q3 18 26 18q8 0 23 -3q20 0 31 56q4 22 8 64.5t7 106.5q27 139 210 139l-4 -25q-63 -4 -84 -109q-2 -13 -5 -39t-6 -68q-22 -118 -134 -141
q84 -18 84 -100q0 -21 -4 -40q-13 -42 -20.5 -67.5t-9.5 -38.5q-6 -26 -6 -47q0 -59 46 -63z" />
    <glyph glyph-name="bar" unicode="|" horiz-adv-x="245" 
d="M245 0h-50v710h50v-710z" />
    <glyph glyph-name="braceright" unicode="}" horiz-adv-x="324" 
d="M46 -1q63 5 83 110q6 26 12 106q22 117 134 140q-84 19 -84 101q0 21 4 40q26 84 30 107q5 28 5 46q0 58 -45 63l5 25q159 0 159 -105q0 -16 -3 -34q-22 -64 -34.5 -106.5t-17.5 -64.5q-3 -20 -3 -32q0 -24 13 -24q15 3 24 3q20 0 20 -14q0 -3 -1 -4q-4 -19 -27 -19
q-9 0 -22 3q-21 0 -31 -55q-5 -23 -8.5 -65.5t-7.5 -106.5q-25 -139 -209 -139z" />
    <glyph glyph-name="asciitilde" unicode="~" 
d="M268 311q-72 21 -109 21q-39 0 -45 -21q-8 -29 -19 -29q-6 0 -12 6q4 66 58 100q13 8 38 8q49 0 139 -28q70 -22 109 -22q38 0 44 22q7 28 20 28q4 0 11 -5q-4 -68 -57 -100q-13 -8 -37 -8q-50 0 -140 28z" />
    <glyph glyph-name="exclamdown" unicode="&#xa1;" horiz-adv-x="239" 
d="M265 271q-12 -184 -20.5 -289t-13.5 -134q-18 -94 -93 -94q-61 0 -61 61q0 15 3 33q7 29 39 134t92 289h54zM219 422q0 22 17 39t41 17t41 -17t17 -39q0 -23 -17 -40q-16 -16 -41 -16t-41 16q-17 17 -17 40z" />
    <glyph glyph-name="cent" unicode="&#xa2;" horiz-adv-x="476" 
d="M435 149q-73 -76 -189 -76q-16 1 -29.5 2.5t-25.5 5.5l-48 -84h-50l58 102q-28 19 -45 52q-26 54 -26 111q0 28 6 60q22 102 90 177q68 74 182 75q17 0 32 -2t29 -5l54 95h50l-64 -112q11 -6 19.5 -14t15.5 -17q24 -35 24 -66v-8q0 -4 -1 -8t-3 -8.5t-4 -9.5
q-23 -47 -70 -47q-29 0 -46 20q-8 12 -11 24q-1 3 -1 10q0 8 1 11q4 26 29 46q4 4 8.5 7t7.5 6q1 0 2 1q3 1 3 4q1 1 1 2t-1 1v1q-4 10 -43 12q-3 1 -9 1h-10q-50 -2 -97 -50q-40 -42 -60 -143q-9 -50 -9 -83q0 -27 4 -42q1 -6 3.5 -11t4.5 -10q5 -7 9 -12l8 -10
q25 -27 61 -27q63 0 110 53q16 16 28 37l44 -18q-20 -31 -42 -53z" />
    <glyph glyph-name="sterling" unicode="&#xa3;" horiz-adv-x="574" 
d="M258 223l-1 -4q-19 -102 -119 -165h216q136 0 161 130h46l-36 -184h-476l6 33h3q89 64 103 128q5 29 6 62h-70l9 49h59v8q-2 21 -3 41t-1 39q0 62 10 109q48 249 276 249q102 -5 144 -55q30 -38 30 -93q0 -22 -5 -50q-18 -78 -84 -78q-49 0 -49 42q0 6 1 9q9 45 44 73
q21 15 26 35v5q0 15 -18 39q-21 27 -83 32q-150 0 -184 -181q-10 -50 -10 -121q0 -35 3 -74v-29h171l-10 -49h-165z" />
    <glyph glyph-name="currency" unicode="&#xa4;" horiz-adv-x="431" 
d="M215 348q-20 0 -37 -7t-30 -19.5t-20.5 -28.5t-7.5 -34t7.5 -34t20.5 -28.5t30 -19.5t37 -7q19 0 36.5 7t30.5 19.5t20.5 28.5t7.5 34t-7.5 34t-20.5 28.5t-30.5 19.5t-36.5 7zM287 369l61 62l34 -34l-59 -59q30 -35 30 -79q0 -45 -30 -79l59 -59l-34 -34l-61 62
q-32 -18 -72 -18t-71 18l-61 -62l-34 34l58 58q-30 34 -30 80q0 45 30 80l-58 58l34 34l61 -62q31 18 71 18t72 -18z" />
    <glyph glyph-name="yen" unicode="&#xa5;" horiz-adv-x="538" 
d="M269 332l-102 287q-22 57 -50 58l7 33h213l-6 -33q-42 -2 -48 -33q-1 -3 -1 -9q0 -5 2 -15l81 -251l174 251q10 14 11 24q1 3 1 8q0 23 -36 25l6 33h170l-6 -33q-41 -2 -81 -58l-202 -287h102l-9 -48h-117l-19 -99h117l-10 -47h-116l-10 -48q-1 -5 -1 -13q0 -43 64 -44
l-7 -33h-250l7 33q73 1 84 57l10 48h-121l9 47h121l19 99h-120l9 48h105z" />
    <glyph glyph-name="brokenbar" unicode="&#xa6;" horiz-adv-x="245" 
d="M245 432h-50v305h50v-305zM245 -209h-50v305h50v-305z" />
    <glyph glyph-name="section" unicode="&#xa7;" horiz-adv-x="580" 
d="M268 438q-45 -33 -60 -102q-1 -4 -1 -8v-9q0 -71 89 -127l73.5 -45.5t53.5 -33.5q40 29 55 98q1 5 1 9v9q0 71 -89 127q-42 26 -72 46t-50 36zM596 234q-26 -104 -133 -170q22 -34 22 -75q0 -5 -0.5 -10.5t-1.5 -10.5q-38 -168 -257 -168q-171 3 -171 98q0 5 0.5 10
t1.5 10q13 76 79 76q48 -2 48 -44q0 -7 -1 -12q-3 -20 -22 -50q-1 -2 -1 -5q0 -14 17 -22q27 -11 60 -11q107 2 131 98v4q0 48 -149 131q-133 70 -133 188q0 23 4 43q25 107 148 180q-9 22 -9 49v10q0 5 1 10q35 173 259 173q169 -3 169 -107q0 -13 -3 -26q-21 -61 -76 -61
q-48 1 -48 44q0 7 1 12q11 39 22 50v3q0 32 -76 36q-109 -3 -132 -104v-4q0 -48 137 -119q118 -61 118 -176q0 -22 -5 -50z" />
    <glyph glyph-name="dieresis" unicode="&#xa8;" horiz-adv-x="345" 
d="M262 588q0 -19 -13.5 -32.5t-34.5 -13.5t-35 13.5t-14 32.5q0 20 14 34t35 14t34.5 -14t13.5 -34zM405 588q0 -19 -14.5 -32.5t-34.5 -13.5q-21 0 -34.5 13.5t-13.5 32.5q0 20 13.5 34t34.5 14t35 -14t14 -34z" />
    <glyph glyph-name="copyright" unicode="&#xa9;" horiz-adv-x="808" 
d="M316 353q0 -81 35 -130q32 -44 78 -44q54 2 81 29q31 31 39 69h44q-12 -60 -53 -104q-44 -44 -125 -44q-89 0 -144 60q-56 61 -56 164t58 164q60 65 139 65q62 0 102 -26v20h51v-159h-49q-9 61 -29 90q-18 26 -60 26q-41 0 -75 -49q-36 -51 -36 -131zM791 355
q0 -160 -116 -271t-276 -111t-271 111t-111 271t113 271q114 111 274 111t273 -111q114 -111 114 -271zM404 696q-142 0 -242 -100q-100 -99 -100 -241q0 -141 100 -241t242 -100q141 0 241 100t100 241q0 142 -100 241q-100 100 -241 100z" />
    <glyph glyph-name="ordfeminine" unicode="&#xaa;" horiz-adv-x="425" 
d="M356 417l38 193q-20 58 -63 63q-93 -2 -123 -147q-2 -16 -3.5 -30.5t-1.5 -27.5q0 -94 79 -94q49 0 74 43zM352 369q-44 -29 -89 -29q-138 0 -138 129q0 25 6 57q37 184 201 184q51 0 77 -20q8 -5 16 -18q17 17 42 26l19 -12l-54 -279q-1 -3 -1 -10q0 -13 10 -13
q12 0 38 17l-5 -25q-40 -37 -86 -37q-32 0 -36 30z" />
    <glyph glyph-name="guillemotleft" unicode="&#xab;" horiz-adv-x="604" 
d="M276 83l-11 -61l-188 237l279 237l-11 -61l-199 -176zM522 83l-11 -61l-188 237l279 237l-11 -61l-199 -176z" />
    <glyph glyph-name="logicalnot" unicode="&#xac;" 
d="M464 235h-390v48h438v-243h-48v195z" />
    <glyph glyph-name="registered" unicode="&#xae;" horiz-adv-x="808" 
d="M354 546v-162h65q68 9 68 81t-68 81h-65zM402 341q-39 0 -48 -3v-97q0 -54 46 -54v-40h-177v40q44 0 44 24v318q0 23 -44 25v39h206q148 0 148 -117q0 -112 -108 -112q89 -11 125 -99q24 -62 57 -62q15 0 32 12q51 38 62 140q0 142 -100 241q-100 100 -241 100
q-142 0 -242 -100q-100 -99 -100 -241q0 -141 100 -241t242 -100q137 0 237 95l1 1l30 -33q-112 -104 -268 -104q-160 0 -274 111q-113 111 -113 271t113 271q114 111 274 111t273 -111q114 -111 114 -271q-11 -154 -131 -197q-35 -12 -63 -12q-73 0 -109 82
q-50 113 -86 113z" />
    <glyph glyph-name="macron" unicode="&#xaf;" horiz-adv-x="301" 
d="M122 550l9 48h272l-9 -48h-272z" />
    <glyph glyph-name="degree" unicode="&#xb0;" horiz-adv-x="215" 
d="M108 676q-24 0 -43 -17q-17 -17 -17 -42t17 -42q19 -17 43 -17t41 17q18 16 18 42q0 25 -18 42q-17 17 -41 17zM108 715q40 0 69 -29q28 -28 28 -69q0 -40 -29 -69q-28 -28 -69 -28q-42 0 -69 28q-28 28 -28 69q0 42 28 70t70 28z" />
    <glyph glyph-name="plusminus" unicode="&#xb1;" 
d="M269 283v195h47v-195h196v-48h-196v-195h-47v195h-195v48h195zM511 0v-48h-438v48h438z" />
    <glyph glyph-name="uni00B2" unicode="&#xb2;" horiz-adv-x="439" 
d="M198 335h220l-15 -74h-287l8 39q15 77 125 119q95 36 110 112q2 10 2 14q0 40 -55 40q-39 0 -46 -15v-1q0 -5 11 -16q8 -10 8 -22q0 -7 -1 -10q-12 -36 -54 -37q-49 0 -49 39v6q0 4 1 8q7 31 34 53q46 38 121 38q127 0 127 -86q0 -14 -3 -27q-18 -97 -144 -125
q-109 -26 -113 -55z" />
    <glyph glyph-name="uni00B3" unicode="&#xb3;" horiz-adv-x="439" 
d="M340 625q1 4 1 12q0 12 -6 23q-13 22 -43 22q-28 0 -32 -9q0 -2 7 -6q19 -10 19 -27q0 -4 -1 -6q-8 -36 -52 -39q-43 3 -43 37q0 7 1 12q4 25 24 43q43 36 107 36t97 -35q22 -22 22 -53q0 -5 -0.5 -9t-1.5 -9q-13 -70 -69 -88q61 -12 61 -84q0 -11 -1.5 -22t-3.5 -24
q-9 -45 -50 -83q-62 -57 -144 -57q-90 5 -114 65q-9 27 -9 48v8q0 4 1 8q14 56 69 56q42 0 42 -31q0 -7 -1 -12q-5 -27 -32 -47q-10 -7 -11 -14q0 -34 56 -36q43 0 72 28q20 19 28 58q3 15 3 27q0 80 -111 82l8 42q97 30 107 84z" />
    <glyph glyph-name="acute" unicode="&#xb4;" horiz-adv-x="244" 
d="M153 524q23 51 40 82t28 43l3 3q21 21 46 21q17 0 31 -12q10 -7 13 -19q1 -4 1.5 -7t0.5 -7q0 -7 -1 -10q-3 -18 -17 -32q-24 -21 -126 -77z" />
    <glyph glyph-name="mu" unicode="&#xb5;" horiz-adv-x="575" 
d="M505 89q-1 -4 -1.5 -7t-0.5 -6q0 -18 15 -18t50 23l-7 -34q-54 -48 -114 -48q-49 0 -49 54v4q-83 -74 -177 -74q-24 0 -46 5l-21 -108q-2 -10 -2 -15q0 -41 55 -42l-6 -33h-227l6 33q61 2 71 57l100 516q1 4 1 7v7q0 18 -13 18q-17 0 -51 -22l7 33q53 49 114 49
q48 0 48 -55q0 -18 -4 -37l-3 -21l-47 -242q-1 -5 -1 -11v-10q0 -66 64 -66q68 0 143 78l68 353h103z" />
    <glyph glyph-name="paragraph" unicode="&#xb6;" horiz-adv-x="542" 
d="M178 -210l6 33q70 2 83 51l86 442q-209 2 -209 148q0 11 1 23.5t3 25.5q37 192 272 197h240l-9 -50q-84 0 -95 -56l-141 -729q-1 -3 -1 -9q0 -42 64 -43l-7 -33h-123l170 870h-47l-170 -870h-123z" />
    <glyph glyph-name="periodcentered" unicode="&#xb7;" horiz-adv-x="248" 
d="M160 355q0 -19 -14 -33t-35 -14t-35 14t-14 33q0 20 14 34t35 14t35 -14t14 -34z" />
    <glyph glyph-name="periodcentered" unicode="&#x2219;" horiz-adv-x="248" 
d="M160 355q0 -19 -14 -33t-35 -14t-35 14t-14 33q0 20 14 34t35 14t35 -14t14 -34z" />
    <glyph glyph-name="cedilla" unicode="&#xb8;" horiz-adv-x="297" 
d="M42 -141q17 -16 51 -16q32 0 48 10.5t20 32.5q1 2 1 6q0 18 -19 25q-15 7 -55 7l39 81h45l-20 -44q43 0 62 -19q14 -16 14 -38q0 -4 -0.5 -8.5t-1.5 -9.5q-7 -37 -39 -58.5t-83 -21.5q-53 0 -90 15z" />
    <glyph glyph-name="uni00B9" unicode="&#xb9;" horiz-adv-x="439" 
d="M257 481h-89l9 40q97 7 150 84h58l-54 -279q-1 -1 -1 -4q0 -18 36 -19l34 1l-8 -43h-251l8 43l37 -1q37 1 41 23z" />
    <glyph glyph-name="ordmasculine" unicode="&#xba;" horiz-adv-x="418" 
d="M340 678q-100 0 -129 -149q-2 -17 -3.5 -31.5t-1.5 -27.5q0 -95 78 -95q100 0 129 152q6 33 6 58q0 93 -79 93zM348 713q150 0 150 -129q0 -13 -1.5 -27.5t-5.5 -30.5q-36 -187 -216 -187q-150 0 -150 130q0 25 6 57q37 187 217 187z" />
    <glyph glyph-name="guillemotright" unicode="&#xbb;" horiz-adv-x="604" 
d="M313 259l-131 176l12 61l187 -237l-279 -237l12 61zM559 259l-131 176l12 61l187 -237l-279 -237l12 61z" />
    <glyph glyph-name="onequarter" unicode="&#xbc;" horiz-adv-x="977" 
d="M289 583h-89l8 40q97 7 150 84h59l-55 -279v-5q0 -17 36 -18h34l-9 -43h-251l9 43l36 -1q37 1 42 24zM271 0l564 709h51l-566 -709h-49zM888 416h64l-51 -263h42l-11 -60h-43l-18 -93h-86l18 93h-184l10 53zM712 153h102l27 139z" />
    <glyph glyph-name="onehalf" unicode="&#xbd;" horiz-adv-x="977" 
d="M289 583h-89l8 40q97 7 150 84h59l-55 -279v-5q0 -17 36 -18h34l-9 -43h-251l9 43l36 -1q37 1 42 24zM256 0l565 709h50l-565 -709h-50zM694 74h221l-15 -74h-287l7 39q17 77 126 119q95 36 110 113q1 5 1 14q0 40 -54 40q-39 0 -46 -15v-1q0 -6 11 -17q8 -8 8 -21
q0 -7 -1 -11q-12 -34 -54 -37q-49 0 -49 40q0 8 1 13q7 32 34 54q44 37 121 37q127 0 127 -86q0 -14 -3 -27q-18 -97 -144 -125q-108 -26 -114 -55z" />
    <glyph glyph-name="threequarters" unicode="&#xbe;" horiz-adv-x="977" 
d="M364 608q1 4 1 12q0 12 -6 23q-14 23 -43 23q-26 0 -32 -9q0 -1 8 -6q18 -11 18 -27v-7q-8 -35 -53 -39q-43 3 -43 37q0 8 1 12q6 27 24 43q43 37 107 37t97 -36q22 -22 22 -53q0 -4 -0.5 -8t-1.5 -9q-13 -70 -68 -89q61 -12 61 -84q0 -17 -5 -45q-9 -47 -51 -84
q-62 -56 -143 -56q-92 3 -114 64q-10 26 -10 48q0 7 2 17q14 56 68 56q43 0 43 -32q0 -7 -1 -11q-6 -29 -33 -48q-9 -7 -11 -13q1 -34 56 -37q44 0 73 28q20 19 28 58q3 15 3 28q0 79 -111 81l7 42q97 30 107 84zM300 0l565 709h50l-565 -709h-50zM888 416h64l-51 -263h42
l-11 -60h-43l-18 -93h-86l18 93h-184l10 53zM712 153h102l27 139z" />
    <glyph glyph-name="questiondown" unicode="&#xbf;" horiz-adv-x="428" 
d="M394 422q4 22 24 39t44 17t38 -17q10 -11 10 -28q0 -7 -1 -11q-5 -24 -24 -40t-44 -16q-26 0 -39 16q-9 13 -9 29q0 7 1 11zM435 273q-24 -104 -101 -190q-81 -90 -97 -172q-2 -10 -3 -19.5t-1 -17.5q0 -85 100 -86q60 5 88 34q15 15 16 26v6q0 11 -9 22q-15 16 -15 41
q0 4 0.5 8.5t1.5 9.5q10 40 54 40q43 0 43 -49v-13q-14 -68 -65 -111q-50 -44 -132 -48q-160 7 -160 126q0 11 1 22t3 22q24 111 126 198q89 76 117 151h33z" />
    <glyph glyph-name="Agrave" unicode="&#xc0;" horiz-adv-x="627" 
d="M244 276h207l-43 310zM213 223l-54 -95q-10 -20 -13 -37q-2 -10 -2 -15q0 -42 60 -43l-7 -33h-207l7 33q32 2 79 80l342 597h65l112 -597q16 -78 49 -80l-7 -33h-256l7 33q74 0 84 58q3 12 3 27q0 7 -1 10l-12 95h-249zM505 741q-82 57 -96 77q-6 10 -6 21q0 7 1 11
q3 12 10.5 23.5t20.5 19.5q16 12 36 12q25 0 38 -21l1 -3q12 -21 20 -125z" />
    <glyph glyph-name="Aacute" unicode="&#xc1;" horiz-adv-x="627" 
d="M244 276h207l-43 310zM213 223l-54 -95q-10 -20 -13 -37q-2 -10 -2 -15q0 -42 60 -43l-7 -33h-207l7 33q32 2 79 80l342 597h65l112 -597q16 -78 49 -80l-7 -33h-256l7 33q74 0 84 58q3 12 3 27q0 7 -1 10l-12 95h-249zM434 756q23 51 40 82t28 43l3 3q21 21 46 21
q17 0 31 -12q10 -7 13 -19q1 -4 1.5 -7t0.5 -7q0 -7 -1 -10q-3 -18 -17 -32q-24 -21 -126 -77z" />
    <glyph glyph-name="Acircumflex" unicode="&#xc2;" horiz-adv-x="627" 
d="M244 276h207l-43 310zM213 223l-54 -95q-10 -20 -13 -37q-2 -10 -2 -15q0 -42 60 -43l-7 -33h-207l7 33q32 2 79 80l342 597h65l112 -597q16 -78 49 -80l-7 -33h-256l7 33q74 0 84 58q3 12 3 27q0 7 -1 10l-12 95h-249zM604 783q1 -1 1 -3t-1 -3q-1 -13 -19 -13
q-6 0 -10 1l-89 57l-112 -57q-4 -1 -10 -1q-15 0 -15 10v3l2 6l151 125z" />
    <glyph glyph-name="Atilde" unicode="&#xc3;" horiz-adv-x="627" 
d="M244 276h207l-43 310zM213 223l-54 -95q-10 -20 -13 -37q-2 -10 -2 -15q0 -42 60 -43l-7 -33h-207l7 33q32 2 79 80l342 597h65l112 -597q16 -78 49 -80l-7 -33h-256l7 33q74 0 84 58q3 12 3 27q0 7 -1 10l-12 95h-249zM429 818q-25 0 -34 -19q-12 -25 -22 -25q-4 0 -9 5
q17 62 68 91q13 7 36 7q20 0 43 -29t34 -29q24 0 33 19q13 25 23 25q4 0 9 -5q-17 -63 -69 -91q-11 -7 -34 -7q-20 0 -43 29t-35 29z" />
    <glyph glyph-name="Adieresis" unicode="&#xc4;" horiz-adv-x="627" 
d="M244 276h207l-43 310zM213 223l-54 -95q-10 -20 -13 -37q-2 -10 -2 -15q0 -42 60 -43l-7 -33h-207l7 33q32 2 79 80l342 597h65l112 -597q16 -78 49 -80l-7 -33h-256l7 33q74 0 84 58q3 12 3 27q0 7 -1 10l-12 95h-249zM465 820q0 -19 -13.5 -32.5t-34.5 -13.5t-35 13.5
t-14 32.5q0 20 14 34t35 14t34.5 -14t13.5 -34zM608 820q0 -19 -14.5 -32.5t-34.5 -13.5q-21 0 -34.5 13.5t-13.5 32.5q0 20 13.5 34t34.5 14t35 -14t14 -34z" />
    <glyph glyph-name="Aring" unicode="&#xc5;" horiz-adv-x="627" 
d="M244 276h207l-43 310zM213 223l-54 -95q-10 -20 -13 -37q-2 -10 -2 -15q0 -42 60 -43l-7 -33h-207l7 33q32 2 79 80l342 597h65l112 -597q16 -78 49 -80l-7 -33h-256l7 33q74 0 84 58q3 12 3 27q0 7 -1 10l-12 95h-249zM437 816q-1 -3 -1 -11q0 -5 1 -8q6 -29 39 -29
q21 0 37.5 13.5t21.5 34.5q1 3 1 9q0 14 -9 25q-12 15 -32 15q-21 0 -37 -15q-16 -13 -21 -34zM400 816q7 37 37 62q29 25 66 25q38 0 57 -25q15 -20 15 -44v-9q0 -4 -1 -9q-8 -36 -38 -62q-30 -24 -67 -24t-56 24q-15 19 -15 44q0 5 0.5 9t1.5 9z" />
    <glyph glyph-name="AE" unicode="&#xc6;" horiz-adv-x="853" 
d="M411 697l3 13h516l-37 -188h-45q4 19 4 39q0 95 -118 95h-154l-51 -262h163q55 0 66 54h39l-30 -157h-39q1 4 1 12q0 37 -48 37h-163l-56 -286h191q135 0 161 134h46l-36 -188h-549l7 33q73 1 84 57l26 133h-179l-54 -95q-10 -20 -13 -37q-2 -10 -2 -15q0 -42 60 -43
l-7 -33h-207l7 33q32 2 79 80zM402 276l74 380h-18l-214 -380h158z" />
    <glyph glyph-name="Ccedilla" unicode="&#xc7;" horiz-adv-x="657" 
d="M317 0q-105 13 -162 90q-48 66 -48 165q0 44 11 99q32 168 144 265q112 100 234 100q97 0 136 -30q16 -12 28 -12q19 0 25 33h44l-46 -233h-43q1 8 1 15v14q0 69 -21 113q-25 52 -108 52t-162 -90q-79 -88 -105 -227q-5 -27 -8 -52t-3 -48q0 -71 26 -123q44 -83 135 -83
q97 1 162 56q66 55 87 108h30q-32 -80 -109 -147q-77 -66 -204 -68l-17 -36q43 0 62 -19q14 -16 14 -38q0 -4 -0.5 -8.5t-1.5 -9.5q-7 -37 -39.5 -58.5t-83.5 -21.5q-52 0 -88 15l28 38q16 -16 50 -16q32 0 48 10.5t20 32.5q1 2 1 7q0 17 -19 24q-15 7 -55 7z" />
    <glyph glyph-name="Egrave" unicode="&#xc8;" horiz-adv-x="607" 
d="M267 340l-47 -245q-2 -10 -2 -12q0 -29 40 -29h144q135 0 161 134h46l-36 -188h-549l7 33q73 1 84 57l103 530q1 4 1.5 7t0.5 6q0 43 -64 44l7 33h516l-37 -188h-45q4 19 4 39q0 95 -118 95h-154l-51 -262h163q55 0 66 54h39l-30 -157h-39q1 4 1 12q0 37 -48 37h-163z
M484 741q-82 57 -96 77q-6 10 -6 21q0 7 1 11q3 12 10.5 23.5t20.5 19.5q16 12 36 12q25 0 38 -21l1 -3q12 -21 20 -125z" />
    <glyph glyph-name="Eacute" unicode="&#xc9;" horiz-adv-x="607" 
d="M267 340l-47 -245q-2 -10 -2 -12q0 -29 40 -29h144q135 0 161 134h46l-36 -188h-549l7 33q73 1 84 57l103 530q1 4 1.5 7t0.5 6q0 43 -64 44l7 33h516l-37 -188h-45q4 19 4 39q0 95 -118 95h-154l-51 -262h163q55 0 66 54h39l-30 -157h-39q1 4 1 12q0 37 -48 37h-163z
M412 756q23 51 40 82t28 43l3 3q21 21 46 21q17 0 31 -12q10 -7 13 -19q1 -4 1.5 -7t0.5 -7q0 -7 -1 -10q-3 -18 -17 -32q-24 -21 -126 -77z" />
    <glyph glyph-name="Ecircumflex" unicode="&#xca;" horiz-adv-x="607" 
d="M267 340l-47 -245q-2 -10 -2 -12q0 -29 40 -29h144q135 0 161 134h46l-36 -188h-549l7 33q73 1 84 57l103 530q1 4 1.5 7t0.5 6q0 43 -64 44l7 33h516l-37 -188h-45q4 19 4 39q0 95 -118 95h-154l-51 -262h163q55 0 66 54h39l-30 -157h-39q1 4 1 12q0 37 -48 37h-163z
M589 783v-6q-3 -13 -20 -13q-6 0 -10 1l-89 57l-112 -57q-3 -1 -10 -1q-15 0 -15 10v3l2 6l152 125z" />
    <glyph glyph-name="Edieresis" unicode="&#xcb;" horiz-adv-x="607" 
d="M267 340l-47 -245q-2 -10 -2 -12q0 -29 40 -29h144q135 0 161 134h46l-36 -188h-549l7 33q73 1 84 57l103 530q1 4 1.5 7t0.5 6q0 43 -64 44l7 33h516l-37 -188h-45q4 19 4 39q0 95 -118 95h-154l-51 -262h163q55 0 66 54h39l-30 -157h-39q1 4 1 12q0 37 -48 37h-163z
M444 820q0 -19 -13.5 -32.5t-34.5 -13.5t-35 13.5t-14 32.5q0 20 14 34t35 14t34.5 -14t13.5 -34zM587 820q0 -19 -14.5 -32.5t-34.5 -13.5q-21 0 -34.5 13.5t-13.5 32.5q0 20 13.5 34t34.5 14t35 -14t14 -34z" />
    <glyph glyph-name="Igrave" unicode="&#xcc;" horiz-adv-x="303" 
d="M218 90q-1 -5 -1 -13q0 -42 68 -44l-7 -33h-254l7 33q73 1 84 57l103 530q1 4 1.5 7t0.5 6q0 43 -64 44l7 33h254l-7 -33q-79 -2 -89 -57zM337 741q-82 57 -96 77q-6 10 -6 21q0 7 1 11q3 12 10.5 23.5t20.5 19.5q16 12 36 12q25 0 38 -21l1 -3q12 -21 20 -125z" />
    <glyph glyph-name="Iacute" unicode="&#xcd;" horiz-adv-x="303" 
d="M218 90q-1 -5 -1 -13q0 -42 68 -44l-7 -33h-254l7 33q73 1 84 57l103 530q1 4 1.5 7t0.5 6q0 43 -64 44l7 33h254l-7 -33q-79 -2 -89 -57zM265 756q23 51 40 82t28 43l3 3q21 21 46 21q17 0 31 -12q10 -7 13 -19q1 -4 1.5 -7t0.5 -7q0 -7 -1 -10q-3 -18 -17 -32
q-24 -21 -126 -77z" />
    <glyph glyph-name="Icircumflex" unicode="&#xce;" horiz-adv-x="303" 
d="M218 90q-1 -5 -1 -13q0 -42 68 -44l-7 -33h-254l7 33q73 1 84 57l103 530q1 4 1.5 7t0.5 6q0 43 -64 44l7 33h254l-7 -33q-79 -2 -89 -57zM441 783q1 -1 1 -3t-1 -3q-1 -13 -19 -13q-7 0 -10 1l-89 57l-112 -57q-4 -1 -10 -1q-15 0 -15 10v3l2 6l151 125z" />
    <glyph glyph-name="Idieresis" unicode="&#xcf;" horiz-adv-x="303" 
d="M218 90q-1 -5 -1 -13q0 -42 68 -44l-7 -33h-254l7 33q73 1 84 57l103 530q1 4 1.5 7t0.5 6q0 43 -64 44l7 33h254l-7 -33q-79 -2 -89 -57zM296 820q0 -19 -13.5 -32.5t-34.5 -13.5t-35 13.5t-14 32.5q0 20 14 34t35 14t34.5 -14t13.5 -34zM439 820q0 -19 -14.5 -32.5
t-34.5 -13.5q-21 0 -34.5 13.5t-13.5 32.5q0 20 13.5 34t34.5 14t35 -14t14 -34z" />
    <glyph glyph-name="Eth" unicode="&#xd0;" horiz-adv-x="678" 
d="M167 380l46 240q1 4 1.5 7t0.5 6q0 43 -64 44l7 33h265q169 -4 238 -97q47 -65 47 -162q0 -23 -3 -48t-8 -52q-31 -160 -136 -253t-276 -98h-265l6 33q73 1 84 57l47 240h-74l10 50h74zM270 380h199l-10 -50h-199l-54 -281q8 -1 29 -1.5t55 -0.5q109 2 189 86
q80 85 106 215q5 25 7.5 48.5t2.5 45.5q0 75 -30 134q-47 90 -155 90q-34 0 -55.5 -0.5t-29.5 -1.5z" />
    <glyph glyph-name="Ntilde" unicode="&#xd1;" horiz-adv-x="688" 
d="M239 491l-78 -401q-1 -3 -1 -10q0 -45 92 -47l-6 -33h-217l7 33q48 1 60 57l93 481q6 31 6 53q0 52 -34 53l6 33h92l320 -511l82 421q1 3 1 10q0 46 -88 47l7 33h216l-7 -33q-54 -2 -64 -57l-121 -620h-40zM447 818q-25 0 -34 -19q-12 -25 -22 -25q-4 0 -9 5q17 62 68 91
q13 7 36 7q20 0 43 -29t34 -29q24 0 33 19q13 25 23 25q4 0 9 -5q-17 -63 -69 -91q-11 -7 -34 -7q-20 0 -43 29t-35 29z" />
    <glyph glyph-name="Ograve" unicode="&#xd2;" horiz-adv-x="742" 
d="M764 351q-32 -162 -132 -259q-101 -99 -259 -99q-166 0 -227 99q-42 64 -42 158q0 23 3 48.5t8 52.5q31 168 132 267q100 99 257 99q169 0 231 -99q40 -64 40 -159q0 -47 -11 -108zM382 37q97 0 164 82q69 83 98 232q5 29 7.5 55t2.5 50q0 77 -25 127q-42 84 -134 84
q-94 0 -163 -82q-69 -83 -99 -234q-9 -56 -9 -101q0 -74 26 -128q40 -85 132 -85zM557 741q-82 57 -96 77q-6 10 -6 21q0 7 1 11q3 12 10.5 23.5t20.5 19.5q16 12 36 12q25 0 38 -21l1 -3q12 -21 20 -125z" />
    <glyph glyph-name="Oacute" unicode="&#xd3;" horiz-adv-x="742" 
d="M764 351q-32 -162 -132 -259q-101 -99 -259 -99q-166 0 -227 99q-42 64 -42 158q0 23 3 48.5t8 52.5q31 168 132 267q100 99 257 99q169 0 231 -99q40 -64 40 -159q0 -47 -11 -108zM382 37q97 0 164 82q69 83 98 232q5 29 7.5 55t2.5 50q0 77 -25 127q-42 84 -134 84
q-94 0 -163 -82q-69 -83 -99 -234q-9 -56 -9 -101q0 -74 26 -128q40 -85 132 -85zM485 756q23 51 40 82t28 43l3 3q21 21 46 21q17 0 31 -12q10 -7 13 -19q1 -4 1.5 -7t0.5 -7q0 -7 -1 -10q-3 -18 -17 -32q-24 -21 -126 -77z" />
    <glyph glyph-name="Ocircumflex" unicode="&#xd4;" horiz-adv-x="742" 
d="M763 349q-32 -161 -131 -259q-101 -98 -259 -98q-166 0 -228 98q-41 67 -41 159q0 23 2.5 48t7.5 52q33 169 132 268q101 98 258 98q168 0 230 -98q40 -64 40 -159q0 -48 -11 -109zM381 36q96 0 165 82q68 83 98 231q10 56 10 106q0 73 -26 127q-41 84 -134 84t-162 -83
q-69 -81 -99 -234q-10 -53 -10 -101q0 -74 26 -128q42 -84 132 -84zM662 783q1 -1 1 -3t-1 -3q-1 -13 -19 -13q-7 0 -11 1l-89 57l-111 -57q-4 -1 -11 -1q-15 0 -15 10q0 2 1 3l2 6l151 125z" />
    <glyph glyph-name="Otilde" unicode="&#xd5;" horiz-adv-x="742" 
d="M764 351q-32 -162 -132 -259q-101 -99 -259 -99q-166 0 -227 99q-42 64 -42 158q0 23 3 48.5t8 52.5q31 168 132 267q100 99 257 99q169 0 231 -99q40 -64 40 -159q0 -47 -11 -108zM382 37q97 0 164 82q69 83 98 232q5 29 7.5 55t2.5 50q0 77 -25 127q-42 84 -134 84
q-94 0 -163 -82q-69 -83 -99 -234q-9 -56 -9 -101q0 -74 26 -128q40 -85 132 -85zM480 818q-25 0 -34 -19q-12 -25 -22 -25q-4 0 -9 5q17 62 68 91q13 7 36 7q20 0 43 -29t34 -29q24 0 33 19q13 25 23 25q4 0 9 -5q-17 -63 -69 -91q-11 -7 -34 -7q-20 0 -43 29t-35 29z" />
    <glyph glyph-name="Odieresis" unicode="&#xd6;" horiz-adv-x="742" 
d="M764 351q-32 -162 -132 -259q-101 -99 -259 -99q-166 0 -227 99q-42 64 -42 158q0 23 3 48.5t8 52.5q31 168 132 267q100 99 257 99q169 0 231 -99q40 -64 40 -159q0 -47 -11 -108zM382 37q97 0 164 82q69 83 98 232q5 29 7.5 55t2.5 50q0 77 -25 127q-42 84 -134 84
q-94 0 -163 -82q-69 -83 -99 -234q-9 -56 -9 -101q0 -74 26 -128q40 -85 132 -85zM516 820q0 -19 -13.5 -32.5t-34.5 -13.5t-35 13.5t-14 32.5q0 20 14 34t35 14t34.5 -14t13.5 -34zM659 820q0 -19 -14.5 -32.5t-34.5 -13.5q-21 0 -34.5 13.5t-13.5 32.5q0 20 13.5 34
t34.5 14t35 -14t14 -34z" />
    <glyph glyph-name="multiply" unicode="&#xd7;" 
d="M259 259l-138 138l34 34l137 -139l139 139l33 -34l-138 -138l138 -138l-33 -34l-139 139l-137 -139l-34 34z" />
    <glyph glyph-name="Oslash" unicode="&#xd8;" horiz-adv-x="742" 
d="M291 69q37 -31 94 -31q93 0 162 82q68 83 98 232q5 29 7.5 55t2.5 50q0 75 -26 127q-2 5 -4.5 10t-6.5 10zM261 103l327 535q-38 30 -93 30q-93 0 -162 -82q-69 -83 -99 -234q-10 -53 -10 -102q0 -73 26 -127q4 -10 11 -20zM665 682q43 -24 69 -65q40 -64 40 -159
q0 -48 -11 -109q-32 -161 -131 -259q-101 -98 -263 -98q-67 0 -115 16l-31 -51h-49l-1 1l41 67q-43 24 -69 65q-41 67 -41 159q0 23 2.5 48t7.5 52q33 169 132 268q101 98 264 98q67 0 115 -16l31 51h51z" />
    <glyph glyph-name="Ugrave" unicode="&#xd9;" horiz-adv-x="701" 
d="M202 619q1 5 1 14q0 42 -63 44l6 33h254l-6 -33q-78 -2 -99 -107l-59 -306q-7 -32 -7 -62q0 -56 26 -91q39 -52 129 -52t144 52.5t73 149.5l60 309q2 11 3 21.5t1 19.5q0 65 -58 66l7 33h217l-7 -33q-77 -2 -89 -58l-71 -369q-22 -111 -102 -185q-80 -72 -219 -72
q-138 0 -186 72q-34 50 -34 119q0 29 6 61zM530 741q-82 57 -96 77q-6 10 -6 21q0 7 1 11q3 12 10.5 23.5t20.5 19.5q16 12 36 12q25 0 38 -21l1 -3q12 -21 20 -125z" />
    <glyph glyph-name="Uacute" unicode="&#xda;" horiz-adv-x="701" 
d="M202 619q1 5 1 14q0 42 -63 44l6 33h254l-6 -33q-78 -2 -99 -107l-59 -306q-7 -32 -7 -62q0 -56 26 -91q39 -52 129 -52t144 52.5t73 149.5l60 309q2 11 3 21.5t1 19.5q0 65 -58 66l7 33h217l-7 -33q-77 -2 -89 -58l-71 -369q-22 -111 -102 -185q-80 -72 -219 -72
q-138 0 -186 72q-34 50 -34 119q0 29 6 61zM458 756q23 51 40 82t28 43l3 3q21 21 46 21q17 0 31 -12q10 -7 13 -19q1 -4 1.5 -7t0.5 -7q0 -7 -1 -10q-3 -18 -17 -32q-24 -21 -126 -77z" />
    <glyph glyph-name="Ucircumflex" unicode="&#xdb;" horiz-adv-x="701" 
d="M202 619q1 4 1.5 7t0.5 7q0 43 -64 44l6 33h254l-6 -33q-78 -2 -99 -107l-58 -302q-7 -32 -7 -62q0 -56 26 -91q39 -52 129 -52t144 52.5t73 149.5l59 305q2 12 3.5 22.5t1.5 19.5q0 64 -58 65l6 33h217l-6 -33q-79 -2 -89 -58l-71 -365q-22 -111 -102 -185
q-80 -72 -219 -72q-138 0 -186 72q-34 50 -34 118q0 30 6 62zM642 783v-6q-3 -13 -20 -13q-6 0 -10 1l-89 57l-112 -57q-4 -1 -10 -1q-15 0 -15 10v3l2 6l152 125z" />
    <glyph glyph-name="Udieresis" unicode="&#xdc;" horiz-adv-x="701" 
d="M202 619q1 5 1 14q0 42 -63 44l6 33h254l-6 -33q-78 -2 -99 -107l-59 -306q-7 -32 -7 -62q0 -56 26 -91q39 -52 129 -52t144 52.5t73 149.5l60 309q2 11 3 21.5t1 19.5q0 65 -58 66l7 33h217l-7 -33q-77 -2 -89 -58l-71 -369q-22 -111 -102 -185q-80 -72 -219 -72
q-138 0 -186 72q-34 50 -34 119q0 29 6 61zM490 820q0 -19 -13.5 -32.5t-34.5 -13.5t-35 13.5t-14 32.5q0 20 14 34t35 14t34.5 -14t13.5 -34zM633 820q0 -19 -14.5 -32.5t-34.5 -13.5q-21 0 -34.5 13.5t-13.5 32.5q0 20 13.5 34t34.5 14t35 -14t14 -34z" />
    <glyph glyph-name="Yacute" unicode="&#xdd;" horiz-adv-x="538" 
d="M381 301l-41 -211q-1 -5 -1 -13q0 -43 64 -44l-7 -33h-250l7 33q73 1 84 57l42 213l-112 316q-22 57 -50 58l7 33h213l-6 -33q-42 -2 -48 -33q-1 -3 -1 -9q0 -5 2 -15l81 -251l174 251q10 14 11 24q1 3 1 8q0 23 -36 25l6 33h170l-6 -33q-41 -2 -81 -58zM377 756
q23 51 40 82t28 43l3 3q21 21 46 21q17 0 31 -12q10 -7 13 -19q1 -4 1.5 -7t0.5 -7q0 -7 -1 -10q-3 -18 -17 -32q-24 -21 -126 -77z" />
    <glyph glyph-name="Thorn" unicode="&#xde;" horiz-adv-x="578" 
d="M224 170l-16 -80q-1 -5 -1 -13q0 -42 68 -44l-6 -33h-254l6 33q73 1 84 57l103 530q1 4 1.5 7t0.5 6q0 43 -64 44l7 33h254l-7 -33q-77 -1 -88 -57l-14 -71q315 -2 315 -153q0 -16 -3 -34q-37 -190 -386 -192zM232 212q232 6 261 150q3 15 3 28q0 112 -206 117z" />
    <glyph glyph-name="germandbls" unicode="&#xdf;" horiz-adv-x="554" 
d="M294 32q38 0 73 18q57 34 72 117q3 15 3 30q0 60 -48 102q-52 43 -52 90q0 6 2 16q7 43 68 87q60 43 71 99q4 17 4 35q0 69 -73 69q-86 -2 -108 -114l-113 -581h-103l83 427h-66l10 51h66l13 70q35 179 210 188h27q164 0 164 -103q0 -13 -3 -29q-11 -50 -78 -111
q-69 -63 -76 -98v-7q0 -37 70 -89q47 -35 47 -92q0 -18 -4 -34q-35 -174 -226 -174q-51 0 -88 22l11 18q20 -7 44 -7z" />
    <glyph glyph-name="agrave" unicode="&#xe0;" horiz-adv-x="561" 
d="M440 364q-24 79 -84 84q-110 -2 -156 -200q-13 -48 -13 -85v-3q0 -111 104 -111q63 0 99 58zM490 80q0 -22 27 -22q31 0 66 23l-7 -34q-56 -48 -129 -48q-52 0 -52 39q0 7 1 12q-71 -51 -150 -51q-159 0 -159 155v4q0 38 12 88q52 247 239 247q111 0 144 -48q21 23 56 35
l25 -16zM449 509q-82 57 -96 77q-6 10 -6 21q0 7 1 11q3 12 10.5 23.5t20.5 19.5q16 12 36 12q25 0 38 -21l1 -3q12 -21 20 -125z" />
    <glyph glyph-name="aacute" unicode="&#xe1;" horiz-adv-x="561" 
d="M440 364q-24 79 -84 84q-110 -2 -156 -200q-13 -48 -13 -85v-3q0 -111 104 -111q63 0 99 58zM490 80q0 -22 27 -22q31 0 66 23l-7 -34q-56 -48 -129 -48q-52 0 -52 39q0 7 1 12q-71 -51 -150 -51q-159 0 -159 155v4q0 38 12 88q52 247 239 247q111 0 144 -48q21 23 56 35
l25 -16zM377 524q23 51 40 82t28 43l3 3q21 21 46 21q17 0 31 -12q10 -7 13 -19q1 -4 1.5 -7t0.5 -7q0 -7 -1 -10q-3 -18 -17 -32q-24 -21 -126 -77z" />
    <glyph glyph-name="acircumflex" unicode="&#xe2;" horiz-adv-x="561" 
d="M440 364q-24 79 -84 84q-110 -2 -156 -200q-13 -48 -13 -85v-3q0 -111 104 -111q63 0 99 58zM490 80q0 -22 27 -22q31 0 66 23l-7 -34q-56 -48 -129 -48q-52 0 -52 39q0 7 1 12q-71 -51 -150 -51q-159 0 -159 155v4q0 38 12 88q52 247 239 247q111 0 144 -48q21 23 56 35
l25 -16zM562 550q1 -1 1 -3t-1 -3q-2 -12 -19 -12q-6 0 -10 1l-89 57l-112 -57q-4 -1 -10 -1q-15 0 -15 10v2q1 2 1 3t1 3l151 125z" />
    <glyph glyph-name="atilde" unicode="&#xe3;" horiz-adv-x="561" 
d="M440 364q-24 79 -84 84q-110 -2 -156 -200q-13 -48 -13 -85v-3q0 -111 104 -111q63 0 99 58zM490 80q0 -22 27 -22q31 0 66 23l-7 -34q-56 -48 -129 -48q-52 0 -52 39q0 7 1 12q-71 -51 -150 -51q-159 0 -159 155v4q0 38 12 88q52 247 239 247q111 0 144 -48q21 23 56 35
l25 -16zM373 586q-25 0 -34 -19q-12 -25 -22 -25q-4 0 -9 5q17 62 68 91q13 7 36 7q20 0 43 -29t34 -29q24 0 33 19q13 25 23 25q4 0 9 -5q-17 -63 -69 -91q-11 -7 -34 -7q-20 0 -43 29t-35 29z" />
    <glyph glyph-name="adieresis" unicode="&#xe4;" horiz-adv-x="561" 
d="M440 364q-24 79 -84 84q-110 -2 -156 -200q-13 -48 -13 -85v-3q0 -111 104 -111q63 0 99 58zM490 80q0 -22 27 -22q31 0 66 23l-7 -34q-56 -48 -129 -48q-52 0 -52 39q0 7 1 12q-71 -51 -150 -51q-159 0 -159 155v4q0 38 12 88q52 247 239 247q111 0 144 -48q21 23 56 35
l25 -16zM408 588q0 -19 -13.5 -32.5t-34.5 -13.5t-35 13.5t-14 32.5q0 20 14 34t35 14t34.5 -14t13.5 -34zM551 588q0 -19 -14.5 -32.5t-34.5 -13.5q-21 0 -34.5 13.5t-13.5 32.5q0 20 13.5 34t34.5 14t35 -14t14 -34z" />
    <glyph glyph-name="aring" unicode="&#xe5;" horiz-adv-x="561" 
d="M440 364q-24 79 -84 84q-110 -2 -156 -200q-13 -48 -13 -85v-3q0 -111 104 -111q63 0 99 58zM490 80q0 -22 27 -22q31 0 66 23l-7 -34q-56 -48 -129 -48q-52 0 -52 39q0 7 1 12q-71 -51 -150 -51q-159 0 -159 155v4q0 38 12 88q52 247 239 247q111 0 144 -48q21 23 56 35
l25 -16zM380 584q-1 -3 -1 -11q0 -5 1 -8q6 -29 39 -29q21 0 37.5 13.5t21.5 34.5q1 3 1 9q0 14 -9 25q-12 15 -32 15q-21 0 -37 -15q-16 -13 -21 -34zM343 584q7 37 37 62q29 25 66 25q38 0 57 -25q15 -20 15 -44v-9q0 -4 -1 -9q-8 -36 -38 -62q-30 -24 -67 -24t-56 24
q-15 19 -15 44q0 5 0.5 9t1.5 9z" />
    <glyph glyph-name="ae" unicode="&#xe6;" horiz-adv-x="787" 
d="M712 311q2 12 3 23t1 21q0 80 -66 82q-85 0 -130 -126h192zM402 70q-90 -72 -206 -72q-128 12 -128 102q0 12 3 26q24 127 154 146q130 21 174 62l12 57v7q0 54 -45 54q-48 0 -62 -35q-16 -36 -46 -58q-20 -15 -41 -15q-47 2 -47 41q0 6 2 16q10 43 67 67t109 24
q107 -2 141 -53q64 54 159 54q93 0 137 -62q29 -44 29 -105q0 -34 -7 -66h-309q-9 -45 -9 -79q0 -44 15 -69q33 -56 99 -57q48 0 95 44q27 25 44 51l24 -21q-11 -17 -25 -34t-31 -33q-65 -63 -157 -63q-108 2 -151 71zM386 107q-13 38 -13 82q0 31 6 64l6 24v2
q-17 -13 -46 -25.5t-71 -23.5q-83 -23 -98 -99q-1 -5 -1.5 -10.5t-0.5 -10.5q0 -67 69 -67t149 64z" />
    <glyph glyph-name="ccedilla" unicode="&#xe7;" horiz-adv-x="486" 
d="M224 1q-141 18 -141 171q0 18 1.5 37.5t5.5 40.5q53 242 287 243q72 -2 109 -31q34 -28 34 -72v-9q0 -4 -1 -8q-11 -51 -63 -54q-48 4 -48 45v8q0 4 1 9q1 2 3 8t4 14q2 4 2.5 7.5t1.5 6.5t1 7q0 27 -41 27q-133 -1 -175 -200q-8 -43 -8 -73q0 -120 107 -122q86 0 151 96
l24 -19q-74 -131 -210 -134l-18 -38q43 0 62 -19q14 -16 14 -38q0 -4 -0.5 -8.5t-1.5 -9.5q-7 -37 -39 -58.5t-83 -21.5q-53 0 -90 15l29 38q16 -16 49 -16t49 10.5t20 32.5q1 2 1 7q0 17 -19 24q-14 7 -55 7z" />
    <glyph glyph-name="egrave" unicode="&#xe8;" horiz-adv-x="488" 
d="M217 291q16 -2 30.5 -3t27.5 -1q98 0 136 86q10 23 10 42q0 36 -42 41q-86 0 -162 -165zM267 -1q-180 4 -180 183q0 32 6 70q56 240 270 241q146 0 146 -98q-2 -149 -209 -149q-20 0 -42.5 1.5t-47.5 3.5q-8 -46 -8 -78q0 -117 100 -118q91 0 153 95l25 -21
q-71 -126 -213 -130zM389 509q-82 57 -96 77q-6 10 -6 21q0 7 1 11q3 12 10.5 23.5t20.5 19.5q16 12 36 12q25 0 38 -21l1 -3q12 -21 20 -125z" />
    <glyph glyph-name="eacute" unicode="&#xe9;" horiz-adv-x="488" 
d="M217 291q16 -2 30.5 -3t27.5 -1q98 0 136 86q10 23 10 42q0 36 -42 41q-86 0 -162 -165zM267 -1q-180 4 -180 183q0 32 6 70q56 240 270 241q146 0 146 -98q-2 -149 -209 -149q-20 0 -42.5 1.5t-47.5 3.5q-8 -46 -8 -78q0 -117 100 -118q91 0 153 95l25 -21
q-71 -126 -213 -130zM317 524q23 51 40 82t28 43l3 3q21 21 46 21q17 0 31 -12q10 -7 13 -19q1 -4 1.5 -7t0.5 -7q0 -7 -1 -10q-3 -18 -17 -32q-24 -21 -126 -77z" />
    <glyph glyph-name="ecircumflex" unicode="&#xea;" horiz-adv-x="488" 
d="M217 291q16 -2 30.5 -3t27.5 -1q98 0 136 86q10 23 10 42q0 36 -42 41q-86 0 -162 -165zM267 -1q-180 4 -180 183q0 32 6 70q56 240 270 241q146 0 146 -98q-2 -149 -209 -149q-20 0 -42.5 1.5t-47.5 3.5q-8 -46 -8 -78q0 -117 100 -118q91 0 153 95l25 -21
q-71 -126 -213 -130zM502 550q1 -1 1 -3t-1 -3q-2 -12 -19 -12q-6 0 -10 1l-89 57l-112 -57q-4 -1 -10 -1q-15 0 -15 10v2q1 2 1 3t1 3l151 125z" />
    <glyph glyph-name="edieresis" unicode="&#xeb;" horiz-adv-x="488" 
d="M217 291q16 -2 30.5 -3t27.5 -1q98 0 136 86q10 23 10 42q0 36 -42 41q-86 0 -162 -165zM267 -1q-180 4 -180 183q0 32 6 70q56 240 270 241q146 0 146 -98q-2 -149 -209 -149q-20 0 -42.5 1.5t-47.5 3.5q-8 -46 -8 -78q0 -117 100 -118q91 0 153 95l25 -21
q-71 -126 -213 -130zM348 588q0 -19 -13.5 -32.5t-34.5 -13.5t-35 13.5t-14 32.5q0 20 14 34t35 14t34.5 -14t13.5 -34zM491 588q0 -19 -14.5 -32.5t-34.5 -13.5q-21 0 -34.5 13.5t-13.5 32.5q0 20 13.5 34t34.5 14t35 -14t14 -34z" />
    <glyph glyph-name="igrave" unicode="&#xec;" horiz-adv-x="306" 
d="M232 90q-2 -10 -2 -14q0 -18 14 -18q15 0 50 23l-6 -34q-56 -48 -115 -48q-48 0 -48 55q0 19 4 36l59 306q2 10 2 14q0 18 -14 18q-16 0 -50 -22l6 33q55 49 115 49q48 0 48 -55q0 -18 -4 -37zM301 509q-82 57 -96 77q-6 10 -6 21q0 7 1 11q3 12 10.5 23.5t20.5 19.5
q16 12 36 12q25 0 38 -21l1 -3q12 -21 20 -125z" />
    <glyph glyph-name="iacute" unicode="&#xed;" horiz-adv-x="306" 
d="M232 90q-2 -10 -2 -14q0 -18 14 -18q15 0 50 23l-6 -34q-56 -48 -115 -48q-48 0 -48 55q0 19 4 36l59 306q2 10 2 14q0 18 -14 18q-16 0 -50 -22l6 33q55 49 115 49q48 0 48 -55q0 -18 -4 -37zM229 524q23 51 40 82t28 43l3 3q21 21 46 21q17 0 31 -12q10 -7 13 -19
q1 -4 1.5 -7t0.5 -7q0 -7 -1 -10q-3 -18 -17 -32q-24 -21 -126 -77z" />
    <glyph glyph-name="icircumflex" unicode="&#xee;" horiz-adv-x="306" 
d="M232 90q-2 -10 -2 -14q0 -18 14 -18q15 0 50 23l-6 -34q-56 -48 -115 -48q-48 0 -48 55q0 19 4 36l59 306q2 10 2 14q0 18 -14 18q-16 0 -50 -22l6 33q55 49 115 49q48 0 48 -55q0 -18 -4 -37zM415 550q1 -1 1 -3t-1 -3q-2 -12 -19 -12q-6 0 -10 1l-89 57l-112 -57
q-4 -1 -10 -1q-15 0 -15 10v2q1 2 1 3t1 3l151 125z" />
    <glyph glyph-name="idieresis" unicode="&#xef;" horiz-adv-x="306" 
d="M232 90q-2 -10 -2 -14q0 -18 14 -18q15 0 50 23l-6 -34q-56 -48 -115 -48q-48 0 -48 55q0 19 4 36l59 306q2 10 2 14q0 18 -14 18q-16 0 -50 -22l6 33q55 49 115 49q48 0 48 -55q0 -18 -4 -37zM261 588q0 -19 -13.5 -32.5t-34.5 -13.5t-35 13.5t-14 32.5q0 20 14 34
t35 14t34.5 -14t13.5 -34zM404 588q0 -19 -14.5 -32.5t-34.5 -13.5q-21 0 -34.5 13.5t-13.5 32.5q0 20 13.5 34t34.5 14t35 -14t14 -34z" />
    <glyph glyph-name="eth" unicode="&#xf0;" horiz-adv-x="579" 
d="M375 450q-126 0 -165 -200l-2 -7q-8 -46 -8 -79q0 -121 100 -121q126 0 165 200l1 4q9 45 9 81q0 122 -100 122zM454 673l108 55l17 -41l-94 -47q5 -5 9 -11t8 -11q65 -82 82 -181q4 -23 6 -45.5t2 -45.5q0 -51 -9 -100q-50 -252 -294 -252q-206 0 -206 175q0 35 9 77
q49 252 294 252q36 0 68 -6q-10 44 -29 87q-2 7 -5 13l-6 12l-113 -57l-16 41l107 54q-32 51 -77 85h58q39 -14 81 -54z" />
    <glyph glyph-name="ntilde" unicode="&#xf1;" horiz-adv-x="578" 
d="M167 396q1 4 1 7v7q0 18 -14 18q-16 0 -50 -22l7 33q53 49 114 49q48 0 48 -56v-8q0 -4 -1 -8l2 1q79 76 175 76q74 0 105 -40q19 -26 19 -70q0 -11 -1.5 -24t-3.5 -27l-47 -242q-1 -4 -1 -8v-6q0 -18 13 -18q15 0 50 23l-6 -34q-56 -48 -115 -48q-47 0 -47 55q0 16 3 36
l47 238q4 17 4 36q0 66 -65 66q-68 0 -142 -77l-69 -353h-103zM359 586q-25 0 -34 -19q-12 -25 -22 -25q-4 0 -9 5q17 62 68 91q13 7 36 7q20 0 43 -29t34 -29q24 0 33 19q13 25 23 25q4 0 9 -5q-17 -63 -69 -91q-11 -7 -34 -7q-20 0 -43 29t-35 29z" />
    <glyph glyph-name="ograve" unicode="&#xf2;" horiz-adv-x="569" 
d="M370 445q-133 0 -172 -195q-4 -23 -6 -43t-2 -37q0 -123 105 -123q133 0 172 200q4 22 6 41t2 36q0 121 -105 121zM381 493q199 0 199 -170q0 -17 -2 -36.5t-6 -40.5q-49 -247 -288 -247q-201 0 -201 170q0 35 9 77q49 247 289 247zM422 509q-82 57 -96 77q-6 10 -6 21
q0 7 1 11q3 12 10.5 23.5t20.5 19.5q16 12 36 12q25 0 38 -21l1 -3q12 -21 20 -125z" />
    <glyph glyph-name="oacute" unicode="&#xf3;" horiz-adv-x="569" 
d="M370 445q-133 0 -172 -195q-4 -23 -6 -43t-2 -37q0 -123 105 -123q133 0 172 200q4 22 6 41t2 36q0 121 -105 121zM381 493q199 0 199 -170q0 -17 -2 -36.5t-6 -40.5q-49 -247 -288 -247q-201 0 -201 170q0 35 9 77q49 247 289 247zM351 524q23 51 40 82t28 43l3 3
q21 21 46 21q17 0 31 -12q10 -7 13 -19q1 -4 1.5 -7t0.5 -7q0 -7 -1 -10q-3 -18 -17 -32q-24 -21 -126 -77z" />
    <glyph glyph-name="ocircumflex" unicode="&#xf4;" horiz-adv-x="569" 
d="M370 445q-133 0 -172 -195q-4 -23 -6 -43t-2 -37q0 -123 105 -123q133 0 172 200q4 22 6 41t2 36q0 121 -105 121zM381 493q199 0 199 -170q0 -17 -2 -36.5t-6 -40.5q-49 -247 -288 -247q-201 0 -201 170q0 35 9 77q49 247 289 247zM535 550q1 -1 1 -3t-1 -3
q-2 -12 -19 -12q-6 0 -10 1l-89 57l-112 -57q-4 -1 -10 -1q-15 0 -15 10v2q1 2 1 3t1 3l151 125z" />
    <glyph glyph-name="otilde" unicode="&#xf5;" horiz-adv-x="569" 
d="M370 445q-133 0 -172 -195q-4 -23 -6 -43t-2 -37q0 -123 105 -123q133 0 172 200q4 22 6 41t2 36q0 121 -105 121zM381 493q199 0 199 -170q0 -17 -2 -36.5t-6 -40.5q-49 -247 -288 -247q-201 0 -201 170q0 35 9 77q49 247 289 247zM346 586q-25 0 -34 -19
q-12 -25 -22 -25q-4 0 -9 5q17 62 68 91q13 7 36 7q20 0 43 -29t34 -29q24 0 33 19q13 25 23 25q4 0 9 -5q-17 -63 -69 -91q-11 -7 -34 -7q-20 0 -43 29t-35 29z" />
    <glyph glyph-name="odieresis" unicode="&#xf6;" horiz-adv-x="569" 
d="M370 445q-133 0 -172 -195q-4 -23 -6 -43t-2 -37q0 -123 105 -123q133 0 172 200q4 22 6 41t2 36q0 121 -105 121zM381 493q199 0 199 -170q0 -17 -2 -36.5t-6 -40.5q-49 -247 -288 -247q-201 0 -201 170q0 35 9 77q49 247 289 247zM382 588q0 -19 -13.5 -32.5
t-34.5 -13.5t-35 13.5t-14 32.5q0 20 14 34t35 14t34.5 -14t13.5 -34zM525 588q0 -19 -14.5 -32.5t-34.5 -13.5q-21 0 -34.5 13.5t-13.5 32.5q0 20 13.5 34t34.5 14t35 -14t14 -34z" />
    <glyph glyph-name="divide" unicode="&#xf7;" 
d="M351 77q0 -22 -17 -39t-42 -17q-24 0 -41 17q-16 16 -16 39q0 24 16 40t41 16q26 0 42 -16q17 -17 17 -40zM351 445q0 -22 -17 -39t-42 -17q-24 0 -41 17q-16 16 -16 39q0 24 16 40t41 16q26 0 42 -16q17 -17 17 -40zM512 283v-48h-438v48h438z" />
    <glyph glyph-name="oslash" unicode="&#xf8;" horiz-adv-x="569" 
d="M165 17q-82 40 -82 150q0 17 2 36.5t6 40.5q49 250 290 250q32 0 55 -4l72 126h50l-79 -137q102 -35 102 -158q0 -35 -9 -77q-48 -250 -288 -250q-42 0 -77 8l-75 -130h-49v1zM445 419l-208 -363q23 -14 58 -14q133 0 172 198l1 5q4 22 6 40.5t2 35.5q0 67 -31 98z
M206 88l201 352q-18 5 -37 5q-135 0 -172 -198l-2 -6q-4 -21 -5.5 -39.5t-1.5 -34.5q0 -48 17 -79z" />
    <glyph glyph-name="ugrave" unicode="&#xf9;" horiz-adv-x="596" 
d="M169 396q2 10 2 14q0 18 -14 18q-16 0 -50 -22l6 33q55 49 115 49q48 0 48 -55q0 -18 -4 -37l-45 -232q-2 -10 -3 -19.5t-1 -17.5q0 -65 64 -65q68 0 143 77l66 338h103l-76 -387q-1 -5 -1 -13q0 -19 14 -19q15 0 50 23l-6 -34q-56 -48 -115 -48q-48 0 -48 58v8q0 5 1 10
l-1 -1q-81 -75 -175 -75q-76 0 -104 40q-20 26 -20 70q0 11 1.5 24t3.5 27zM438 509q-82 57 -96 77q-6 10 -6 21q0 7 1 11q3 12 10.5 23.5t20.5 19.5q16 12 36 12q25 0 38 -21l1 -3q12 -21 20 -125z" />
    <glyph glyph-name="uacute" unicode="&#xfa;" horiz-adv-x="596" 
d="M169 396q2 10 2 14q0 18 -14 18q-16 0 -50 -22l6 33q55 49 115 49q48 0 48 -55q0 -18 -4 -37l-45 -232q-2 -10 -3 -19.5t-1 -17.5q0 -65 64 -65q68 0 143 77l66 338h103l-76 -387q-1 -5 -1 -13q0 -19 14 -19q15 0 50 23l-6 -34q-56 -48 -115 -48q-48 0 -48 58v8q0 5 1 10
l-1 -1q-81 -75 -175 -75q-76 0 -104 40q-20 26 -20 70q0 11 1.5 24t3.5 27zM366 524q23 51 40 82t28 43l3 3q21 21 46 21q17 0 31 -12q10 -7 13 -19q1 -4 1.5 -7t0.5 -7q0 -7 -1 -10q-3 -18 -17 -32q-24 -21 -126 -77z" />
    <glyph glyph-name="ucircumflex" unicode="&#xfb;" horiz-adv-x="596" 
d="M169 396q2 10 2 14q0 18 -14 18q-16 0 -50 -22l6 33q55 49 115 49q48 0 48 -55q0 -18 -4 -37l-45 -232q-2 -10 -3 -19.5t-1 -17.5q0 -65 64 -65q68 0 143 77l66 338h103l-76 -387q-1 -5 -1 -13q0 -19 14 -19q15 0 50 23l-6 -34q-56 -48 -115 -48q-48 0 -48 58v8q0 5 1 10
l-1 -1q-81 -75 -175 -75q-76 0 -104 40q-20 26 -20 70q0 11 1.5 24t3.5 27zM550 550q1 -1 1 -3t-1 -3q-2 -12 -19 -12q-6 0 -10 1l-89 57l-112 -57q-4 -1 -10 -1q-15 0 -15 10v2q1 2 1 3t1 3l151 125z" />
    <glyph glyph-name="udieresis" unicode="&#xfc;" horiz-adv-x="596" 
d="M169 396q2 10 2 14q0 18 -14 18q-16 0 -50 -22l6 33q55 49 115 49q48 0 48 -55q0 -18 -4 -37l-45 -232q-2 -10 -3 -19.5t-1 -17.5q0 -65 64 -65q68 0 143 77l66 338h103l-76 -387q-1 -5 -1 -13q0 -19 14 -19q15 0 50 23l-6 -34q-56 -48 -115 -48q-48 0 -48 58v8q0 5 1 10
l-1 -1q-81 -75 -175 -75q-76 0 -104 40q-20 26 -20 70q0 11 1.5 24t3.5 27zM397 588q0 -19 -13.5 -32.5t-34.5 -13.5t-35 13.5t-14 32.5q0 20 14 34t35 14t34.5 -14t13.5 -34zM540 588q0 -19 -14.5 -32.5t-34.5 -13.5q-21 0 -34.5 13.5t-13.5 32.5q0 20 13.5 34t34.5 14
t35 -14t14 -34z" />
    <glyph glyph-name="yacute" unicode="&#xfd;" horiz-adv-x="596" 
d="M169 396q1 4 1 7v7q0 18 -13 18q-17 0 -51 -22l7 33q53 49 115 49q48 0 48 -55q0 -18 -4 -37l-45 -232q-2 -10 -3 -19.5t-1 -17.5q0 -65 63 -65q68 0 143 77l66 338h103l-86 -444q-46 -241 -287 -243q-62 2 -99 31q-21 22 -21 50q0 3 0.5 6t1.5 7q2 10 4 15q17 41 54 41
h2q38 -2 41 -27v-7q0 -9 -1 -13q-3 -15 -15 -29q-4 -4 -4 -9v-2q0 -13 34 -20q147 0 201 232q-92 -66 -181 -66q-75 0 -105 40q-20 26 -20 70q0 22 6 51zM333 524q23 51 40 82t28 43l3 3q21 21 46 21q17 0 31 -12q10 -7 13 -19q1 -4 1.5 -7t0.5 -7q0 -7 -1 -10
q-3 -18 -17 -32q-24 -21 -126 -77z" />
    <glyph glyph-name="thorn" unicode="&#xfe;" horiz-adv-x="555" 
d="M264 378l-50 -253v-1q0 -70 83 -75q61 2 105 56q42 52 60 144q9 46 9 81q0 53 -21 80q-24 43 -87 43t-99 -75zM281 467q49 31 127 31q117 0 149 -75q19 -44 19 -101q0 -17 -1.5 -35.5t-5.5 -37.5q-19 -101 -88 -176q-68 -74 -182 -74q-60 0 -106 18l-26 -137
q-1 -5 -1 -15q0 -41 54 -42l-6 -33h-227l6 33q61 2 71 57l147 757v6q0 39 -68 44l7 38q84 0 183 12z" />
    <glyph glyph-name="ydieresis" unicode="&#xff;" horiz-adv-x="596" 
d="M169 396q1 4 1 7v7q0 18 -13 18q-17 0 -51 -22l7 33q53 49 115 49q48 0 48 -55q0 -18 -4 -37l-45 -232q-2 -10 -3 -19.5t-1 -17.5q0 -65 63 -65q68 0 143 77l66 338h103l-86 -444q-46 -241 -287 -243q-62 2 -99 31q-21 22 -21 50q0 3 0.5 6t1.5 7q2 10 4 15q17 41 54 41
h2q38 -2 41 -27v-7q0 -9 -1 -13q-3 -15 -15 -29q-4 -4 -4 -9v-2q0 -13 34 -20q147 0 201 232q-92 -66 -181 -66q-75 0 -105 40q-20 26 -20 70q0 22 6 51zM365 588q0 -19 -13.5 -32.5t-34.5 -13.5t-35 13.5t-14 32.5q0 20 14 34t35 14t34.5 -14t13.5 -34zM508 588
q0 -19 -14.5 -32.5t-34.5 -13.5q-21 0 -34.5 13.5t-13.5 32.5q0 20 13.5 34t34.5 14t35 -14t14 -34z" />
    <glyph glyph-name="Amacron" unicode="&#x100;" horiz-adv-x="627" 
d="M244 276h207l-43 310zM213 223l-54 -95q-10 -20 -13 -37q-2 -10 -2 -15q0 -42 60 -43l-7 -33h-207l7 33q32 2 79 80l342 597h65l112 -597q16 -78 49 -80l-7 -33h-256l7 33q74 0 84 58q3 12 3 27q0 7 -1 10l-12 95h-249zM345 782l9 48h272l-9 -48h-272z" />
    <glyph glyph-name="amacron" unicode="&#x101;" horiz-adv-x="561" 
d="M440 364q-24 79 -84 84q-110 -2 -156 -200q-13 -48 -13 -85v-3q0 -111 104 -111q63 0 99 58zM490 80q0 -22 27 -22q31 0 66 23l-7 -34q-56 -48 -129 -48q-52 0 -52 39q0 7 1 12q-71 -51 -150 -51q-159 0 -159 155v4q0 38 12 88q52 247 239 247q111 0 144 -48q21 23 56 35
l25 -16zM288 550l9 48h272l-9 -48h-272z" />
    <glyph glyph-name="Abreve" unicode="&#x102;" horiz-adv-x="627" 
d="M244 276h207l-43 310zM213 223l-54 -95q-10 -20 -13 -37q-2 -10 -2 -15q0 -42 60 -43l-7 -33h-207l7 33q32 2 79 80l342 597h65l112 -597q16 -78 49 -80l-7 -33h-256l7 33q74 0 84 58q3 12 3 27q0 7 -1 10l-12 95h-249zM373 874q4 6 13 6q7 0 10 -4q-1 -3 -1 -9
q0 -45 84 -45q93 0 104 54q4 4 11 4q9 0 11 -6q-24 -115 -138 -115q-97 0 -97 81q0 16 3 34z" />
    <glyph glyph-name="abreve" unicode="&#x103;" horiz-adv-x="561" 
d="M440 364q-24 79 -84 84q-110 -2 -156 -200q-13 -48 -13 -85v-3q0 -111 104 -111q63 0 99 58zM490 80q0 -22 27 -22q31 0 66 23l-7 -34q-56 -48 -129 -48q-52 0 -52 39q0 7 1 12q-71 -51 -150 -51q-159 0 -159 155v4q0 38 12 88q52 247 239 247q111 0 144 -48q21 23 56 35
l25 -16zM317 642q4 6 13 6q7 0 10 -4q-1 -3 -1 -9q0 -45 84 -45q93 0 104 54q4 4 11 4q9 0 11 -6q-24 -115 -138 -115q-97 0 -97 81q0 16 3 34z" />
    <glyph glyph-name="Aogonek" unicode="&#x104;" horiz-adv-x="627" 
d="M244 276h207l-43 310zM566 0h-185l7 33q74 0 84 58q3 12 3 27q0 7 -1 10l-12 95h-249l-54 -95q-10 -20 -13 -37q-2 -10 -2 -15q0 -42 60 -43l-7 -33h-207l7 33q32 2 79 80l342 597h65l112 -597q16 -78 49 -80l-7 -33h-47q-42 -31 -66 -58.5t-29 -54.5q-1 -4 -1.5 -7
t-0.5 -6q0 -14 8 -24q11 -14 33 -14q38 0 64 32l12 -8q-24 -31 -53.5 -47.5t-61.5 -16.5q-26 0 -42.5 10t-21.5 27q-2 8 -2 14q0 7 1 10q8 39 44 77q19 20 42 36t50 30z" />
    <glyph glyph-name="aogonek" unicode="&#x105;" horiz-adv-x="521" 
d="M377 103l50 256q-24 79 -83 84q-123 -1 -164 -195q-4 -22 -6 -41t-2 -36q0 -127 107 -127q63 0 98 59zM428 -1h-8q-42 0 -48 39q-59 -39 -119 -39q-183 0 -183 172q0 17 2 36.5t6 40.5q51 245 268 245q67 0 102 -26q14 -9 21 -25q19 21 56 35l25 -17l-72 -371
q-1 -5 -1 -13q0 -18 14 -18q15 0 50 23l-7 -34q-30 -27 -62 -39q-36 -28 -57 -52q-24 -29 -33 -69q-1 -5 -1 -13q0 -14 8 -24q11 -14 32 -14q39 0 65 32l12 -8q-24 -31 -53.5 -47.5t-61.5 -16.5q-52 0 -65 37q-2 8 -2 13t2 11q11 54 47 92q17 18 41 36q5 4 11 7t11 7z" />
    <glyph glyph-name="Cacute" unicode="&#x106;" horiz-adv-x="657" 
d="M244 351q-5 -28 -8 -53t-3 -48q0 -72 27 -123q42 -83 134 -83q97 1 162 56q67 55 88 108h29q-30 -80 -109 -147q-77 -66 -204 -68q-138 0 -205 93q-48 66 -48 165q0 23 2.5 48t7.5 52q33 169 145 266q112 100 248 100q83 0 122 -30q16 -12 28 -12q19 0 25 33h44l-46 -233
h-43q1 8 1 15v14q0 69 -21 113q-25 52 -108 52t-162 -90q-79 -88 -106 -228zM456 756q23 51 40 82t28 43l3 3q21 21 46 21q17 0 31 -12q10 -7 13 -19q1 -4 1.5 -7t0.5 -7q0 -7 -1 -10q-3 -18 -17 -32q-24 -21 -126 -77z" />
    <glyph glyph-name="cacute" unicode="&#x107;" horiz-adv-x="486" 
d="M261 -1q-178 1 -178 173q0 18 1.5 37.5t5.5 40.5q53 242 287 243q73 -2 109 -32q34 -28 34 -72v-8q0 -4 -1 -9q-11 -50 -63 -54q-48 4 -48 46v8q0 4 1 8l3 9t4 14q2 6 4 14q1 2 1 7q0 26 -41 26q-133 -1 -175 -199q-8 -43 -8 -73q0 -120 107 -122q86 0 151 96l24 -19
q-77 -134 -218 -134zM315 524q23 51 40 82t28 43l3 3q21 21 46 21q17 0 31 -12q10 -7 13 -19q1 -4 1.5 -7t0.5 -7q0 -7 -1 -10q-3 -18 -17 -32q-24 -21 -126 -77z" />
    <glyph glyph-name="Ccircumflex" unicode="&#x108;" horiz-adv-x="657" 
d="M245 354q-5 -27 -8 -52t-3 -48q0 -71 26 -123q44 -83 135 -83q97 1 162 56q66 55 87 108h30q-32 -80 -109 -147q-77 -66 -205 -68q-136 0 -205 93q-48 66 -48 165q0 44 11 99q32 168 144 265q112 100 234 100q97 0 136 -30q16 -12 28 -12q19 0 25 33h44l-46 -233h-43
q1 8 1 15v14q0 69 -21 113q-25 52 -108 52t-162 -90q-79 -88 -105 -227zM631 783v-6q-3 -13 -20 -13q-6 0 -10 1l-89 57l-112 -57q-3 -1 -10 -1q-15 0 -15 10v3l2 6l152 125z" />
    <glyph glyph-name="ccircumflex" unicode="&#x109;" horiz-adv-x="486" 
d="M261 -1q-178 1 -178 173q0 18 1.5 37.5t5.5 40.5q53 242 287 243q73 -2 109 -32q34 -28 34 -72v-8q0 -4 -1 -9q-11 -50 -63 -54q-48 4 -48 46v8q0 4 1 8l3 9t4 14q2 6 4 14q1 2 1 7q0 26 -41 26q-133 -1 -175 -199q-8 -43 -8 -73q0 -120 107 -122q86 0 151 96l24 -19
q-77 -134 -218 -134zM500 550q1 -1 1 -3t-1 -3q-2 -12 -19 -12q-6 0 -10 1l-89 57l-112 -57q-4 -1 -10 -1q-15 0 -15 10v2q1 2 1 3t1 3l151 125z" />
    <glyph glyph-name="Cdotaccent" unicode="&#x10a;" horiz-adv-x="657" 
d="M244 351q-5 -28 -8 -53t-3 -48q0 -72 27 -123q42 -83 134 -83q97 1 162 56q67 55 88 108h29q-30 -80 -109 -147q-77 -66 -204 -68q-138 0 -205 93q-48 66 -48 165q0 23 2.5 48t7.5 52q33 169 145 266q112 100 248 100q83 0 122 -30q16 -12 28 -12q19 0 25 33h44l-46 -233
h-43q1 8 1 15v14q0 69 -21 113q-25 52 -108 52t-162 -90q-79 -88 -106 -228zM570 830q0 -24 -16.5 -40t-41.5 -16t-42 16t-17 40q0 23 16.5 40t42.5 17q25 0 41.5 -17t16.5 -40z" />
    <glyph glyph-name="cdotaccent" unicode="&#x10b;" horiz-adv-x="486" 
d="M261 -1q-178 1 -178 173q0 18 1.5 37.5t5.5 40.5q53 242 287 243q73 -2 109 -32q34 -28 34 -72v-8q0 -4 -1 -9q-11 -50 -63 -54q-48 4 -48 46v8q0 4 1 8l3 9t4 14q2 6 4 14q1 2 1 7q0 26 -41 26q-133 -1 -175 -199q-8 -43 -8 -73q0 -120 107 -122q86 0 151 96l24 -19
q-77 -134 -218 -134zM429 598q0 -24 -16.5 -40t-41.5 -16t-42 16t-17 40q0 23 16.5 40t42.5 17q25 0 41.5 -17t16.5 -40z" />
    <glyph glyph-name="Ccaron" unicode="&#x10c;" horiz-adv-x="657" 
d="M245 354q-5 -27 -8 -52t-3 -48q0 -71 26 -123q44 -83 135 -83q97 1 162 56q66 55 87 108h30q-32 -80 -109 -147q-77 -66 -205 -68q-136 0 -205 93q-48 66 -48 165q0 44 11 99q32 168 144 265q112 100 234 100q97 0 136 -30q16 -12 28 -12q19 0 25 33h44l-46 -233h-43
q1 8 1 15v14q0 69 -21 113q-25 52 -108 52t-162 -90q-79 -88 -105 -227zM478 765l-103 125v6q3 13 20 13q6 0 10 -1l90 -57l111 57q4 1 10 1q15 0 15 -10v-3l-2 -6z" />
    <glyph glyph-name="ccaron" unicode="&#x10d;" horiz-adv-x="486" 
d="M261 -1q-178 1 -178 173q0 18 1.5 37.5t5.5 40.5q53 242 287 243q73 -2 109 -32q34 -28 34 -72v-8q0 -4 -1 -9q-11 -50 -63 -54q-48 4 -48 46v8q0 4 1 8l3 9t4 14q2 6 4 14q1 2 1 7q0 26 -41 26q-133 -1 -175 -199q-8 -43 -8 -73q0 -120 107 -122q86 0 151 96l24 -19
q-77 -134 -218 -134zM347 532l-103 125v6q1 12 20 12q6 0 10 -1l89 -57l111 57q4 1 11 1q15 0 15 -9q0 -2 -1 -3q0 -2 -2 -6z" />
    <glyph glyph-name="Dcaron" unicode="&#x10e;" horiz-adv-x="678" 
d="M272 47h18q109 2 189 86q80 85 106 215q5 25 7.5 48.5t2.5 45.5q0 75 -30 134q-47 90 -155 90h-84l-112 -573q-1 -4 -1 -10q0 -36 59 -36zM423 710q169 -4 238 -97q47 -65 47 -162q0 -23 -3 -48t-8 -52q-31 -160 -136 -253t-276 -98h-265l6 33q73 1 84 57l103 530
q1 4 1.5 7t0.5 6q0 43 -64 44l7 33h265zM462 765l-103 125v6q3 13 20 13q6 0 10 -1l90 -57l111 57q4 1 10 1q15 0 15 -10v-3l-2 -6z" />
    <glyph glyph-name="dcaron" unicode="&#x10f;" horiz-adv-x="635" 
d="M440 359q-24 79 -84 84q-122 -1 -163 -195q-4 -22 -6 -41t-2 -36q0 -127 107 -127q62 0 98 59zM378 41q-47 -42 -131 -42q-169 0 -169 168q0 35 8 81q51 245 253 245q78 0 116 -56l39 200q1 2 1 6q0 40 -69 43l8 39q84 0 183 12l-126 -648q-1 -4 -1.5 -7t-0.5 -6
q0 -18 14 -18q16 0 50 23l-6 -34q-54 -48 -114 -48q-46 0 -55 42zM687 621q-18 0 -27 13q-10 10 -10 25q0 6 1 9q5 21 22 35q18 15 40 15t34 -15q9 -11 9 -25q0 -7 -1 -10v-3q-14 -65 -90 -131l-14 18q25 31 36 69z" />
    <glyph glyph-name="Dcroat" unicode="&#x110;" horiz-adv-x="678" 
d="M167 380l46 240q1 4 1.5 7t0.5 6q0 43 -64 44l7 33h265q169 -4 238 -97q47 -65 47 -162q0 -23 -3 -48t-8 -52q-31 -160 -136 -253t-276 -98h-265l6 33q73 1 84 57l47 240h-74l10 50h74zM270 380h199l-10 -50h-199l-54 -281q8 -1 29 -1.5t55 -0.5q109 2 189 86
q80 85 106 215q5 25 7.5 48.5t2.5 45.5q0 75 -30 134q-47 90 -155 90q-34 0 -55.5 -0.5t-29.5 -1.5z" />
    <glyph glyph-name="dcroat" unicode="&#x111;" horiz-adv-x="546" 
d="M440 359q-24 79 -84 84q-122 -1 -163 -195q-4 -22 -6 -41t-2 -36q0 -127 107 -127q62 0 98 59zM583 564l-92 -475q-1 -4 -1.5 -7t-0.5 -6q0 -18 14 -18q16 0 50 23l-6 -34q-54 -48 -114 -48q-46 0 -55 42q-47 -42 -131 -42q-169 0 -169 168q0 35 8 81q51 245 253 245
q78 0 116 -56l25 127h-159l10 50h159l4 23q1 2 1 6q0 40 -69 43l8 39q84 0 183 12l-24 -123h64l-10 -50h-64z" />
    <glyph glyph-name="Emacron" unicode="&#x112;" horiz-adv-x="607" 
d="M267 340l-47 -245q-2 -10 -2 -12q0 -29 40 -29h144q135 0 161 134h46l-36 -188h-549l7 33q73 1 84 57l103 530q1 4 1.5 7t0.5 6q0 43 -64 44l7 33h516l-37 -188h-45q4 19 4 39q0 95 -118 95h-154l-51 -262h163q55 0 66 54h39l-30 -157h-39q1 4 1 12q0 37 -48 37h-163z
M323 782l9 48h272l-9 -48h-272z" />
    <glyph glyph-name="emacron" unicode="&#x113;" horiz-adv-x="488" 
d="M217 291q16 -2 30.5 -3t27.5 -1q98 0 136 86q10 23 10 42q0 36 -42 41q-86 0 -162 -165zM267 -1q-180 4 -180 183q0 32 6 70q56 240 270 241q146 0 146 -98q-2 -149 -209 -149q-20 0 -42.5 1.5t-47.5 3.5q-8 -46 -8 -78q0 -117 100 -118q91 0 153 95l25 -21
q-71 -126 -213 -130zM228 550l9 48h272l-9 -48h-272z" />
    <glyph glyph-name="Ebreve" unicode="&#x114;" horiz-adv-x="607" 
d="M267 340l-47 -245q-2 -10 -2 -12q0 -29 40 -29h144q135 0 161 134h46l-36 -188h-549l7 33q73 1 84 57l103 530q1 4 1.5 7t0.5 6q0 43 -64 44l7 33h516l-37 -188h-45q4 19 4 39q0 95 -118 95h-154l-51 -262h163q55 0 66 54h39l-30 -157h-39q1 4 1 12q0 37 -48 37h-163z
M352 874q4 6 13 6q7 0 10 -4q-1 -3 -1 -9q0 -45 84 -45q93 0 104 54q4 4 11 4q9 0 11 -6q-24 -115 -138 -115q-97 0 -97 81q0 16 3 34z" />
    <glyph glyph-name="ebreve" unicode="&#x115;" horiz-adv-x="488" 
d="M217 291q16 -2 30.5 -3t27.5 -1q98 0 136 86q10 23 10 42q0 36 -42 41q-86 0 -162 -165zM267 -1q-180 4 -180 183q0 32 6 70q56 240 270 241q146 0 146 -98q-2 -149 -209 -149q-20 0 -42.5 1.5t-47.5 3.5q-8 -46 -8 -78q0 -117 100 -118q91 0 153 95l25 -21
q-71 -126 -213 -130zM257 642q4 6 13 6q7 0 10 -4q-1 -3 -1 -9q0 -45 84 -45q93 0 104 54q4 4 11 4q9 0 11 -6q-24 -115 -138 -115q-97 0 -97 81q0 16 3 34z" />
    <glyph glyph-name="Edotaccent" unicode="&#x116;" horiz-adv-x="607" 
d="M267 340l-47 -245q-2 -10 -2 -12q0 -29 40 -29h144q135 0 161 134h46l-36 -188h-549l7 33q73 1 84 57l103 530q1 4 1.5 7t0.5 6q0 43 -64 44l7 33h516l-37 -188h-45q4 19 4 39q0 95 -118 95h-154l-51 -262h163q55 0 66 54h39l-30 -157h-39q1 4 1 12q0 37 -48 37h-163z
M527 830q0 -24 -16.5 -40t-41.5 -16t-42 16t-17 40q0 23 16.5 40t42.5 17q25 0 41.5 -17t16.5 -40z" />
    <glyph glyph-name="edotaccent" unicode="&#x117;" horiz-adv-x="488" 
d="M217 291q16 -2 30.5 -3t27.5 -1q98 0 136 86q10 23 10 42q0 36 -42 41q-86 0 -162 -165zM267 -1q-180 4 -180 183q0 32 6 70q56 240 270 241q146 0 146 -98q-2 -149 -209 -149q-20 0 -42.5 1.5t-47.5 3.5q-8 -46 -8 -78q0 -117 100 -118q91 0 153 95l25 -21
q-71 -126 -213 -130zM431 598q0 -24 -16.5 -40t-41.5 -16t-42 16t-17 40q0 23 16.5 40t42.5 17q25 0 41.5 -17t16.5 -40z" />
    <glyph glyph-name="Eogonek" unicode="&#x118;" horiz-adv-x="607" 
d="M501 0h-477l7 33q73 1 84 57l103 530q1 4 1.5 7t0.5 6q0 43 -64 44l7 33h516l-37 -188h-45q4 19 4 39q0 95 -118 95h-154l-51 -262h163q55 0 66 54h39l-30 -157h-39q1 4 1 12q0 37 -48 37h-163l-47 -245q-2 -10 -2 -12q0 -29 40 -29h144q135 0 161 134h46l-36 -188h-48
q-42 -31 -65.5 -58.5t-29.5 -54.5q-1 -5 -1 -13q0 -14 8 -24q11 -14 32 -14q38 0 64 32l12 -8q-23 -31 -52.5 -47.5t-61.5 -16.5q-52 0 -65 37q-2 8 -2 14q0 7 1 10q8 38 45 77q18 20 41.5 36t49.5 30z" />
    <glyph glyph-name="eogonek" unicode="&#x119;" horiz-adv-x="488" 
d="M222 301q16 -2 30.5 -3t27.5 -1q98 0 127 57q4 8 6.5 14.5t3.5 12.5q1 4 1 11q0 37 -59 45q-85 0 -137 -136zM305 2q-9 -1 -18.5 -1.5t-19.5 -1.5q-180 4 -180 183q0 33 6 71q55 238 270 240q142 0 156 -92q1 -5 1 -9v-8q0 -6 -0.5 -12t-1.5 -11q-12 -62 -93 -90
q-70 -26 -141 -26q-18 0 -36.5 1.5t-37.5 5.5q-8 -46 -8 -79q0 -117 100 -118q91 0 153 95l25 -21q-47 -83 -125 -113q-18 -14 -32.5 -27t-25.5 -26q-25 -28 -29 -54q-1 -4 -1.5 -7t-0.5 -6q0 -14 8 -24q11 -14 33 -14q38 0 64 32l12 -8q-24 -31 -53.5 -47.5t-61.5 -16.5
q-26 0 -42.5 10t-21.5 27q-2 8 -2 14q0 7 1 10q8 39 44 77q19 19 42 36q7 5 16 10z" />
    <glyph glyph-name="Ecaron" unicode="&#x11a;" horiz-adv-x="607" 
d="M267 340l-47 -245q-2 -10 -2 -12q0 -29 40 -29h144q135 0 161 134h46l-36 -188h-549l7 33q73 1 84 57l103 530q1 4 1.5 7t0.5 6q0 43 -64 44l7 33h516l-37 -188h-45q4 19 4 39q0 95 -118 95h-154l-51 -262h163q55 0 66 54h39l-30 -157h-39q1 4 1 12q0 37 -48 37h-163z
M436 764l-103 125v6q3 13 20 13q6 0 10 -1l90 -57l111 57q4 1 10 1q15 0 15 -10v-3l-2 -6z" />
    <glyph glyph-name="ecaron" unicode="&#x11b;" horiz-adv-x="488" 
d="M217 291q16 -2 30.5 -3t27.5 -1q98 0 136 86q10 23 10 42q0 36 -42 41q-86 0 -162 -165zM267 -1q-180 4 -180 183q0 32 6 70q56 240 270 241q146 0 146 -98q-2 -149 -209 -149q-20 0 -42.5 1.5t-47.5 3.5q-8 -46 -8 -78q0 -117 100 -118q91 0 153 95l25 -21
q-71 -126 -213 -130zM350 532l-103 125v6q1 12 20 12q6 0 10 -1l89 -57l111 57q4 1 11 1q15 0 15 -9q0 -2 -1 -3q0 -2 -2 -6z" />
    <glyph glyph-name="Gcircumflex" unicode="&#x11c;" horiz-adv-x="683" 
d="M570 115l20 108q2 8 2 13q0 48 -85 49l7 34h211l-7 -34q-27 -2 -39 -62l-40 -208l-22 -16q-40 11 -50 42l-2 24q-79 -67 -209 -68q-132 0 -201 93q-48 66 -48 165q0 44 11 99q32 168 144 265t261 103q97 0 134 -31q16 -13 29 -13q18 0 23 32h44l-45 -233h-43q1 8 1 15v14
q0 70 -22 113q-25 52 -120 52t-174 -90q-79 -88 -105 -227q-5 -27 -8 -52t-3 -48q0 -71 26 -123q44 -83 137 -83q94 1 173 67zM646 783q1 -1 1 -3t-1 -3q-1 -13 -19 -13q-6 0 -10 1l-89 57l-112 -57q-4 -1 -10 -1q-15 0 -15 10v3l2 6l151 125z" />
    <glyph glyph-name="gcircumflex" unicode="&#x11d;" horiz-adv-x="504" 
d="M377 103l50 256q-24 79 -83 84q-123 -1 -164 -195q-4 -22 -6 -41t-2 -36q0 -127 107 -127q63 0 98 59zM371 39q-50 -40 -118 -40q-183 0 -183 172q0 17 2 36.5t6 40.5q51 245 268 245q67 0 102 -26q14 -9 21 -25q19 21 56 35l25 -17l-56 -291l-3 -4l-24 -122
q-49 -252 -287 -253q-62 2 -99 31q-20 23 -20 49q0 9 1 14q2 10 4 15q17 41 54 41h2q36 -1 41 -27v-7q0 -9 -1 -13q-4 -15 -15 -29q-2 -3 -4 -9v-2q0 -13 34 -20q134 0 194 206zM497 550q1 -1 1 -3t-1 -3q-2 -12 -19 -12q-6 0 -10 1l-89 57l-112 -57q-4 -1 -10 -1
q-15 0 -15 10v2q1 2 1 3t1 3l151 125z" />
    <glyph glyph-name="Gbreve" unicode="&#x11e;" horiz-adv-x="683" 
d="M569 110l20 108q1 4 1.5 7t0.5 6q0 48 -85 49l7 34h211l-7 -34q-27 -2 -39 -62l-40 -208l-22 -16q-40 11 -50 42l-2 24q-79 -67 -209 -68q-132 0 -201 93q-48 66 -48 165q0 44 11 99q31 167 144 265q112 97 261 103q96 0 134 -30q17 -14 29 -14q18 0 23 32h44l-45 -233
h-43q1 8 1 15v14q0 70 -22 113q-25 52 -120 52t-174 -90q-79 -88 -105 -227q-5 -27 -8 -51.5t-3 -47.5q0 -72 26 -124q44 -83 137 -83q94 1 173 67zM410 874q4 6 13 6q7 0 10 -4q-1 -3 -1 -9q0 -45 84 -45q93 0 104 54q4 4 11 4q9 0 11 -6q-24 -115 -138 -115q-97 0 -97 81
q0 16 3 34z" />
    <glyph glyph-name="gbreve" unicode="&#x11f;" horiz-adv-x="504" 
d="M377 103l50 256q-24 79 -83 84q-123 -1 -164 -195q-4 -22 -6 -41t-2 -36q0 -127 107 -127q63 0 98 59zM371 39q-50 -40 -118 -40q-183 0 -183 172q0 17 2 36.5t6 40.5q51 245 268 245q67 0 102 -26q14 -9 21 -25q19 21 56 35l25 -17l-56 -291l-3 -4l-24 -122
q-49 -252 -287 -253q-62 2 -99 31q-20 23 -20 49q0 9 1 14q2 10 4 15q17 41 54 41h2q36 -1 41 -27v-7q0 -9 -1 -13q-4 -15 -15 -29q-2 -3 -4 -9v-2q0 -13 34 -20q134 0 194 206zM252 642q4 6 13 6q7 0 10 -4q-1 -3 -1 -9q0 -45 84 -45q93 0 104 54q4 4 11 4q9 0 11 -6
q-24 -115 -138 -115q-97 0 -97 81q0 16 3 34z" />
    <glyph glyph-name="Gdotaccent" unicode="&#x120;" horiz-adv-x="683" 
d="M569 110l20 108q1 4 1.5 7t0.5 6q0 48 -85 49l7 34h211l-7 -34q-27 -2 -39 -62l-40 -208l-22 -16q-40 11 -50 42l-2 24q-79 -67 -209 -68q-132 0 -201 93q-48 66 -48 165q0 44 11 99q31 167 144 265q112 97 261 103q96 0 134 -30q17 -14 29 -14q18 0 23 32h44l-45 -233
h-43q1 8 1 15v14q0 70 -22 113q-25 52 -120 52t-174 -90q-79 -88 -105 -227q-5 -27 -8 -51.5t-3 -47.5q0 -72 26 -124q44 -83 137 -83q94 1 173 67zM585 830q0 -24 -16.5 -40t-41.5 -16t-42 16t-17 40q0 23 16.5 40t42.5 17q25 0 41.5 -17t16.5 -40z" />
    <glyph glyph-name="gdotaccent" unicode="&#x121;" horiz-adv-x="504" 
d="M377 103l50 256q-24 79 -83 84q-123 -1 -164 -195q-4 -22 -6 -41t-2 -36q0 -127 107 -127q63 0 98 59zM371 39q-50 -40 -118 -40q-183 0 -183 172q0 17 2 36.5t6 40.5q51 245 268 245q67 0 102 -26q14 -9 21 -25q19 21 56 35l25 -17l-56 -291l-3 -4l-24 -122
q-49 -252 -287 -253q-62 2 -99 31q-20 23 -20 49q0 9 1 14q2 10 4 15q17 41 54 41h2q36 -1 41 -27v-7q0 -9 -1 -13q-4 -15 -15 -29q-2 -3 -4 -9v-2q0 -13 34 -20q134 0 194 206zM427 598q0 -24 -16.5 -40t-41.5 -16t-42 16t-17 40q0 23 16.5 40t42.5 17q25 0 41.5 -17
t16.5 -40z" />
    <glyph glyph-name="Gcommaaccent" unicode="&#x122;" horiz-adv-x="683" 
d="M569 110l20 108q1 4 1.5 7t0.5 6q0 48 -85 49l7 34h211l-7 -34q-27 -2 -39 -62l-40 -208l-22 -16q-40 11 -50 42l-2 24q-79 -67 -209 -68q-132 0 -201 93q-48 66 -48 165q0 44 11 99q31 167 144 265q112 97 261 103q96 0 134 -30q17 -14 29 -14q18 0 23 32h44l-45 -233
h-43q1 8 1 15v14q0 70 -22 113q-25 52 -120 52t-174 -90q-79 -88 -105 -227q-5 -27 -8 -51.5t-3 -47.5q0 -72 26 -124q44 -83 137 -83q94 1 173 67zM315 -147q-17 0 -29 13q-16 13 -16 34t16 36q14 14 36 14q23 0 37 -14q15 -15 15 -36v-3q0 -44 -65 -111l-16 18
q9 16 14.5 28.5t7.5 20.5z" />
    <glyph glyph-name="gcommaaccent" unicode="&#x123;" horiz-adv-x="504" 
d="M377 103l50 256q-24 79 -83 84q-123 -1 -164 -195q-4 -22 -6 -41t-2 -36q0 -127 107 -127q63 0 98 59zM371 39q-50 -40 -118 -40q-183 0 -183 172q0 17 2 36.5t6 40.5q51 245 268 245q67 0 102 -26q14 -9 21 -25q19 21 56 35l25 -17l-56 -291l-3 -4l-24 -122
q-49 -252 -287 -253q-62 2 -99 31q-20 23 -20 49q0 9 1 14q2 10 4 15q17 41 54 41h2q36 -1 41 -27v-7q0 -9 -1 -13q-4 -15 -15 -29q-2 -3 -4 -9v-2q0 -13 34 -20q134 0 194 206zM376 635q17 0 27 -13q9 -11 9 -25q0 -7 -1 -10q-5 -21 -22 -35t-39 -14q-23 0 -35 14
q-9 10 -9 26q0 6 1 9l1 4q12 65 90 131l13 -18q-25 -34 -35 -69z" />
    <glyph glyph-name="Hcircumflex" unicode="&#x124;" horiz-adv-x="700" 
d="M256 337l-48 -247q-1 -5 -1 -13q0 -42 68 -44l-6 -33h-254l6 33q73 1 84 57l103 530q1 4 1.5 7t0.5 6q0 43 -64 44l7 33h254l-7 -33q-77 -1 -88 -57l-45 -229h318l44 229q1 4 1.5 7t0.5 6q0 43 -64 44l7 33h249l-7 -33q-77 -1 -88 -57l-103 -530q-1 -4 -1.5 -7t-0.5 -6
q0 -42 68 -44l-6 -33h-249l6 33q73 1 84 57l48 247h-318zM641 783v-6q-3 -13 -20 -13q-6 0 -10 1l-89 57l-112 -57q-4 -1 -10 -1q-15 0 -15 10v3l2 6l152 125z" />
    <glyph glyph-name="hcircumflex" unicode="&#x125;" horiz-adv-x="581" 
d="M465 328q4 17 4 36q0 66 -65 66q-68 0 -142 -77l-69 -353h-103l124 637q1 2 1 6q0 39 -69 44l8 38q84 0 182 12l-61 -319q79 75 174 75q74 0 105 -40q20 -28 20 -71q0 -19 -5 -47l-48 -245q-1 -4 -1 -8v-6q0 -18 13 -18q15 0 50 23l-6 -34q-56 -48 -115 -48q-47 0 -47 55
q0 16 3 36zM464 783q1 -1 1 -3t-1 -3q-2 -12 -19 -12q-6 0 -10 1l-89 57l-112 -57q-4 -1 -10 -1q-15 0 -15 10v2q1 2 1 3t1 3l151 125z" />
    <glyph glyph-name="Hbar" unicode="&#x126;" horiz-adv-x="690" 
d="M702 514l-82 -424q-1 -4 -1.5 -7t-0.5 -6q0 -43 69 -44l-7 -33h-249l6 33q73 1 84 57l48 247h-318l-47 -247q-1 -4 -1.5 -7t-0.5 -6q0 -42 68 -44l-6 -33h-254l6 33q73 1 85 57l82 424h-79l10 49h78l12 57q1 5 1 13q0 43 -64 44l7 33h254l-7 -33q-77 -1 -88 -57l-12 -57
h318l12 57q1 5 1 13q0 43 -64 44l7 33h249l-6 -33q-78 -1 -89 -57l-12 -57h72l-10 -49h-71zM286 514l-24 -123h318l24 123h-318z" />
    <glyph glyph-name="hbar" unicode="&#x127;" horiz-adv-x="581" 
d="M303 564l-28 -146q79 75 174 75q74 0 105 -40q20 -26 20 -70q0 -20 -5 -48l-48 -245q-1 -4 -1 -8v-6q0 -18 13 -18q15 0 50 23l-6 -34q-56 -48 -115 -48q-47 0 -47 55q0 16 3 36l47 238q4 17 4 36q0 66 -65 66q-69 0 -142 -76l-69 -354h-103l110 564h-77l9 50h78l4 23
q1 2 1 6q0 39 -69 44l8 38q84 0 182 12l-23 -123h146l-10 -50h-146z" />
    <glyph glyph-name="Itilde" unicode="&#x128;" horiz-adv-x="303" 
d="M218 90q-1 -5 -1 -13q0 -42 68 -44l-7 -33h-254l7 33q73 1 84 57l103 530q1 4 1.5 7t0.5 6q0 43 -64 44l7 33h254l-7 -33q-79 -2 -89 -57zM261 818q-25 0 -34 -19q-12 -25 -22 -25q-4 0 -9 5q17 62 68 91q13 7 36 7q20 0 43 -29t34 -29q24 0 33 19q13 25 23 25q4 0 9 -5
q-17 -63 -69 -91q-11 -7 -34 -7q-20 0 -43 29t-35 29z" />
    <glyph glyph-name="itilde" unicode="&#x129;" horiz-adv-x="306" 
d="M232 90q-2 -10 -2 -14q0 -18 14 -18q15 0 50 23l-6 -34q-56 -48 -115 -48q-48 0 -48 55q0 19 4 36l59 306q2 10 2 14q0 18 -14 18q-16 0 -50 -22l6 33q55 49 115 49q48 0 48 -55q0 -18 -4 -37zM225 586q-25 0 -34 -19q-12 -25 -22 -25q-4 0 -9 5q17 62 68 91q13 7 36 7
q20 0 43 -29t34 -29q24 0 33 19q13 25 23 25q4 0 9 -5q-17 -63 -69 -91q-11 -7 -34 -7q-20 0 -43 29t-35 29z" />
    <glyph glyph-name="Imacron" unicode="&#x12a;" horiz-adv-x="303" 
d="M218 90q-1 -5 -1 -13q0 -42 68 -44l-7 -33h-254l7 33q73 1 84 57l103 530q1 4 1.5 7t0.5 6q0 43 -64 44l7 33h254l-7 -33q-79 -2 -89 -57zM176 782l9 48h272l-9 -48h-272z" />
    <glyph glyph-name="imacron" unicode="&#x12b;" horiz-adv-x="306" 
d="M232 90q-2 -10 -2 -14q0 -18 14 -18q15 0 50 23l-6 -34q-56 -48 -115 -48q-48 0 -48 55q0 19 4 36l59 306q2 10 2 14q0 18 -14 18q-16 0 -50 -22l6 33q55 49 115 49q48 0 48 -55q0 -18 -4 -37zM140 550l9 48h272l-9 -48h-272z" />
    <glyph glyph-name="Ibreve" unicode="&#x12c;" horiz-adv-x="303" 
d="M218 90q-1 -5 -1 -13q0 -42 68 -44l-7 -33h-254l7 33q73 1 84 57l103 530q1 4 1.5 7t0.5 6q0 43 -64 44l7 33h254l-7 -33q-79 -2 -89 -57zM205 874q4 6 13 6q7 0 10 -4q-1 -3 -1 -9q0 -45 84 -45q93 0 104 54q4 4 11 4q9 0 11 -6q-24 -115 -138 -115q-97 0 -97 81
q0 16 3 34z" />
    <glyph glyph-name="ibreve" unicode="&#x12d;" horiz-adv-x="306" 
d="M232 90q-2 -10 -2 -14q0 -18 14 -18q15 0 50 23l-6 -34q-56 -48 -115 -48q-48 0 -48 55q0 19 4 36l59 306q2 10 2 14q0 18 -14 18q-16 0 -50 -22l6 33q55 49 115 49q48 0 48 -55q0 -18 -4 -37zM170 642q4 6 13 6q7 0 10 -4q-1 -3 -1 -9q0 -45 84 -45q93 0 104 54
q4 4 11 4q9 0 11 -6q-24 -115 -138 -115q-97 0 -97 81q0 16 3 34z" />
    <glyph glyph-name="Iogonek" unicode="&#x12e;" horiz-adv-x="303" 
d="M207 0h-183l7 33q73 1 84 57l103 530q1 4 1.5 7t0.5 6q0 43 -64 44l7 33h254l-7 -33q-79 -2 -89 -57l-103 -530q-1 -5 -1 -13q0 -42 68 -44l-7 -33h-47q-42 -31 -66 -58.5t-29 -54.5q-1 -4 -1.5 -7t-0.5 -6q0 -14 8 -24q11 -14 33 -14q38 0 64 32l12 -8
q-23 -31 -53 -47.5t-62 -16.5q-26 0 -42.5 10t-21.5 27q-2 8 -2 14q0 7 1 10q8 39 44 77q19 20 42 36t50 30z" />
    <glyph glyph-name="iogonek" unicode="&#x12f;" horiz-adv-x="306" 
d="M348 679q-5 -26 -29 -46q-25 -20 -55 -20q-32 0 -47 20q-12 15 -12 34q0 8 1 12q5 26 29 46q23 20 55 20q30 0 47 -20q12 -17 12 -34q0 -8 -1 -12zM182 -1h-9q-48 0 -48 55q0 19 4 36l60 306q1 4 1 7v7q0 18 -13 18q-17 0 -51 -22l7 33q53 49 114 49q48 0 48 -56
q0 -15 -3 -36l-60 -306q-2 -10 -2 -14q0 -18 14 -18q15 0 50 23l-6 -34q-35 -32 -72 -42h2q-42 -31 -66 -59t-29 -54q-1 -4 -1.5 -7t-0.5 -7q0 -13 8 -23q11 -14 33 -14q38 0 64 32l12 -8q-24 -31 -53.5 -47.5t-61.5 -16.5q-26 0 -42.5 10t-21.5 27q-2 8 -2 14q0 7 1 10
q8 39 44 77q19 19 42 36q17 13 38 24z" />
    <glyph glyph-name="Idotaccent" unicode="&#x130;" horiz-adv-x="303" 
d="M218 90q-1 -5 -1 -13q0 -42 68 -44l-7 -33h-254l7 33q73 1 84 57l103 530q1 4 1.5 7t0.5 6q0 43 -64 44l7 33h254l-7 -33q-79 -2 -89 -57zM380 830q0 -24 -16.5 -40t-41.5 -16t-42 16t-17 40q0 23 16.5 40t42.5 17q25 0 41.5 -17t16.5 -40z" />
    <glyph glyph-name="dotlessi" unicode="&#x131;" horiz-adv-x="306" 
d="M232 90q-2 -10 -2 -14q0 -18 14 -18q15 0 50 23l-6 -34q-56 -48 -115 -48q-48 0 -48 55q0 19 4 36l59 306q2 10 2 14q0 18 -14 18q-16 0 -50 -22l6 33q55 49 115 49q48 0 48 -55q0 -18 -4 -37z" />
    <glyph glyph-name="IJ" unicode="&#x132;" horiz-adv-x="615" 
d="M218 90q-1 -5 -1 -13q0 -42 68 -44l-7 -33h-254l7 33q73 1 84 57l103 530q1 4 1.5 7t0.5 6q0 43 -64 44l7 33h254l-7 -33q-79 -2 -89 -57zM527 64q-27 -128 -120 -201q-92 -73 -155 -73l9 44q68 33 105 85t60 153l106 548q1 5 1 14q0 41 -63 43l6 33h255l-7 -33
q-79 -2 -89 -57z" />
    <glyph glyph-name="ij" unicode="&#x133;" horiz-adv-x="535" 
d="M232 90q-2 -10 -2 -14q0 -18 14 -18q15 0 50 23l-6 -34q-56 -48 -115 -48q-48 0 -48 55q0 19 4 36l59 306q2 10 2 14q0 18 -14 18q-16 0 -50 -22l6 33q55 49 115 49q48 0 48 -55q0 -18 -4 -37zM348 679q0 -26 -20 -46t-51 -20t-51 20t-20 46t20 46t51 20t51 -20t20 -46z
M484 -24q-16 -88 -82 -137q-64 -49 -132 -49l8 41q79 27 102 143l82 422q2 10 2 14q0 18 -14 18q-16 0 -50 -22l6 33q55 49 115 49q48 0 48 -55q0 -18 -4 -37zM624 679q0 -26 -20 -46t-50 -20q-32 0 -52 20t-20 46t20 46t52 20q30 0 50 -20t20 -46z" />
    <glyph glyph-name="Jcircumflex" unicode="&#x134;" horiz-adv-x="312" 
d="M224 64q-27 -128 -120 -201q-92 -73 -155 -73l9 44q68 33 105 85t60 153l106 548q1 5 1 14q0 41 -63 43l6 33h255l-7 -33q-79 -2 -89 -57zM431 783v-6q-3 -13 -20 -13q-6 0 -10 1l-89 57l-112 -57q-4 -1 -10 -1q-15 0 -15 10v3l2 6l152 125z" />
    <glyph glyph-name="jcircumflex" unicode="&#x135;" horiz-adv-x="229" 
d="M178 -24q-16 -88 -82 -137q-64 -49 -132 -49l8 41q80 27 103 143l82 422q1 4 1 7v7q0 18 -13 18q-17 0 -51 -22l7 33q53 49 114 49q49 0 49 -55q0 -18 -4 -37zM346 550v-6q-3 -12 -20 -12q-6 0 -10 1l-89 57l-111 -57q-5 -1 -11 -1q-15 0 -15 10v2l3 6l151 125z" />
    <glyph glyph-name="Kcommaaccent" unicode="&#x136;" horiz-adv-x="629" 
d="M274 305l309 324q2 5 4 8.5t3 7.5v3q0 21 -44 29l7 31h204l-7 -32q-62 -11 -113 -65l-202 -210l146 -313q23 -45 74 -56l-7 -32h-148l-155 304l-91 -102l-16 -87q-3 -14 -3 -26q0 -55 64 -56l-6 -33h-254l6 33q75 2 85 57l103 530q1 5 1 13q0 43 -64 44l7 33h254l-7 -33
q-78 -2 -88 -57zM302 -147q-17 0 -29 13q-16 13 -16 34t16 36q14 14 36 14q23 0 37 -14q15 -15 15 -36v-3q0 -44 -65 -111l-16 18q9 16 14.5 28.5t7.5 20.5z" />
    <glyph glyph-name="kcommaaccent" unicode="&#x137;" horiz-adv-x="526" 
d="M285 227q-18 -27 -38.5 -58.5t-43.5 -67.5l-19 -101h-103l124 637v6q0 39 -69 44l8 38q84 0 183 12l-103 -531q157 271 300 271h3q65 -5 65 -54q0 -4 -0.5 -8.5t-1.5 -9.5q-20 -56 -78 -57q-45 0 -68 22q-11 11 -24 11q-20 0 -69 -63l121 -226q16 -34 36 -34q15 0 50 23
l-6 -34q-41 -48 -91 -48q-57 0 -75 44zM231 -147q-17 0 -29 13q-16 13 -16 34t16 36q14 14 36 14q23 0 37 -14q15 -15 15 -36v-3q0 -44 -65 -111l-16 18q9 16 14.5 28.5t7.5 20.5z" />
    <glyph glyph-name="kgreenlandic" unicode="&#x138;" horiz-adv-x="536" 
d="M237 210l135 166q17 23 20 38q1 3 1 7q0 21 -31 21l7 34h181l-7 -34q-39 0 -109 -72l-65 -72l94 -198q31 -66 91 -67l-7 -33h-220l6 33q26 2 30 28q2 10 2 17v7l-60 139l-92 -123q-3 -11 -3 -21q0 -46 54 -47l-6 -33h-227l6 33q61 2 71 57l58 296q1 5 1 8v8q0 39 -50 41
l7 34h200l-7 -34q-36 0 -46 -57z" />
    <glyph glyph-name="Lacute" unicode="&#x139;" horiz-adv-x="555" 
d="M350 54q135 0 160 130h46l-35 -184h-477l6 33q75 2 85 57l103 530q1 5 1 13q0 43 -64 44l7 33h254l-7 -33q-78 -2 -88 -57l-103 -527q-1 -3 -1 -9q0 -30 53 -30h60zM396 756q23 51 40 82t28 43l3 3q21 21 46 21q17 0 31 -12q10 -7 13 -19q1 -4 1.5 -7t0.5 -7q0 -7 -1 -10
q-3 -18 -17 -32q-24 -21 -126 -77z" />
    <glyph glyph-name="lacute" unicode="&#x13a;" horiz-adv-x="273" 
d="M207 637q1 2 1 6q0 39 -69 44l7 38q83 0 184 12l-126 -647q-1 -4 -1 -8v-6q0 -18 13 -18q16 0 51 23l-7 -34q-54 -48 -114 -48q-49 0 -49 55q0 19 4 36zM132 760q23 51 40 82t28 43l3 3q21 21 46 21q17 0 31 -12q10 -7 13 -19q1 -4 1.5 -7t0.5 -7q0 -7 -1 -10
q-3 -18 -17 -32q-24 -21 -126 -77z" />
    <glyph glyph-name="Lcommaaccent" unicode="&#x13b;" horiz-adv-x="555" 
d="M350 54q135 0 160 130h46l-35 -184h-477l6 33q75 2 85 57l103 530q1 5 1 13q0 43 -64 44l7 33h254l-7 -33q-78 -2 -88 -57l-103 -527q-1 -3 -1 -9q0 -30 53 -30h60zM240 -147q-17 0 -29 13q-16 13 -16 34t16 36q14 14 36 14q23 0 37 -14q15 -15 15 -36v-3q0 -44 -65 -111
l-16 18q9 16 14.5 28.5t7.5 20.5z" />
    <glyph glyph-name="lcommaaccent" unicode="&#x13c;" horiz-adv-x="273" 
d="M207 637q1 2 1 6q0 39 -69 44l7 38q83 0 184 12l-126 -647q-1 -4 -1 -8v-6q0 -18 13 -18q16 0 51 23l-7 -34q-54 -48 -114 -48q-49 0 -49 55q0 19 4 36zM86 -147q-17 0 -29 13q-16 13 -16 34t16 36q14 14 36 14q23 0 37 -14q15 -15 15 -36v-3q0 -44 -65 -111l-16 18
q9 16 14.5 28.5t7.5 20.5z" />
    <glyph glyph-name="Lcaron" unicode="&#x13d;" horiz-adv-x="555" 
d="M350 54q135 0 160 130h46l-35 -184h-477l6 33q75 2 85 57l103 530q1 5 1 13q0 43 -64 44l7 33h254l-7 -33q-78 -2 -88 -57l-103 -527q-1 -3 -1 -9q0 -30 53 -30h60zM497 621q-17 0 -29 13q-16 13 -16 34q0 20 16 35q13 15 36 15t37 -15q15 -15 15 -35v-3q0 -64 -65 -131
l-16 18q17 30 22 69z" />
    <glyph glyph-name="lcaron" unicode="&#x13e;" horiz-adv-x="362" 
d="M207 637q1 2 1 6q0 39 -69 44l7 38q83 0 184 12l-126 -647q-1 -4 -1 -8v-6q0 -18 13 -18q16 0 51 23l-7 -34q-54 -48 -114 -48q-49 0 -49 55q0 19 4 36zM414 621q-18 0 -27 13q-10 10 -10 25q0 6 1 9q5 21 22 35q18 15 40 15t34 -15q9 -11 9 -25q0 -7 -1 -10l-1 -3
q-12 -65 -90 -131l-13 18q24 31 36 69z" />
    <glyph glyph-name="Ldot" unicode="&#x13f;" horiz-adv-x="555" 
d="M350 54q135 0 160 130h46l-35 -184h-477l6 33q75 2 85 57l103 530q1 5 1 13q0 43 -64 44l7 33h254l-7 -33q-78 -2 -88 -57l-103 -527q-1 -3 -1 -9q0 -30 53 -30h60zM526 354q0 -19 -14 -33t-35 -14t-35 14t-14 33q0 20 14 34t35 14t35 -14t14 -34z" />
    <glyph glyph-name="ldot" unicode="&#x140;" horiz-adv-x="371" 
d="M207 637q1 2 1 6q0 39 -69 44l7 38q83 0 184 12l-126 -647q-1 -4 -1 -8v-6q0 -18 13 -18q16 0 51 23l-7 -34q-54 -48 -114 -48q-49 0 -49 55q0 19 4 36zM428 367q0 -19 -14 -33q-16 -14 -36 -14q-21 0 -35 14t-14 33q0 20 14 34t35 14q20 0 36 -14q14 -14 14 -34z" />
    <glyph glyph-name="Lslash" unicode="&#x141;" horiz-adv-x="555" 
d="M283 325l-53 -271h120q135 0 160 130h46l-35 -184h-477l6 33q75 2 85 57l36 189l-80 -33l10 49l80 34l57 291q1 5 1 13q0 43 -64 44l7 33h254l-7 -33q-78 -2 -88 -57l-48 -245l216 89l-9 -49z" />
    <glyph glyph-name="lslash" unicode="&#x142;" horiz-adv-x="273" 
d="M156 372l51 265q1 2 1 6q0 39 -69 44l7 38q83 0 184 12l-65 -332l89 27l-10 -50l-89 -27l-51 -265q-1 -4 -1 -8v-6q0 -18 13 -18q16 0 51 23l-7 -34q-54 -48 -114 -48q-49 0 -49 55q0 19 4 36l45 232l-82 -25l10 50z" />
    <glyph glyph-name="Nacute" unicode="&#x143;" horiz-adv-x="688" 
d="M239 491l-78 -401q-1 -3 -1 -10q0 -45 92 -47l-6 -33h-217l7 33q48 1 60 57l93 481q6 31 6 53q0 52 -34 53l6 33h92l320 -511l82 421q1 3 1 10q0 46 -88 47l7 33h216l-7 -33q-54 -2 -64 -57l-121 -620h-40zM452 756q23 51 40 82t28 43l3 3q21 21 46 21q17 0 31 -12
q10 -7 13 -19q1 -4 1.5 -7t0.5 -7q0 -7 -1 -10q-3 -18 -17 -32q-24 -21 -126 -77z" />
    <glyph glyph-name="nacute" unicode="&#x144;" horiz-adv-x="578" 
d="M167 396q1 4 1 7v7q0 18 -14 18q-16 0 -50 -22l7 33q53 49 114 49q48 0 48 -56v-8q0 -4 -1 -8l2 1q79 76 175 76q74 0 105 -40q19 -26 19 -70q0 -11 -1.5 -24t-3.5 -27l-47 -242q-1 -4 -1 -8v-6q0 -18 13 -18q15 0 50 23l-6 -34q-56 -48 -115 -48q-47 0 -47 55q0 16 3 36
l47 238q4 17 4 36q0 66 -65 66q-68 0 -142 -77l-69 -353h-103zM363 524q23 51 40 82t28 43l3 3q21 21 46 21q17 0 31 -12q10 -7 13 -19q1 -4 1.5 -7t0.5 -7q0 -7 -1 -10q-3 -18 -17 -32q-24 -21 -126 -77z" />
    <glyph glyph-name="Ncommaaccent" unicode="&#x145;" horiz-adv-x="688" 
d="M239 491l-78 -401q-1 -3 -1 -10q0 -45 92 -47l-6 -33h-217l7 33q48 1 60 57l93 481q6 31 6 53q0 52 -34 53l6 33h92l320 -511l82 421q1 3 1 10q0 46 -88 47l7 33h216l-7 -33q-54 -2 -64 -57l-121 -620h-40zM296 -147q-17 0 -29 13q-16 13 -16 34t16 36q14 14 36 14
q23 0 37 -14q15 -15 15 -36v-3q0 -44 -65 -111l-16 18q9 16 14.5 28.5t7.5 20.5z" />
    <glyph glyph-name="ncommaaccent" unicode="&#x146;" horiz-adv-x="578" 
d="M167 396q1 4 1 7v7q0 18 -14 18q-16 0 -50 -22l7 33q53 49 114 49q48 0 48 -56v-8q0 -4 -1 -8l2 1q79 76 175 76q74 0 105 -40q19 -26 19 -70q0 -11 -1.5 -24t-3.5 -27l-47 -242q-1 -4 -1 -8v-6q0 -18 13 -18q15 0 50 23l-6 -34q-56 -48 -115 -48q-47 0 -47 55q0 16 3 36
l47 238q4 17 4 36q0 66 -65 66q-68 0 -142 -77l-69 -353h-103zM257 -147q-17 0 -29 13q-16 13 -16 34t16 36q14 14 36 14q23 0 37 -14q15 -15 15 -36v-3q0 -44 -65 -111l-16 18q9 16 14.5 28.5t7.5 20.5z" />
    <glyph glyph-name="Ncaron" unicode="&#x147;" horiz-adv-x="688" 
d="M239 491l-78 -401q-1 -3 -1 -10q0 -45 92 -47l-6 -33h-217l7 33q48 1 60 57l93 481q6 31 6 53q0 52 -34 53l6 33h92l320 -511l82 421q1 3 1 10q0 46 -88 47l7 33h216l-7 -33q-54 -2 -64 -57l-121 -620h-40zM481 765l-102 125v6q1 13 19 13q7 0 11 -1l89 -57l111 57
q4 1 11 1q15 0 15 -10q0 -2 -1 -3l-2 -6z" />
    <glyph glyph-name="ncaron" unicode="&#x148;" horiz-adv-x="578" 
d="M167 396q1 4 1 7v7q0 18 -14 18q-16 0 -50 -22l7 33q53 49 114 49q48 0 48 -56v-8q0 -4 -1 -8l2 1q79 76 175 76q74 0 105 -40q19 -26 19 -70q0 -11 -1.5 -24t-3.5 -27l-47 -242q-1 -4 -1 -8v-6q0 -18 13 -18q15 0 50 23l-6 -34q-56 -48 -115 -48q-47 0 -47 55q0 16 3 36
l47 238q4 17 4 36q0 66 -65 66q-68 0 -142 -77l-69 -353h-103zM396 532l-103 125v6q1 12 20 12q6 0 10 -1l89 -57l111 57q4 1 11 1q15 0 15 -9q0 -2 -1 -3q0 -2 -2 -6z" />
    <glyph glyph-name="napostrophe" unicode="&#x149;" horiz-adv-x="730" 
d="M69 576q-17 0 -29 12q-16 15 -16 35q0 22 16 35q13 15 36 15t37 -15q15 -14 15 -35v-3q0 -64 -65 -131l-16 18q17 30 22 69zM320 396q1 4 1 7v7q0 18 -14 18q-16 0 -50 -22l7 33q53 49 114 49q48 0 48 -56v-8q0 -4 -1 -8l2 1q79 76 175 76q74 0 105 -40q19 -26 19 -70
q0 -11 -1.5 -24t-3.5 -27l-47 -242q-1 -4 -1 -8v-6q0 -18 13 -18q15 0 50 23l-6 -34q-56 -48 -115 -48q-47 0 -47 55q0 16 3 36l47 238q4 17 4 36q0 66 -65 66q-68 0 -142 -77l-69 -353h-103z" />
    <glyph glyph-name="Eng" unicode="&#x14a;" horiz-adv-x="688" 
d="M518 72l-279 419l-78 -401q-1 -3 -1 -10q0 -45 92 -47l-6 -33h-217l7 33q48 1 60 57l93 481q6 31 6 53q0 52 -34 53l6 33h92l320 -511l82 421q1 3 1 10q0 46 -88 47l7 33h216l-7 -33q-54 -2 -64 -57l-125 -644q-18 -90 -82 -137q-62 -49 -131 -49l8 41q34 4 62 41t42 112
z" />
    <glyph glyph-name="eng" unicode="&#x14b;" horiz-adv-x="575" 
d="M270 417l1 1q81 75 175 75q75 0 105 -40q20 -26 20 -70q0 -23 -6 -50l-69 -357q-17 -89 -81 -137q-64 -49 -132 -49l8 41q35 4 62 41t43 112l66 344q4 17 4 36q0 66 -64 66q-69 0 -143 -77l-69 -353h-103l78 396q1 4 1 7v7q0 18 -14 18q-16 0 -50 -22l6 33q55 49 115 49
q48 0 48 -55v-8q0 -4 -1 -8z" />
    <glyph glyph-name="Omacron" unicode="&#x14c;" horiz-adv-x="742" 
d="M764 351q-32 -162 -132 -259q-101 -99 -259 -99q-166 0 -227 99q-42 64 -42 158q0 23 3 48.5t8 52.5q31 168 132 267q100 99 257 99q169 0 231 -99q40 -64 40 -159q0 -47 -11 -108zM382 37q97 0 164 82q69 83 98 232q5 29 7.5 55t2.5 50q0 77 -25 127q-42 84 -134 84
q-94 0 -163 -82q-69 -83 -99 -234q-9 -56 -9 -101q0 -74 26 -128q40 -85 132 -85zM396 782l9 48h272l-9 -48h-272z" />
    <glyph glyph-name="omacron" unicode="&#x14d;" horiz-adv-x="569" 
d="M370 445q-133 0 -172 -195q-4 -23 -6 -43t-2 -37q0 -123 105 -123q133 0 172 200q4 22 6 41t2 36q0 121 -105 121zM381 493q199 0 199 -170q0 -17 -2 -36.5t-6 -40.5q-49 -247 -288 -247q-201 0 -201 170q0 35 9 77q49 247 289 247zM262 550l9 48h272l-9 -48h-272z" />
    <glyph glyph-name="Obreve" unicode="&#x14e;" horiz-adv-x="742" 
d="M764 351q-32 -162 -132 -259q-101 -99 -259 -99q-166 0 -227 99q-42 64 -42 158q0 23 3 48.5t8 52.5q31 168 132 267q100 99 257 99q169 0 231 -99q40 -64 40 -159q0 -47 -11 -108zM382 37q97 0 164 82q69 83 98 232q5 29 7.5 55t2.5 50q0 77 -25 127q-42 84 -134 84
q-94 0 -163 -82q-69 -83 -99 -234q-9 -56 -9 -101q0 -74 26 -128q40 -85 132 -85zM425 874q4 6 13 6q7 0 10 -4q-1 -3 -1 -9q0 -45 84 -45q93 0 104 54q4 4 11 4q9 0 11 -6q-24 -115 -138 -115q-97 0 -97 81q0 16 3 34z" />
    <glyph glyph-name="obreve" unicode="&#x14f;" horiz-adv-x="569" 
d="M370 445q-133 0 -172 -195q-4 -23 -6 -43t-2 -37q0 -123 105 -123q133 0 172 200q4 22 6 41t2 36q0 121 -105 121zM381 493q199 0 199 -170q0 -17 -2 -36.5t-6 -40.5q-49 -247 -288 -247q-201 0 -201 170q0 35 9 77q49 247 289 247zM290 642q4 6 13 6q7 0 10 -4
q-1 -3 -1 -9q0 -45 84 -45q93 0 104 54q4 4 11 4q9 0 11 -6q-24 -115 -138 -115q-97 0 -97 81q0 16 3 34z" />
    <glyph glyph-name="Ohungarumlaut" unicode="&#x150;" horiz-adv-x="742" 
d="M764 351q-32 -162 -132 -259q-101 -99 -259 -99q-166 0 -227 99q-42 64 -42 158q0 23 3 48.5t8 52.5q31 168 132 267q100 99 257 99q169 0 231 -99q40 -64 40 -159q0 -47 -11 -108zM382 37q97 0 164 82q69 83 98 232q5 29 7.5 55t2.5 50q0 77 -25 127q-42 84 -134 84
q-94 0 -163 -82q-69 -83 -99 -234q-9 -56 -9 -101q0 -74 26 -128q40 -85 132 -85zM384 756q23 51 40 82t28 43l3 3q21 21 46 21q17 0 31 -12q10 -7 13 -19q1 -4 1.5 -7t0.5 -7q0 -7 -1 -10q-3 -18 -17 -32q-24 -21 -126 -77zM531 756q23 51 40 82t28 43l3 3q19 21 46 21
q17 0 31 -12q10 -7 13 -19q1 -5 1 -14q0 -7 -1 -10q-3 -18 -17 -32q-22 -21 -126 -77z" />
    <glyph glyph-name="ohungarumlaut" unicode="&#x151;" horiz-adv-x="569" 
d="M370 445q-133 0 -172 -195q-4 -23 -6 -43t-2 -37q0 -123 105 -123q133 0 172 200q4 22 6 41t2 36q0 121 -105 121zM381 493q199 0 199 -170q0 -17 -2 -36.5t-6 -40.5q-49 -247 -288 -247q-201 0 -201 170q0 35 9 77q49 247 289 247zM250 524q23 51 40 82t28 43l3 3
q21 21 46 21q17 0 31 -12q10 -7 13 -19q1 -4 1.5 -7t0.5 -7q0 -7 -1 -10q-3 -18 -17 -32q-24 -21 -126 -77zM397 524q23 51 40 82t28 43l3 3q19 21 46 21q17 0 31 -12q10 -7 13 -19q1 -5 1 -14q0 -7 -1 -10q-3 -18 -17 -32q-22 -21 -126 -77z" />
    <glyph glyph-name="OE" unicode="&#x152;" horiz-adv-x="999" 
d="M613 608q-42 58 -119 58q-93 0 -162 -83q-69 -81 -99 -234q-10 -53 -10 -101q0 -74 26 -128q42 -84 132 -84q73 0 129 46q18 15 36 36q68 83 98 231q10 56 10 106q0 73 -26 127q-7 15 -15 26zM577 710h498l-36 -188h-45q4 19 4 39q0 95 -118 95h-154l-4 -21q7 -9 12 -18
q40 -64 40 -160q0 -30 -3 -63h67q55 0 66 54h39l-31 -157h-38q1 4 1 12q0 37 -48 37h-66q-31 -154 -129 -250q-5 -5 -10 -9t-10 -9l-4 -18h191q135 0 161 134h46l-36 -188h-510q-43 -8 -87 -8q-166 0 -228 98q-41 67 -41 159q0 23 2.5 48t7.5 52q33 169 132 268
q101 98 258 98q20 0 38 -1.5t35 -3.5z" />
    <glyph glyph-name="oe" unicode="&#x153;" horiz-adv-x="862" 
d="M596 301q16 -2 30.5 -3t27.5 -1q98 0 127 57q6 13 10 27q1 4 1 11q0 37 -59 45q-85 0 -137 -136zM488 70q-74 -74 -204 -74q-201 0 -201 173q0 35 9 77q49 250 289 250q126 0 173 -71q68 66 182 68q144 0 156 -92q1 -5 1.5 -9t0.5 -9q0 -12 -3 -22q-12 -61 -92 -90
q-72 -26 -142 -26q-38 0 -73 7q-8 -46 -8 -78q0 -118 100 -119q91 0 153 95l25 -21q-71 -126 -213 -130q-109 3 -153 71zM464 231q1 5 1.5 11t1.5 11q1 4 2 7.5t2 7.5q2 16 3 29.5t1 26.5q0 124 -105 124q-133 0 -172 -198q-4 -23 -6 -43t-2 -37q0 -125 105 -125
q128 0 169 186z" />
    <glyph glyph-name="Racute" unicode="&#x154;" horiz-adv-x="603" 
d="M524 193q12 -158 104 -166l-5 -27h-116q-110 2 -110 175v8q0 140 -78 140q-29 0 -62 -10l-34 -174q-5 -25 -5 -39q0 -65 62 -67l-7 -33h-253l6 33q73 1 84 57l103 530q1 4 1.5 7t0.5 6q0 43 -64 44l7 33h201q273 0 273 -152q0 -7 -0.5 -13.5t-1.5 -13.5
q-33 -175 -261 -194q148 -5 155 -144zM325 665l-53 -274q-1 -2 -1 -6q0 -24 46 -24q176 17 202 152q4 20 4 40q0 110 -147 112h-51zM435 756q23 51 40 82t28 43l3 3q21 21 46 21q17 0 31 -12q10 -7 13 -19q1 -4 1.5 -7t0.5 -7q0 -7 -1 -10q-3 -18 -17 -32q-24 -21 -126 -77z
" />
    <glyph glyph-name="racute" unicode="&#x155;" horiz-adv-x="411" 
d="M284 396h1q54 93 125 93q65 0 65 -51q0 -7 -1 -11q-12 -62 -66 -66q-49 2 -53 47q-2 6 -5 6q-9 0 -28 -19q-31 -31 -54 -83l-60 -312h-104l78 396q1 4 1 7v7q0 18 -14 18q-16 0 -50 -22l6 33q55 49 115 49q48 0 48 -56q0 -17 -4 -36zM278 524q23 51 40 82t28 43l3 3
q21 21 46 21q17 0 31 -12q10 -7 13 -19q1 -4 1.5 -7t0.5 -7q0 -7 -1 -10q-3 -18 -17 -32q-24 -21 -126 -77z" />
    <glyph glyph-name="Rcommaaccent" unicode="&#x156;" horiz-adv-x="603" 
d="M524 193q12 -158 104 -166l-5 -27h-116q-110 2 -110 175v8q0 140 -78 140q-29 0 -62 -10l-34 -174q-5 -25 -5 -39q0 -65 62 -67l-7 -33h-253l6 33q73 1 84 57l103 530q1 4 1.5 7t0.5 6q0 43 -64 44l7 33h201q273 0 273 -152q0 -7 -0.5 -13.5t-1.5 -13.5
q-33 -175 -261 -194q148 -5 155 -144zM325 665l-53 -274q-1 -2 -1 -6q0 -24 46 -24q176 17 202 152q4 20 4 40q0 110 -147 112h-51zM279 -147q-17 0 -29 13q-16 13 -16 34t16 36q14 14 36 14q23 0 37 -14q15 -15 15 -36v-3q0 -44 -65 -111l-16 18q9 16 14.5 28.5t7.5 20.5z
" />
    <glyph glyph-name="rcommaaccent" unicode="&#x157;" horiz-adv-x="411" 
d="M284 396h1q54 93 125 93q65 0 65 -51q0 -7 -1 -11q-12 -62 -66 -66q-49 2 -53 47q-2 6 -5 6q-9 0 -28 -19q-31 -31 -54 -83l-60 -312h-104l78 396q1 4 1 7v7q0 18 -14 18q-16 0 -50 -22l6 33q55 49 115 49q48 0 48 -56q0 -17 -4 -36zM173 -147q-17 0 -29 13
q-16 13 -16 34t16 36q14 14 36 14q23 0 37 -14q15 -15 15 -36v-3q0 -44 -65 -111l-16 18q9 16 14.5 28.5t7.5 20.5z" />
    <glyph glyph-name="Rcaron" unicode="&#x158;" horiz-adv-x="603" 
d="M524 193q12 -158 104 -166l-5 -27h-116q-110 2 -110 175v8q0 140 -78 140q-29 0 -62 -10l-34 -174q-5 -25 -5 -39q0 -65 62 -67l-7 -33h-253l6 33q73 1 84 57l103 530q1 4 1.5 7t0.5 6q0 43 -64 44l7 33h201q273 0 273 -152q0 -7 -0.5 -13.5t-1.5 -13.5
q-33 -175 -261 -194q148 -5 155 -144zM325 665l-53 -274q-1 -2 -1 -6q0 -24 46 -24q176 17 202 152q4 20 4 40q0 110 -147 112h-51zM458 764l-102 125v6q1 13 19 13q7 0 11 -1l89 -57l111 57q4 1 11 1q15 0 15 -10q0 -2 -1 -3l-2 -6z" />
    <glyph glyph-name="rcaron" unicode="&#x159;" horiz-adv-x="411" 
d="M284 396h1q54 93 125 93q65 0 65 -51q0 -7 -1 -11q-12 -62 -66 -66q-49 2 -53 47q-2 6 -5 6q-9 0 -28 -19q-31 -31 -54 -83l-60 -312h-104l78 396q1 4 1 7v7q0 18 -14 18q-16 0 -50 -22l6 33q55 49 115 49q48 0 48 -56q0 -17 -4 -36zM311 532l-103 125v6q1 12 20 12
q6 0 10 -1l89 -57l111 57q4 1 11 1q15 0 15 -9q0 -2 -1 -3q0 -2 -2 -6z" />
    <glyph glyph-name="Sacute" unicode="&#x15a;" horiz-adv-x="557" 
d="M216 408q-52 45 -52 110q0 5 0.5 10.5t1.5 10.5q13 73 83 126q68 52 177 52q108 0 164 -62l-25 -132h-34q-5 82 -33 113t-76 31q-62 0 -96 -31q-36 -31 -45 -77v-7q0 -47 87 -99q47 -28 80.5 -51.5t54.5 -42.5q57 -53 57 -134q0 -8 -0.5 -16t-1.5 -16q-17 -89 -90 -144
q-74 -56 -199 -56q-146 0 -205 83l34 176h49q-1 -10 -1 -20v-18q0 -103 29 -135q33 -38 96 -38q74 0 114 31q42 31 55 98q1 5 1.5 9t0.5 9q0 71 -89 127q-51 31 -84.5 54t-52.5 39zM401 756q23 51 40 82t28 43l3 3q21 21 46 21q17 0 31 -12q10 -7 13 -19q1 -4 1.5 -7t0.5 -7
q0 -7 -1 -10q-3 -18 -17 -32q-24 -21 -126 -77z" />
    <glyph glyph-name="sacute" unicode="&#x15b;" horiz-adv-x="444" 
d="M435 458q25 -22 25 -51q0 -8 -1 -12q-2 -8 -4 -14q-17 -41 -53 -41h-1q-39 2 -42 28v7q0 9 1 13q3 14 14 29q2 2 4 7v1q0 8 -13 12q-21 8 -54 8q-68 -8 -83 -60v-6q0 -40 111 -83q97 -33 97 -118q0 -15 -3 -33q-2 -12 -6 -22q-39 -124 -218 -124h-13q-95 6 -120 48
q-12 19 -12 37q0 8 1 11q3 16 16 30q21 25 46 25q11 0 20 -4q24 -9 24 -33q0 -8 -1 -12l-2 -8t-2 -9l-3 -9q-1 -2 -1 -7q0 -26 46 -26h8q5 0 10 1q80 8 96 85q1 4 1 8v8q0 28 -22 50q-30 28 -74 45q-115 27 -115 98q0 10 1 15q12 63 71 102q57 39 133 39q80 -1 118 -35z
M291 524q23 51 40 82t28 43l3 3q21 21 46 21q17 0 31 -12q10 -7 13 -19q1 -4 1.5 -7t0.5 -7q0 -7 -1 -10q-3 -18 -17 -32q-24 -21 -126 -77z" />
    <glyph glyph-name="Scircumflex" unicode="&#x15c;" horiz-adv-x="557" 
d="M216 408q-52 45 -52 110q0 5 0.5 10.5t1.5 10.5q13 73 83 126q68 52 177 52q108 0 164 -62l-25 -132h-34q-5 82 -33 113t-76 31q-62 0 -96 -31q-36 -31 -45 -77v-7q0 -47 87 -99q47 -28 80.5 -51.5t54.5 -42.5q57 -53 57 -134q0 -8 -0.5 -16t-1.5 -16q-17 -89 -90 -144
q-74 -56 -199 -56q-146 0 -205 83l34 176h49q-1 -10 -1 -20v-18q0 -103 29 -135q33 -38 96 -38q74 0 114 31q42 31 55 98q1 5 1.5 9t0.5 9q0 71 -89 127q-51 31 -84.5 54t-52.5 39zM576 783q1 -1 1 -3t-1 -3q-1 -13 -19 -13q-7 0 -11 1l-88 57l-112 -57q-4 -1 -11 -1
q-15 0 -15 10q0 2 1 3l2 6l151 125z" />
    <glyph glyph-name="scircumflex" unicode="&#x15d;" horiz-adv-x="444" 
d="M435 458q25 -22 25 -51q0 -8 -1 -12q-2 -8 -4 -14q-17 -41 -53 -41h-1q-39 2 -42 28v7q0 9 1 13q3 14 14 29q2 2 4 7v1q0 8 -13 12q-21 8 -54 8q-68 -8 -83 -60v-6q0 -40 111 -83q97 -33 97 -118q0 -15 -3 -33q-2 -12 -6 -22q-39 -124 -218 -124h-13q-95 6 -120 48
q-12 19 -12 37q0 8 1 11q3 16 16 30q21 25 46 25q11 0 20 -4q24 -9 24 -33q0 -8 -1 -12l-2 -8t-2 -9l-3 -9q-1 -2 -1 -7q0 -26 46 -26h8q5 0 10 1q80 8 96 85q1 4 1 8v8q0 28 -22 50q-30 28 -74 45q-115 27 -115 98q0 10 1 15q12 63 71 102q57 39 133 39q80 -1 118 -35z
M476 550q1 -1 1 -3t-1 -3q-2 -12 -19 -12q-6 0 -10 1l-89 57l-112 -57q-4 -1 -10 -1q-15 0 -15 10v2q1 2 1 3t1 3l151 125z" />
    <glyph glyph-name="Scedilla" unicode="&#x15e;" horiz-adv-x="557" 
d="M258 -7q-138 3 -194 83l34 176h49q-1 -10 -1 -20v-18q0 -103 29 -135q33 -38 96 -38q74 0 114 31q42 31 55 98q1 5 1.5 9t0.5 9q0 71 -89 127q-51 31 -84.5 54t-52.5 39q-52 45 -52 110q0 5 0.5 10.5t1.5 10.5q13 73 83 126q68 52 177 52q108 0 164 -62l-25 -132h-34
q-5 82 -33 113t-76 31q-62 0 -96 -31q-36 -31 -45 -77v-7q0 -47 87 -99q47 -28 80.5 -51.5t54.5 -42.5q57 -53 57 -134q0 -8 -0.5 -16t-1.5 -16q-17 -89 -90 -144q-62 -47 -164 -55l-16 -33q43 0 62 -19q14 -16 14 -38q0 -4 -0.5 -8.5t-1.5 -9.5q-7 -37 -39 -58.5t-83 -21.5
q-53 0 -89 15l28 38q16 -16 50 -16q32 0 48 10.5t20 32.5q1 2 1 7q0 16 -18 24q-15 7 -55 7z" />
    <glyph glyph-name="scedilla" unicode="&#x15f;" horiz-adv-x="444" 
d="M199 -3h-3q-95 6 -120 48q-12 19 -12 37q0 7 1 10q3 17 16 30q21 25 46 25q9 0 20 -3q24 -11 24 -34q0 -8 -1 -12t-2 -7.5t-2 -8.5l-3 -9q-1 -3 -1 -7q0 -26 46 -26h8q5 0 10 1q79 6 96 84q1 5 1 9v8q0 28 -22 50q-30 28 -74 45q-115 31 -115 103q0 10 1 15q12 63 71 102
q57 39 133 39q80 -1 118 -36q25 -22 25 -50q0 -8 -1 -13q-2 -8 -4 -13q-17 -41 -53 -41h-1q-39 2 -42 28v7q0 9 1 13q3 14 14 29q2 2 4 7v1q0 8 -13 12q-21 8 -54 8q-68 -8 -83 -60v-6q0 -40 111 -83q97 -37 97 -123q0 -17 -3 -33q-2 -12 -6 -22q-34 -111 -182 -123l-17 -37
q43 0 62 -19q14 -16 14 -38q0 -4 -0.5 -8.5t-1.5 -9.5q-7 -37 -39 -58.5t-83 -21.5q-53 0 -90 15l29 38q16 -16 50 -16q32 0 48 10.5t20 32.5q1 2 1 6q0 18 -19 25q-14 7 -54 7z" />
    <glyph glyph-name="Scaron" unicode="&#x160;" horiz-adv-x="557" 
d="M216 408q-52 45 -52 110q0 5 0.5 10.5t1.5 10.5q13 73 83 126q68 52 177 52q108 0 164 -62l-25 -132h-34q-5 82 -33 113t-76 31q-62 0 -96 -31q-36 -31 -45 -77v-7q0 -47 87 -99q47 -28 80.5 -51.5t54.5 -42.5q57 -53 57 -134q0 -8 -0.5 -16t-1.5 -16q-17 -89 -90 -144
q-74 -56 -199 -56q-146 0 -205 83l34 176h49q-1 -10 -1 -20v-18q0 -103 29 -135q33 -38 96 -38q74 0 114 31q42 31 55 98q1 5 1.5 9t0.5 9q0 71 -89 127q-51 31 -84.5 54t-52.5 39zM422 765l-102 125v6q1 13 19 13q7 0 11 -1l89 -57l111 57q4 1 11 1q15 0 15 -10q0 -2 -1 -3
l-2 -6z" />
    <glyph glyph-name="scaron" unicode="&#x161;" horiz-adv-x="444" 
d="M435 458q25 -22 25 -51q0 -8 -1 -12q-2 -8 -4 -14q-17 -41 -53 -41h-1q-39 2 -42 28v7q0 9 1 13q3 14 14 29q2 2 4 7v1q0 8 -13 12q-21 8 -54 8q-68 -8 -83 -60v-6q0 -40 111 -83q97 -33 97 -118q0 -15 -3 -33q-2 -12 -6 -22q-39 -124 -218 -124h-13q-95 6 -120 48
q-12 19 -12 37q0 8 1 11q3 16 16 30q21 25 46 25q11 0 20 -4q24 -9 24 -33q0 -8 -1 -12l-2 -8t-2 -9l-3 -9q-1 -2 -1 -7q0 -26 46 -26h8q5 0 10 1q80 8 96 85q1 4 1 8v8q0 28 -22 50q-30 28 -74 45q-115 27 -115 98q0 10 1 15q12 63 71 102q57 39 133 39q80 -1 118 -35z
M324 532l-103 125v6q1 12 20 12q6 0 10 -1l89 -57l111 57q4 1 11 1q15 0 15 -9q0 -2 -1 -3q0 -2 -2 -6z" />
    <glyph glyph-name="Tcommaaccent" unicode="&#x162;" horiz-adv-x="562" 
d="M257 0h-101l7 33q73 1 84 57l110 566h-74q-90 0 -116 -134h-46l37 188h523l-37 -188h-45q2 15 3.5 28.5t1.5 24.5q0 81 -70 81h-74l-110 -566q-1 -5 -1 -13q0 -43 63 -44l-6 -33h-103l-18 -39q43 0 62 -19q14 -16 14 -38q0 -4 -0.5 -8.5t-1.5 -9.5q-7 -37 -39.5 -58.5
t-83.5 -21.5q-52 0 -89 15l28 38q17 -16 51 -16q32 0 48 10.5t20 32.5v6q0 17 -18 25q-15 7 -55 7z" />
    <glyph glyph-name="tcommaaccent" unicode="&#x163;" horiz-adv-x="302" 
d="M161 -1q-70 9 -70 74q0 12 3 29l64 335h-75l10 40q98 21 143 135h60l-26 -135h96l-10 -40h-96l-61 -327q-1 -5 -1.5 -8.5t-0.5 -7.5q0 -25 18 -29q34 0 63 21l20 -29q-44 -46 -91 -56l-18 -40q43 0 62 -19q14 -16 14 -38q0 -4 -0.5 -8.5t-1.5 -9.5q-7 -37 -39 -58.5
t-83 -21.5q-53 0 -90 15l28 38q17 -16 51 -16q32 0 48 10.5t20 32.5q1 2 1 6q0 18 -19 25q-15 7 -55 7z" />
    <glyph glyph-name="Tcaron" unicode="&#x164;" horiz-adv-x="562" 
d="M681 710l-37 -188h-45q2 15 3.5 28.5t1.5 24.5q0 81 -70 81h-74l-110 -566q-1 -5 -1 -13q0 -43 63 -44l-6 -33h-250l7 33q73 1 84 57l110 566h-74q-90 0 -116 -134h-46l37 188h523zM418 765l-102 125v6q1 13 19 13q7 0 11 -1l89 -57l111 57q4 1 11 1q15 0 15 -10
q0 -2 -1 -3l-2 -6z" />
    <glyph glyph-name="tcaron" unicode="&#x165;" horiz-adv-x="455" 
d="M260 437l-61 -327q-1 -5 -1.5 -8.5t-0.5 -7.5q0 -25 18 -29q34 0 63 21l20 -29q-56 -59 -117 -59q-90 1 -90 75q0 12 3 29l64 335h-75l10 40q98 21 143 135h60l-26 -135h96l-10 -40h-96zM371 621q-17 0 -29 13q-16 13 -16 34q0 20 16 35q13 15 36 15t37 -15
q15 -15 15 -35v-3q0 -64 -65 -131l-16 18q17 30 22 69z" />
    <glyph glyph-name="Tbar" unicode="&#x166;" horiz-adv-x="542" 
d="M293 380l54 276h-74q-90 0 -116 -134h-46l37 188h523l-37 -188h-45q6 30 6 53q0 81 -71 81h-74l-54 -276h137l-10 -50h-136l-47 -240q-1 -5 -1 -13q0 -43 63 -44l-6 -33h-250l7 33q73 1 84 57l47 240h-136l9 50h136z" />
    <glyph glyph-name="tbar" unicode="&#x167;" horiz-adv-x="312" 
d="M132 269l31 168h-56l7 25q104 55 127 150h60l-27 -135h97l-10 -40h-96l-31 -168h97l-10 -50h-96l-21 -108q-1 -4 -1.5 -7t-0.5 -7q0 -28 25 -38q18 0 56 28l20 -29q-56 -59 -117 -59q-44 2 -67 34q-20 26 -20 56q0 9 1 14l22 116h-55l10 50h55z" />
    <glyph glyph-name="Utilde" unicode="&#x168;" horiz-adv-x="701" 
d="M202 619q1 5 1 14q0 42 -63 44l6 33h254l-6 -33q-78 -2 -99 -107l-59 -306q-7 -32 -7 -62q0 -56 26 -91q39 -52 129 -52t144 52.5t73 149.5l60 309q2 11 3 21.5t1 19.5q0 65 -58 66l7 33h217l-7 -33q-77 -2 -89 -58l-71 -369q-22 -111 -102 -185q-80 -72 -219 -72
q-138 0 -186 72q-34 50 -34 119q0 29 6 61zM454 818q-25 0 -34 -19q-12 -25 -22 -25q-4 0 -9 5q17 62 68 91q13 7 36 7q20 0 43 -29t34 -29q24 0 33 19q13 25 23 25q4 0 9 -5q-17 -63 -69 -91q-11 -7 -34 -7q-20 0 -43 29t-35 29z" />
    <glyph glyph-name="utilde" unicode="&#x169;" horiz-adv-x="596" 
d="M169 396q2 10 2 14q0 18 -14 18q-16 0 -50 -22l6 33q55 49 115 49q48 0 48 -55q0 -18 -4 -37l-45 -232q-2 -10 -3 -19.5t-1 -17.5q0 -65 64 -65q68 0 143 77l66 338h103l-76 -387q-1 -5 -1 -13q0 -19 14 -19q15 0 50 23l-6 -34q-56 -48 -115 -48q-48 0 -48 58v8q0 5 1 10
l-1 -1q-81 -75 -175 -75q-76 0 -104 40q-20 26 -20 70q0 11 1.5 24t3.5 27zM361 586q-25 0 -34 -19q-12 -25 -22 -25q-4 0 -9 5q17 62 68 91q13 7 36 7q20 0 43 -29t34 -29q24 0 33 19q13 25 23 25q4 0 9 -5q-17 -63 -69 -91q-11 -7 -34 -7q-20 0 -43 29t-35 29z" />
    <glyph glyph-name="Umacron" unicode="&#x16a;" horiz-adv-x="701" 
d="M202 619q1 5 1 14q0 42 -63 44l6 33h254l-6 -33q-78 -2 -99 -107l-59 -306q-7 -32 -7 -62q0 -56 26 -91q39 -52 129 -52t144 52.5t73 149.5l60 309q2 11 3 21.5t1 19.5q0 65 -58 66l7 33h217l-7 -33q-77 -2 -89 -58l-71 -369q-22 -111 -102 -185q-80 -72 -219 -72
q-138 0 -186 72q-34 50 -34 119q0 29 6 61zM369 782l9 48h272l-9 -48h-272z" />
    <glyph glyph-name="umacron" unicode="&#x16b;" horiz-adv-x="596" 
d="M169 396q2 10 2 14q0 18 -14 18q-16 0 -50 -22l6 33q55 49 115 49q48 0 48 -55q0 -18 -4 -37l-45 -232q-2 -10 -3 -19.5t-1 -17.5q0 -65 64 -65q68 0 143 77l66 338h103l-76 -387q-1 -5 -1 -13q0 -19 14 -19q15 0 50 23l-6 -34q-56 -48 -115 -48q-48 0 -48 58v8q0 5 1 10
l-1 -1q-81 -75 -175 -75q-76 0 -104 40q-20 26 -20 70q0 11 1.5 24t3.5 27zM277 550l9 48h272l-9 -48h-272z" />
    <glyph glyph-name="Ubreve" unicode="&#x16c;" horiz-adv-x="701" 
d="M202 619q1 5 1 14q0 42 -63 44l6 33h254l-6 -33q-78 -2 -99 -107l-59 -306q-7 -32 -7 -62q0 -56 26 -91q39 -52 129 -52t144 52.5t73 149.5l60 309q2 11 3 21.5t1 19.5q0 65 -58 66l7 33h217l-7 -33q-77 -2 -89 -58l-71 -369q-22 -111 -102 -185q-80 -72 -219 -72
q-138 0 -186 72q-34 50 -34 119q0 29 6 61zM398 874q4 6 13 6q7 0 10 -4q-1 -3 -1 -9q0 -45 84 -45q93 0 104 54q4 4 11 4q9 0 11 -6q-24 -115 -138 -115q-97 0 -97 81q0 16 3 34z" />
    <glyph glyph-name="ubreve" unicode="&#x16d;" horiz-adv-x="596" 
d="M169 396q2 10 2 14q0 18 -14 18q-16 0 -50 -22l6 33q55 49 115 49q48 0 48 -55q0 -18 -4 -37l-45 -232q-2 -10 -3 -19.5t-1 -17.5q0 -65 64 -65q68 0 143 77l66 338h103l-76 -387q-1 -5 -1 -13q0 -19 14 -19q15 0 50 23l-6 -34q-56 -48 -115 -48q-48 0 -48 58v8q0 5 1 10
l-1 -1q-81 -75 -175 -75q-76 0 -104 40q-20 26 -20 70q0 11 1.5 24t3.5 27zM305 642q4 6 13 6q7 0 10 -4q-1 -3 -1 -9q0 -45 84 -45q93 0 104 54q4 4 11 4q9 0 11 -6q-24 -115 -138 -115q-97 0 -97 81q0 16 3 34z" />
    <glyph glyph-name="Uring" unicode="&#x16e;" horiz-adv-x="701" 
d="M202 619q1 5 1 14q0 42 -63 44l6 33h254l-6 -33q-78 -2 -99 -107l-59 -306q-7 -32 -7 -62q0 -56 26 -91q39 -52 129 -52t144 52.5t73 149.5l60 309q2 11 3 21.5t1 19.5q0 65 -58 66l7 33h217l-7 -33q-77 -2 -89 -58l-71 -369q-22 -111 -102 -185q-80 -72 -219 -72
q-138 0 -186 72q-34 50 -34 119q0 29 6 61zM462 816q-1 -3 -1 -11q0 -5 1 -8q6 -29 39 -29q21 0 37.5 13.5t21.5 34.5q1 3 1 9q0 14 -9 25q-12 15 -32 15q-21 0 -37 -15q-16 -13 -21 -34zM425 816q7 37 37 62q29 25 66 25q38 0 57 -25q15 -20 15 -44v-9q0 -4 -1 -9
q-8 -36 -38 -62q-30 -24 -67 -24t-56 24q-15 19 -15 44q0 5 0.5 9t1.5 9z" />
    <glyph glyph-name="uring" unicode="&#x16f;" horiz-adv-x="596" 
d="M169 396q2 10 2 14q0 18 -14 18q-16 0 -50 -22l6 33q55 49 115 49q48 0 48 -55q0 -18 -4 -37l-45 -232q-2 -10 -3 -19.5t-1 -17.5q0 -65 64 -65q68 0 143 77l66 338h103l-76 -387q-1 -5 -1 -13q0 -19 14 -19q15 0 50 23l-6 -34q-56 -48 -115 -48q-48 0 -48 58v8q0 5 1 10
l-1 -1q-81 -75 -175 -75q-76 0 -104 40q-20 26 -20 70q0 11 1.5 24t3.5 27zM369 584q-1 -3 -1 -11q0 -5 1 -8q6 -29 39 -29q21 0 37.5 13.5t21.5 34.5q1 3 1 9q0 14 -9 25q-12 15 -32 15q-21 0 -37 -15q-16 -13 -21 -34zM332 584q7 37 37 62q29 25 66 25q38 0 57 -25
q15 -20 15 -44v-9q0 -4 -1 -9q-8 -36 -38 -62q-30 -24 -67 -24t-56 24q-15 19 -15 44q0 5 0.5 9t1.5 9z" />
    <glyph glyph-name="Uhungarumlaut" unicode="&#x170;" horiz-adv-x="701" 
d="M202 619q1 5 1 14q0 42 -63 44l6 33h254l-6 -33q-78 -2 -99 -107l-59 -306q-7 -32 -7 -62q0 -56 26 -91q39 -52 129 -52t144 52.5t73 149.5l60 309q2 11 3 21.5t1 19.5q0 65 -58 66l7 33h217l-7 -33q-77 -2 -89 -58l-71 -369q-22 -111 -102 -185q-80 -72 -219 -72
q-138 0 -186 72q-34 50 -34 119q0 29 6 61zM358 756q23 51 40 82t28 43l3 3q21 21 46 21q17 0 31 -12q10 -7 13 -19q1 -4 1.5 -7t0.5 -7q0 -7 -1 -10q-3 -18 -17 -32q-24 -21 -126 -77zM505 756q23 51 40 82t28 43l3 3q19 21 46 21q17 0 31 -12q10 -7 13 -19q1 -5 1 -14
q0 -7 -1 -10q-3 -18 -17 -32q-22 -21 -126 -77z" />
    <glyph glyph-name="uhungarumlaut" unicode="&#x171;" horiz-adv-x="596" 
d="M169 396q2 10 2 14q0 18 -14 18q-16 0 -50 -22l6 33q55 49 115 49q48 0 48 -55q0 -18 -4 -37l-45 -232q-2 -10 -3 -19.5t-1 -17.5q0 -65 64 -65q68 0 143 77l66 338h103l-76 -387q-1 -5 -1 -13q0 -19 14 -19q15 0 50 23l-6 -34q-56 -48 -115 -48q-48 0 -48 58v8q0 5 1 10
l-1 -1q-81 -75 -175 -75q-76 0 -104 40q-20 26 -20 70q0 11 1.5 24t3.5 27zM265 524q23 51 40 82t28 43l3 3q21 21 46 21q17 0 31 -12q10 -7 13 -19q1 -4 1.5 -7t0.5 -7q0 -7 -1 -10q-3 -18 -17 -32q-24 -21 -126 -77zM412 524q23 51 40 82t28 43l3 3q19 21 46 21
q17 0 31 -12q10 -7 13 -19q1 -5 1 -14q0 -7 -1 -10q-3 -18 -17 -32q-22 -21 -126 -77z" />
    <glyph glyph-name="Uogonek" unicode="&#x172;" horiz-adv-x="701" 
d="M466 14q-56 -17 -122 -17q-138 0 -186 72q-34 50 -34 118q0 30 6 62l72 370q1 4 1.5 7t0.5 7q0 43 -64 44l6 33h254l-6 -33q-78 -2 -99 -107l-58 -302q-7 -32 -7 -62q0 -56 26 -91q39 -52 129 -52t144 52.5t73 149.5l59 305q2 12 3.5 22.5t1.5 19.5q0 64 -58 65l6 33h217
l-6 -33q-79 -2 -89 -58l-71 -365q-22 -111 -102 -185q-13 -11 -26 -20q-33 -33 -65 -91q-20 -35 -24 -60q-2 -10 -2 -16q0 -5 2 -15q10 -31 32 -31q38 0 64 32l13 -8q-24 -31 -53.5 -47.5t-62.5 -16.5q-26 0 -43.5 9.5t-19.5 41.5v3q0 10 1 15q6 30 33 75q30 54 54 74z" />
    <glyph glyph-name="uogonek" unicode="&#x173;" horiz-adv-x="596" 
d="M471 -1h-6q-48 0 -48 55v8q0 5 1 10l-1 -1q-81 -75 -175 -75q-76 0 -104 40q-20 26 -20 70q0 11 1.5 24t3.5 27l46 239q2 10 2 14q0 18 -14 18q-16 0 -50 -22l6 33q55 49 115 49q48 0 48 -55q0 -18 -4 -37l-45 -235q-2 -10 -3 -19.5t-1 -17.5q0 -65 64 -65q68 0 143 77
l66 341h103l-76 -387q-1 -5 -1 -13q0 -19 14 -19q15 0 50 23l-6 -34q-35 -30 -70 -42q-38 -29 -60 -54q-26 -29 -30 -55q-2 -8 -2 -13q0 -13 8 -23q11 -14 33 -14q39 0 64 31l13 -7q-24 -31 -53.5 -47.5t-62.5 -16.5q-25 0 -42 10t-22 27q-2 8 -2 12q0 8 1 12q7 37 44 77
q19 19 42 36q7 5 14.5 9.5t15.5 9.5z" />
    <glyph glyph-name="Wcircumflex" unicode="&#x174;" horiz-adv-x="817" 
d="M507 490l-209 -490h-80l-70 628q-7 34 -37 45l8 37h233l-8 -40q-66 -6 -74 -48l44 -452l229 542h37l56 -562l215 475q1 3 1 8q0 34 -66 36l8 41h186l-8 -38q-33 -10 -51 -44l-294 -628h-79zM702 783q1 -1 1 -3t-1 -3q-1 -13 -19 -13q-7 0 -11 1l-88 57l-112 -57
q-4 -1 -11 -1q-15 0 -15 10q0 2 1 3l2 6l151 125z" />
    <glyph glyph-name="wcircumflex" unicode="&#x175;" horiz-adv-x="877" 
d="M161 396q2 10 2 14q0 18 -14 18q-16 0 -50 -22l6 33q53 49 114 49q49 0 49 -56q0 -19 -4 -36l-40 -209q-6 -27 -6 -48q0 -81 77 -81q87 1 139 85q5 7 8.5 14t7.5 14q1 4 1.5 8t1.5 8l56 290h103l-56 -290q-6 -27 -6 -48q0 -81 77 -81q87 1 139 85q23 37 31 76q4 17 4 39
q0 31 -9 63q-26 63 -26 96q0 5 2 15q11 55 65 55q31 0 46 -27q19 -29 19 -87q0 -14 -1.5 -30.5t-3.5 -34.5q-1 -5 -2 -10.5t-2 -10.5q-23 -114 -100 -197q-85 -91 -213 -91q-107 0 -126 84q-86 -84 -206 -84q-130 0 -130 124q0 8 0.5 17.5t1.5 19.5h-1zM676 550q1 -1 1 -3
t-1 -3q-2 -12 -19 -12q-6 0 -10 1l-89 57l-112 -57q-4 -1 -10 -1q-15 0 -15 10v2q1 2 1 3t1 3l151 125z" />
    <glyph glyph-name="Ycircumflex" unicode="&#x176;" horiz-adv-x="538" 
d="M381 301l-41 -211q-1 -5 -1 -13q0 -43 64 -44l-7 -33h-250l7 33q73 1 84 57l42 213l-112 316q-22 57 -50 58l7 33h213l-6 -33q-42 -2 -48 -33q-1 -3 -1 -9q0 -5 2 -15l81 -251l174 251q10 14 11 24q1 3 1 8q0 23 -36 25l6 33h170l-6 -33q-41 -2 -81 -58zM560 783v-6
q-3 -13 -20 -13q-6 0 -10 1l-89 57l-112 -57q-4 -1 -10 -1q-15 0 -15 10v3l2 6l152 125z" />
    <glyph glyph-name="ycircumflex" unicode="&#x177;" horiz-adv-x="596" 
d="M169 396q1 4 1 7v7q0 18 -13 18q-17 0 -51 -22l7 33q53 49 115 49q48 0 48 -55q0 -18 -4 -37l-45 -232q-2 -10 -3 -19.5t-1 -17.5q0 -65 63 -65q68 0 143 77l66 338h103l-86 -444q-46 -241 -287 -243q-62 2 -99 31q-21 22 -21 50q0 3 0.5 6t1.5 7q2 10 4 15q17 41 54 41
h2q38 -2 41 -27v-7q0 -9 -1 -13q-3 -15 -15 -29q-4 -4 -4 -9v-2q0 -13 34 -20q147 0 201 232q-92 -66 -181 -66q-75 0 -105 40q-20 26 -20 70q0 22 6 51zM518 550q1 -1 1 -3t-1 -3q-2 -12 -19 -12q-6 0 -10 1l-89 57l-112 -57q-4 -1 -10 -1q-15 0 -15 10v2q1 2 1 3t1 3
l151 125z" />
    <glyph glyph-name="Ydieresis" unicode="&#x178;" horiz-adv-x="538" 
d="M381 301l-41 -211q-1 -5 -1 -13q0 -43 64 -44l-7 -33h-250l7 33q73 1 84 57l42 213l-112 316q-22 57 -50 58l7 33h213l-6 -33q-42 -2 -48 -33q-1 -3 -1 -9q0 -5 2 -15l81 -251l174 251q10 14 11 24q1 3 1 8q0 23 -36 25l6 33h170l-6 -33q-41 -2 -81 -58zM408 820
q0 -19 -13.5 -32.5t-34.5 -13.5t-35 13.5t-14 32.5q0 20 14 34t35 14t34.5 -14t13.5 -34zM551 820q0 -19 -14.5 -32.5t-34.5 -13.5q-21 0 -34.5 13.5t-13.5 32.5q0 20 13.5 34t34.5 14t35 -14t14 -34z" />
    <glyph glyph-name="Zacute" unicode="&#x179;" horiz-adv-x="527" 
d="M139 54h222q112 0 146 178h45l-45 -232h-487l8 46l499 614h-194q-136 0 -161 -130h-46l36 184h482l-10 -54zM379 756q23 51 40 82t28 43l3 3q21 21 46 21q17 0 31 -12q10 -7 13 -19q1 -4 1.5 -7t0.5 -7q0 -7 -1 -10q-3 -18 -17 -32q-24 -21 -126 -77z" />
    <glyph glyph-name="zacute" unicode="&#x17a;" horiz-adv-x="437" 
d="M477 435l-299 -384h135q46 10 64 106h46l-30 -157h-349l11 55l288 371h-121q-47 -17 -65 -106h-45l31 157h342zM288 524q23 51 40 82t28 43l3 3q21 21 46 21q17 0 31 -12q10 -7 13 -19q1 -4 1.5 -7t0.5 -7q0 -7 -1 -10q-3 -18 -17 -32q-24 -21 -126 -77z" />
    <glyph glyph-name="Zdotaccent" unicode="&#x17b;" horiz-adv-x="527" 
d="M139 54h222q112 0 146 178h45l-45 -232h-487l8 46l499 614h-194q-136 0 -161 -130h-46l36 184h482l-10 -54zM493 830q0 -24 -16.5 -40t-41.5 -16t-42 16t-17 40q0 23 16.5 40t42.5 17q25 0 41.5 -17t16.5 -40z" />
    <glyph glyph-name="zdotaccent" unicode="&#x17c;" horiz-adv-x="437" 
d="M477 435l-299 -384h135q46 10 64 106h46l-30 -157h-349l11 55l288 371h-121q-47 -17 -65 -106h-45l31 157h342zM402 598q0 -24 -16.5 -40t-41.5 -16t-42 16t-17 40q0 23 16.5 40t42.5 17q25 0 41.5 -17t16.5 -40z" />
    <glyph glyph-name="Zcaron" unicode="&#x17d;" horiz-adv-x="527" 
d="M139 54h222q112 0 146 178h45l-45 -232h-487l8 46l499 614h-194q-136 0 -161 -130h-46l36 184h482l-10 -54zM401 765l-103 125v6q3 13 20 13q6 0 10 -1l89 -57l112 57q4 1 10 1q15 0 15 -10v-3l-2 -6z" />
    <glyph glyph-name="zcaron" unicode="&#x17e;" horiz-adv-x="437" 
d="M477 435l-299 -384h135q46 10 64 106h46l-30 -157h-349l11 55l288 371h-121q-47 -17 -65 -106h-45l31 157h342zM320 532l-103 125v6q1 12 20 12q6 0 10 -1l89 -57l111 57q4 1 11 1q15 0 15 -9q0 -2 -1 -3q0 -2 -2 -6z" />
    <glyph glyph-name="longs" unicode="&#x17f;" horiz-adv-x="361" 
d="M212 -14q-36 -182 -192 -196q-124 0 -124 100v2q13 66 70 67q49 -3 49 -41q0 -6 -1 -10q-5 -22 -13 -31q-16 -21 -17 -25v-2q0 -12 24 -12q73 0 95 115l92 484h-90l9 40h91l23 119q36 182 192 196q124 0 124 -100v-3q-14 -65 -71 -66q-48 1 -48 40q0 7 1 11q5 20 13 31
q14 17 16 25v2q0 11 -24 11q-72 0 -94 -115z" />
    <glyph glyph-name="florin" unicode="&#x192;" horiz-adv-x="361" 
d="M307 477h151l-10 -40h-150l-86 -451q-36 -182 -192 -196q-124 0 -124 100v2q13 66 70 67q49 -3 49 -41q0 -6 -1 -10q-5 -22 -13 -31q-16 -21 -17 -25v-2q0 -12 24 -12q73 0 95 115l92 484h-90l9 40h91l23 119q36 182 192 196q124 0 124 -100v-3q-14 -65 -71 -66
q-48 1 -48 40q0 7 1 11q5 20 13 31q14 17 16 25v2q0 11 -24 11q-72 0 -94 -115z" />
    <glyph glyph-name="Aringacute" unicode="&#x1fa;" horiz-adv-x="627" 
d="M233 222h207l-55 248zM398 603q-1 -1 -1 -4q0 -4 1 -5q2 -8 8.5 -11.5t15.5 -3.5q12 0 22.5 6.5t12.5 17.5v4q0 8 -6 13q-8 8 -19 8t-22 -8t-12 -17zM455 569h1l134 -479q21 -63 53 -63l-6 -27h-256l6 27q73 0 82 46q1 5 1 15t-1 15l-16 76h-249l-50 -76q-9 -17 -12 -30
q-1 -4 -1 -10q0 -36 62 -36l-6 -27h-207l6 27q31 0 75 63l319 477q-3 2 -5 5q-10 10 -10 23v8q4 19 22 31q16 13 39 13q22 0 35 -13q9 -9 9 -23q0 -5 -1 -8q-3 -19 -21 -31zM410 657q26 53 38 63l1 2q6 5 13.5 7.5t14.5 2.5q11 0 19 -5q5 -5 8 -11q1 -2 1 -7v-4
q-1 -8 -10 -17q-7 -5 -25 -15t-49 -24z" />
    <glyph glyph-name="aringacute" unicode="&#x1fb;" horiz-adv-x="497" 
d="M341 91l44 230q-21 70 -74 75q-112 -2 -146 -174q-4 -20 -5.5 -37t-1.5 -33q0 -113 94 -113q58 0 89 52zM295 477v-4q0 -5 1 -7q2 -8 9.5 -12.5t18.5 -4.5q15 0 26.5 8t13.5 20q1 1 1 5q0 8 -7 15q-10 8 -23 8t-26 -8q-11 -9 -14 -20zM358 436q26 -4 46 -19q10 -7 18 -22
q21 21 51 31l22 -14l-64 -333q-2 -10 -2 -12q0 -15 13 -15t45 20l-6 -30q-49 -43 -103 -43q-37 0 -43 35q-52 -35 -106 -35q-163 0 -163 153q0 16 1.5 33.5t5.5 36.5q40 200 209 217l-2 2q-12 12 -12 27q0 6 1 9q5 22 24 35q12 7 24 12l-2 1q28 58 44 72l2 1q13 12 32 12
q12 0 23 -6q7 -4 10 -12q1 -3 1 -9v-4q-1 -10 -11 -18q-7 -5 -23.5 -13.5t-42.5 -21.5q19 -1 30 -14q13 -12 13 -27q0 -5 -1 -8q-5 -21 -25 -36q-6 -4 -9 -5z" />
    <glyph glyph-name="AEacute" unicode="&#x1fc;" horiz-adv-x="853" 
d="M411 697l3 13h516l-37 -188h-45q4 19 4 39q0 95 -118 95h-154l-51 -262h163q55 0 66 54h39l-30 -157h-39q1 4 1 12q0 37 -48 37h-163l-56 -286h191q135 0 161 134h46l-36 -188h-549l7 33q73 1 84 57l26 133h-179l-54 -95q-10 -20 -13 -37q-2 -10 -2 -15q0 -42 60 -43
l-7 -33h-207l7 33q32 2 79 80zM402 276l74 380h-18l-214 -380h158zM527 756q23 51 40 82t28 43l3 3q21 21 46 21q17 0 31 -12q10 -7 13 -19q1 -4 1.5 -7t0.5 -7q0 -7 -1 -10q-3 -18 -17 -32q-24 -21 -126 -77z" />
    <glyph glyph-name="aeacute" unicode="&#x1fd;" horiz-adv-x="787" 
d="M712 311q2 12 3 23t1 21q0 80 -66 82q-85 0 -130 -126h192zM402 70q-90 -72 -206 -72q-128 12 -128 102q0 12 3 26q24 127 154 146q130 21 174 62l12 57v7q0 54 -45 54q-48 0 -62 -35q-16 -36 -46 -58q-20 -15 -41 -15q-47 2 -47 41q0 6 2 16q10 43 67 67t109 24
q107 -2 141 -53q64 54 159 54q93 0 137 -62q29 -44 29 -105q0 -34 -7 -66h-309q-9 -45 -9 -79q0 -44 15 -69q33 -56 99 -57q48 0 95 44q27 25 44 51l24 -21q-11 -17 -25 -34t-31 -33q-65 -63 -157 -63q-108 2 -151 71zM386 107q-13 38 -13 82q0 31 6 64l6 24v2
q-17 -13 -46 -25.5t-71 -23.5q-83 -23 -98 -99q-1 -5 -1.5 -10.5t-0.5 -10.5q0 -67 69 -67t149 64zM469 524q23 51 40 82t28 43l3 3q21 21 46 21q17 0 31 -12q10 -7 13 -19q1 -4 1.5 -7t0.5 -7q0 -7 -1 -10q-3 -18 -17 -32q-24 -21 -126 -77z" />
    <glyph glyph-name="Oslashacute" unicode="&#x1fe;" horiz-adv-x="742" 
d="M291 69q37 -31 94 -31q93 0 162 82q68 83 98 232q5 29 7.5 55t2.5 50q0 75 -26 127q-2 5 -4.5 10t-6.5 10zM261 103l327 535q-38 30 -93 30q-93 0 -162 -82q-69 -83 -99 -234q-10 -53 -10 -102q0 -73 26 -127q4 -10 11 -20zM665 682q43 -24 69 -65q40 -64 40 -159
q0 -48 -11 -109q-32 -161 -131 -259q-101 -98 -263 -98q-67 0 -115 16l-31 -51h-49l-1 1l41 67q-43 24 -69 65q-41 67 -41 159q0 23 2.5 48t7.5 52q33 169 132 268q101 98 264 98q67 0 115 -16l31 51h51zM485 756q23 51 40 82t28 43l3 3q21 21 46 21q17 0 31 -12
q10 -7 13 -19q1 -4 1.5 -7t0.5 -7q0 -7 -1 -10q-3 -18 -17 -32q-24 -21 -126 -77z" />
    <glyph glyph-name="oslashacute" unicode="&#x1ff;" horiz-adv-x="569" 
d="M165 17q-82 40 -82 150q0 17 2 36.5t6 40.5q49 250 290 250q32 0 55 -4l72 126h50l-79 -137q102 -35 102 -158q0 -35 -9 -77q-48 -250 -288 -250q-42 0 -77 8l-75 -130h-49v1zM445 419l-208 -363q23 -14 58 -14q133 0 172 198l1 5q4 22 6 40.5t2 35.5q0 67 -31 98z
M206 88l201 352q-18 5 -37 5q-135 0 -172 -198l-2 -6q-4 -21 -5.5 -39.5t-1.5 -34.5q0 -48 17 -79zM332 524q46 102 67 125l3 3q21 21 46 21q17 0 31 -12q5 -4 8.5 -9t5.5 -10q1 -5 1 -14q0 -7 -1 -10q-3 -18 -17 -32q-22 -21 -126 -77z" />
    <glyph glyph-name="Scommaaccent" unicode="&#x218;" horiz-adv-x="557" 
d="M216 408q-52 45 -52 110q0 5 0.5 10.5t1.5 10.5q13 73 83 126q68 52 177 52q108 0 164 -62l-25 -132h-34q-5 82 -33 113t-76 31q-62 0 -96 -31q-36 -31 -45 -77v-7q0 -47 87 -99q47 -28 80.5 -51.5t54.5 -42.5q57 -53 57 -134q0 -8 -0.5 -16t-1.5 -16q-17 -89 -90 -144
q-74 -56 -199 -56q-146 0 -205 83l34 176h49q-1 -10 -1 -20v-18q0 -103 29 -135q33 -38 96 -38q74 0 114 31q42 31 55 98q1 5 1.5 9t0.5 9q0 71 -89 127q-51 31 -84.5 54t-52.5 39zM245 -147q-17 0 -29 13q-16 13 -16 34t16 36q14 14 36 14q23 0 37 -14q15 -15 15 -36v-3
q0 -44 -65 -111l-16 18q9 16 14.5 28.5t7.5 20.5z" />
    <glyph glyph-name="scommaaccent" unicode="&#x219;" horiz-adv-x="444" 
d="M435 458q25 -22 25 -51q0 -8 -1 -12q-2 -8 -4 -14q-17 -41 -53 -41h-1q-39 2 -42 28v7q0 9 1 13q3 14 14 29q2 2 4 7v1q0 8 -13 12q-21 8 -54 8q-68 -8 -83 -60v-6q0 -40 111 -83q97 -33 97 -118q0 -15 -3 -33q-2 -12 -6 -22q-39 -124 -218 -124h-13q-95 6 -120 48
q-12 19 -12 37q0 8 1 11q3 16 16 30q21 25 46 25q11 0 20 -4q24 -9 24 -33q0 -8 -1 -12l-2 -8t-2 -9l-3 -9q-1 -2 -1 -7q0 -26 46 -26h8q5 0 10 1q80 8 96 85q1 4 1 8v8q0 28 -22 50q-30 28 -74 45q-115 27 -115 98q0 10 1 15q12 63 71 102q57 39 133 39q80 -1 118 -35z
M185 -147q-17 0 -29 13q-16 13 -16 34t16 36q14 14 36 14q23 0 37 -14q15 -15 15 -36v-3q0 -44 -65 -111l-16 18q9 16 14.5 28.5t7.5 20.5z" />
    <glyph glyph-name="uni021A" unicode="&#x21a;" horiz-adv-x="562" 
d="M681 710l-37 -188h-45q2 15 3.5 28.5t1.5 24.5q0 81 -70 81h-74l-110 -566q-1 -5 -1 -13q0 -43 63 -44l-6 -33h-250l7 33q73 1 84 57l110 566h-74q-90 0 -116 -134h-46l37 188h523zM235 -147q-17 0 -29 13q-16 13 -16 34t16 36q14 14 36 14q23 0 37 -14q15 -15 15 -36v-3
q0 -44 -65 -111l-16 18q9 16 14.5 28.5t7.5 20.5z" />
    <glyph glyph-name="uni021B" unicode="&#x21b;" horiz-adv-x="302" 
d="M260 437l-61 -327q-1 -5 -1.5 -8.5t-0.5 -7.5q0 -25 18 -29q34 0 63 21l20 -29q-56 -59 -117 -59q-90 1 -90 75q0 12 3 29l64 335h-75l10 40q98 21 143 135h60l-26 -135h96l-10 -40h-96zM103 -147q-17 0 -29 13q-16 13 -16 34t16 36q14 14 36 14q23 0 37 -14
q15 -15 15 -36v-3q0 -44 -65 -111l-16 18q9 16 14.5 28.5t7.5 20.5z" />
    <glyph glyph-name="uni0232" unicode="&#x232;" horiz-adv-x="538" 
d="M381 301l-41 -211q-1 -5 -1 -13q0 -43 64 -44l-7 -33h-250l7 33q73 1 84 57l42 213l-112 316q-22 57 -50 58l7 33h213l-6 -33q-42 -2 -48 -33q-1 -3 -1 -9q0 -5 2 -15l81 -251l174 251q10 14 11 24q1 3 1 8q0 23 -36 25l6 33h170l-6 -33q-41 -2 -81 -58zM288 782l9 48
h272l-9 -48h-272z" />
    <glyph glyph-name="uni0233" unicode="&#x233;" horiz-adv-x="596" 
d="M169 396q1 4 1 7v7q0 18 -13 18q-17 0 -51 -22l7 33q53 49 115 49q48 0 48 -55q0 -18 -4 -37l-45 -232q-2 -10 -3 -19.5t-1 -17.5q0 -65 63 -65q68 0 143 77l66 338h103l-86 -444q-46 -241 -287 -243q-62 2 -99 31q-21 22 -21 50q0 3 0.5 6t1.5 7q2 10 4 15q17 41 54 41
h2q38 -2 41 -27v-7q0 -9 -1 -13q-3 -15 -15 -29q-4 -4 -4 -9v-2q0 -13 34 -20q147 0 201 232q-92 -66 -181 -66q-75 0 -105 40q-20 26 -20 70q0 22 6 51zM244 550l9 48h272l-9 -48h-272z" />
    <glyph glyph-name="uni0237" unicode="&#x237;" horiz-adv-x="229" 
d="M178 -24q-16 -88 -82 -137q-64 -49 -132 -49l8 41q79 27 102 143l82 422q2 10 2 14q0 18 -14 18q-16 0 -50 -22l6 33q55 49 115 49q48 0 48 -55q0 -18 -4 -37z" />
    <glyph glyph-name="uni02BB" unicode="&#x2bb;" horiz-adv-x="153" 
d="M84 586q17 0 29 -13q15 -14 15 -34q0 -21 -15 -36q-14 -14 -36 -14q-23 0 -37 14q-16 15 -16 36v3q0 64 65 131l17 -18q-17 -30 -22 -69z" />
    <glyph glyph-name="afii57929" unicode="&#x2bc;" horiz-adv-x="153" 
d="M69 576q-17 0 -29 12q-16 15 -16 35q0 22 16 35q13 15 36 15t37 -15q15 -14 15 -35v-3q0 -64 -65 -131l-16 18q17 30 22 69z" />
    <glyph glyph-name="circumflex" unicode="&#x2c6;" horiz-adv-x="372" 
d="M419 550q1 -1 1 -3t-1 -3q-2 -12 -19 -12q-6 0 -10 1l-89 57l-112 -57q-4 -1 -10 -1q-15 0 -15 10v2q1 2 1 3t1 3l151 125z" />
    <glyph glyph-name="caron" unicode="&#x2c7;" horiz-adv-x="372" 
d="M290 532l-103 125v6q1 12 20 12q6 0 10 -1l89 -57l111 57q4 1 11 1q15 0 15 -9q0 -2 -1 -3q0 -2 -2 -6z" />
    <glyph glyph-name="uni02C9" unicode="&#x2c9;" horiz-adv-x="301" 
d="M122 550l9 48h272l-9 -48h-272z" />
    <glyph glyph-name="uni02CA" unicode="&#x2ca;" horiz-adv-x="192" 
d="M24 524q27 100 44 125l2 3q18 21 42 21q17 0 34 -12q11 -8 16.5 -19.5t5.5 -23.5q0 -18 -11 -32q-19 -21 -111 -77z" />
    <glyph glyph-name="uni02CB" unicode="&#x2cb;" horiz-adv-x="192" 
d="M146 509q-92 56 -111 77q-11 14 -11 32q0 12 5.5 23.5t16.5 19.5q16 12 34 12q24 0 42 -21l2 -3q19 -23 44 -125z" />
    <glyph glyph-name="uni02CD" unicode="&#x2cd;" horiz-adv-x="321" 
d="M24 -120v48h272v-48h-272z" />
    <glyph glyph-name="breve" unicode="&#x2d8;" horiz-adv-x="334" 
d="M176 642q4 6 13 6q7 0 10 -4q-1 -3 -1 -9q0 -45 84 -45q93 0 104 54q4 4 11 4q9 0 11 -6q-24 -115 -138 -115q-97 0 -97 81q0 16 3 34z" />
    <glyph glyph-name="dotaccent" unicode="&#x2d9;" horiz-adv-x="203" 
d="M277 598q0 -24 -16.5 -40t-41.5 -16t-42 16t-17 40q0 23 16.5 40t42.5 17q25 0 41.5 -17t16.5 -40z" />
    <glyph glyph-name="ring" unicode="&#x2da;" horiz-adv-x="222" 
d="M175 584q-1 -3 -1 -11q0 -5 1 -8q6 -29 39 -29q21 0 37.5 13.5t21.5 34.5q1 3 1 9q0 14 -9 25q-12 15 -32 15q-21 0 -37 -15q-16 -13 -21 -34zM138 584q7 37 37 62q29 25 66 25q38 0 57 -25q15 -20 15 -44v-9q0 -4 -1 -9q-8 -36 -38 -62q-30 -24 -67 -24t-56 24
q-15 19 -15 44q0 5 0.5 9t1.5 9z" />
    <glyph glyph-name="ogonek" unicode="&#x2db;" horiz-adv-x="229" 
d="M157 0q-42 -31 -66 -58.5t-29 -54.5q-1 -4 -1.5 -7t-0.5 -6q0 -14 8 -24q11 -14 33 -14q38 0 64 32l12 -8q-24 -31 -53.5 -47.5t-61.5 -16.5q-26 0 -42.5 10t-21.5 27q-2 8 -2 14q0 7 1 10q8 39 44 77q19 20 42 36t50 30h24z" />
    <glyph glyph-name="tilde" unicode="&#x2dc;" horiz-adv-x="306" 
d="M209 586q-25 0 -34 -19q-12 -25 -22 -25q-4 0 -9 5q17 62 68 91q13 7 36 7q20 0 43 -29t34 -29q24 0 33 19q13 25 23 25q4 0 9 -5q-17 -63 -69 -91q-11 -7 -34 -7q-20 0 -43 29t-35 29z" />
    <glyph glyph-name="hungarumlaut" unicode="&#x2dd;" horiz-adv-x="395" 
d="M153 524q23 51 40 82t28 43l3 3q21 21 46 21q17 0 31 -12q10 -7 13 -19q1 -4 1.5 -7t0.5 -7q0 -7 -1 -10q-3 -18 -17 -32q-24 -21 -126 -77zM300 524q23 51 40 82t28 43l3 3q19 21 46 21q17 0 31 -12q10 -7 13 -19q1 -5 1 -14q0 -7 -1 -10q-3 -18 -17 -32
q-22 -21 -126 -77z" />
    <glyph glyph-name="uni02F7" unicode="&#x2f7;" horiz-adv-x="279" 
d="M82 -111q-26 0 -30 -19q-8 -26 -18 -26q-4 0 -10 6q5 63 51 91q10 7 34 7q20 0 49 -29t40 -29q25 0 29 19q7 25 18 25q5 0 10 -5q-5 -63 -51 -91q-10 -7 -33 -7q-20 0 -49 29t-40 29z" />
    <glyph glyph-name="gravecomb" unicode="&#x300;" horiz-adv-x="192" 
d="M146 509q-92 56 -111 77q-11 14 -11 32q0 12 5.5 23.5t16.5 19.5q16 12 34 12q24 0 42 -21l2 -3q19 -23 44 -125z" />
    <glyph glyph-name="acutecomb" unicode="&#x301;" horiz-adv-x="192" 
d="M24 524q27 100 44 125l2 3q18 21 42 21q17 0 34 -12q11 -8 16.5 -19.5t5.5 -23.5q0 -18 -11 -32q-19 -21 -111 -77z" />
    <glyph glyph-name="uni0302" unicode="&#x302;" horiz-adv-x="304" 
d="M279 550q1 -2 1 -6q0 -12 -17 -12q-7 0 -11 1l-100 57l-100 -57q-4 -1 -10 -1q-18 0 -18 12q0 4 1 6l127 125z" />
    <glyph glyph-name="tildecomb" unicode="&#x303;" horiz-adv-x="279" 
d="M82 586q-26 0 -30 -19q-7 -25 -18 -25q-3 0 -10 5q5 63 51 91q10 7 34 7q20 0 49 -29t40 -29q25 0 29 19q7 25 18 25q5 0 10 -5q-5 -63 -51 -91q-10 -7 -33 -7q-20 0 -49 29t-40 29z" />
    <glyph glyph-name="uni0304" unicode="&#x304;" horiz-adv-x="321" 
d="M24 599v48h272v-48h-272z" />
    <glyph glyph-name="uni0305" unicode="&#x305;" horiz-adv-x="327" 
d="M24 -139v50h278v-50h-278z" />
    <glyph glyph-name="uni0306" unicode="&#x306;" horiz-adv-x="280" 
d="M24 642q3 6 12 6q7 0 11 -4q1 -54 94 -54q92 0 92 54q4 4 11 4q9 0 12 -6q-1 -115 -115 -115q-117 0 -117 115z" />
    <glyph glyph-name="uni0307" unicode="&#x307;" horiz-adv-x="146" 
d="M122 588q0 -19 -14 -32.5t-35 -13.5q-20 0 -34.5 13.5t-14.5 32.5q0 20 14 34t35 14t35 -14t14 -34z" />
    <glyph glyph-name="uni0308" unicode="&#x308;" horiz-adv-x="289" 
d="M122 588q0 -19 -14 -32.5t-35 -13.5q-20 0 -34.5 13.5t-14.5 32.5q0 20 14 34t35 14t35 -14t14 -34zM264 588q0 -19 -13.5 -32.5t-35.5 -13.5q-21 0 -34.5 13.5t-13.5 32.5q0 20 13.5 34t34.5 14t35 -14t14 -34z" />
    <glyph glyph-name="uni0310" unicode="&#x310;" horiz-adv-x="280" 
d="M24 642q3 6 12 6q7 0 11 -4q1 -54 94 -54q92 0 92 54q4 4 11 4q9 0 12 -6q-1 -115 -115 -115q-117 0 -117 115zM189 695q0 -18 -13.5 -32.5t-34.5 -14.5q-22 0 -35.5 14.5t-13.5 32.5q0 20 14 34t35 14t34.5 -14t13.5 -34z" />
    <glyph glyph-name="uni0315" unicode="&#x315;" horiz-adv-x="153" 
d="M69 621q-17 0 -29 13q-16 13 -16 34q0 20 16 35q13 15 36 15t37 -15q15 -15 15 -35v-3q0 -64 -65 -131l-16 18q17 30 22 69z" />
    <glyph glyph-name="dotbelowcomb" unicode="&#x323;" horiz-adv-x="147" 
d="M123 -110q0 -20 -14 -34t-36 -14q-20 0 -34 14q-15 13 -15 34q0 19 15 33q14 14 34 14q22 0 36 -14t14 -33z" />
    <glyph glyph-name="uni0324" unicode="&#x324;" horiz-adv-x="289" 
d="M122 -111q0 -19 -14 -33t-35 -14q-20 0 -34.5 14t-14.5 33q0 20 14 34t35 14t35 -14t14 -34zM264 -111q0 -19 -13.5 -33t-35.5 -14q-21 0 -34.5 14t-13.5 33q0 20 13.5 34t34.5 14t35 -14t14 -34z" />
    <glyph glyph-name="uni0325" unicode="&#x325;" horiz-adv-x="222" 
d="M62 -124q0 -21 13.5 -34.5t34.5 -13.5q20 0 34.5 13.5t14.5 34.5q0 20 -14 34q-15 15 -35 15q-21 0 -34 -15q-14 -14 -14 -34zM24 -124q0 37 25 62t61 25t62 -26q26 -24 26 -61q0 -36 -26 -62q-26 -24 -62 -24t-61 24q-25 25 -25 62z" />
    <glyph glyph-name="uni0326" unicode="&#x326;" horiz-adv-x="153" 
d="M69 -147q-17 0 -29 13q-16 13 -16 34t16 36q14 14 36 14q23 0 37 -14q15 -15 15 -36v-3q0 -44 -65 -111l-16 18q9 16 14.5 28.5t7.5 20.5z" />
    <glyph glyph-name="tonos" unicode="&#x384;" horiz-adv-x="163" 
d="M133 545l15 80q8 43 15 56q8 16 22.5 25t30.5 11h4q9 0 17 -3q20 -7 27 -27q3 -8 3 -15q0 -3 -1 -5l-1 -4q-2 -9 -6 -16l-1 -4q-14 -26 -99 -106z" />
    <glyph glyph-name="dieresistonos" unicode="&#x385;" horiz-adv-x="409" 
d="M267 545l16 80q7 41 14 56q9 15 23 24.5t31 11.5h3q9 0 18 -3q21 -8 26 -27q1 -4 1.5 -7t0.5 -7v-6l-1 -4q-1 -7 -5 -16l-2 -4q-15 -27 -100 -106zM257 588q0 -19 -13.5 -32.5t-34.5 -13.5t-35 13.5t-14 32.5q0 20 14 34t35 14t34.5 -14t13.5 -34zM483 588
q0 -19 -14 -32.5t-35 -13.5t-34.5 13.5t-13.5 32.5q0 20 13.5 34t34.5 14t35 -14t14 -34z" />
    <glyph glyph-name="Alphatonos" unicode="&#x386;" horiz-adv-x="627" 
d="M182 545l15 80q8 43 15 56q8 16 22.5 25t31.5 11h3q9 0 17 -3q20 -7 27 -27q2 -10 2 -15v-5l-1 -4q-1 -7 -5 -16l-2 -4q-14 -26 -99 -106zM244 276h207l-43 310zM213 223l-54 -95q-10 -20 -13 -37q-2 -10 -2 -15q0 -42 60 -43l-7 -33h-207l7 33q32 2 79 80l342 597h65
l112 -597q16 -78 49 -80l-7 -33h-256l7 33q74 0 84 58q3 12 3 27q0 7 -1 10l-12 95h-249z" />
    <glyph glyph-name="anoteleia" unicode="&#x387;" horiz-adv-x="248" 
d="M169 525q0 -19 -14 -33t-35 -14t-35 14t-14 33q0 20 14 34t35 14t35 -14t14 -34z" />
    <glyph glyph-name="Epsilontonos" unicode="&#x388;" horiz-adv-x="727" 
d="M118 545l16 80q7 41 14 56q9 15 23 24.5t31 11.5h3q9 0 18 -3q21 -8 27 -27q2 -10 2 -15q0 -3 -1 -5l-1 -4l-2 -8t-3 -8l-2 -4q-13 -26 -99 -106zM390 340l-48 -245q-1 -5 -1 -12q0 -29 39 -29h144q136 0 162 134h46l-37 -188h-548l6 33q75 2 85 57l103 530q1 5 1 13
q0 43 -64 44l7 33h516l-36 -188h-46q4 19 4 39q0 95 -117 95h-155l-51 -262h163q56 0 67 54h38l-30 -157h-38q1 4 1 12q0 37 -48 37h-163z" />
    <glyph glyph-name="Etatonos" unicode="&#x389;" horiz-adv-x="827" 
d="M118 545l16 80q7 41 14 56q9 15 23 24.5t31 11.5h3q9 0 18 -3q21 -8 27 -27q2 -10 2 -15q0 -3 -1 -5l-1 -4l-2 -8t-3 -8l-2 -4q-13 -26 -99 -106zM389 337l-48 -247q-1 -4 -1.5 -7t-0.5 -6q0 -42 68 -44l-6 -33h-254l6 33q75 2 85 57l103 530q1 5 1 13q0 43 -64 44l7 33
h254l-7 -33q-78 -2 -88 -57l-45 -229h318l45 229q1 5 1 13q0 43 -64 44l7 33h250l-7 -33q-79 -2 -89 -57l-103 -530q-1 -4 -1.5 -7t-0.5 -6q0 -43 69 -44l-7 -33h-249l6 33q73 1 85 57l48 247h-318z" />
    <glyph glyph-name="Iotatonos" unicode="&#x38a;" horiz-adv-x="430" 
d="M123 545l16 80q4 21 7 35t7 21q9 15 23 24.5t31 11.5h3q9 0 18 -3q19 -8 26 -27q3 -8 3 -15q0 -3 -1 -5l-1 -4l-2 -8t-3 -8l-2 -4q-14 -26 -99 -106zM346 90q-1 -4 -1.5 -7t-0.5 -6q0 -42 68 -44l-6 -33h-254l6 33q73 1 85 57l103 530q1 5 1 13q0 43 -64 44l7 33h254
l-7 -33q-77 -1 -88 -57z" />
    <glyph glyph-name="Omicrontonos" unicode="&#x38c;" horiz-adv-x="762" 
d="M118 545l16 80q7 41 14 56q9 15 23 24.5t31 11.5h3q9 0 18 -3q21 -8 27 -27q1 -4 1 -13v-7l-1 -4l-2 -8t-3 -8l-2 -4q-13 -26 -99 -106zM791 349q-32 -161 -131 -259q-101 -98 -260 -98q-165 0 -227 98q-41 67 -41 159q0 23 2.5 48t7.5 52q33 169 132 268q101 98 258 98
q168 0 230 -98q40 -64 40 -159q0 -48 -11 -109zM409 36q96 0 165 82q69 84 97 231q5 29 8 55.5t3 50.5q0 73 -26 127q-41 84 -134 84q-92 0 -163 -83q-68 -82 -98 -234q-10 -53 -10 -101q0 -74 26 -128q40 -84 132 -84z" />
    <glyph glyph-name="Upsilontonos" unicode="&#x38e;" horiz-adv-x="714" 
d="M128 545l16 80q4 21 7 35t7 21q9 15 22.5 24.5t30.5 11.5h4q9 0 17 -3q20 -7 27 -27q3 -8 3 -15q0 -3 -1 -5l-1 -4q-2 -9 -6 -16l-1 -4q-14 -26 -99 -106zM553 301l-41 -211q-1 -4 -1.5 -7t-0.5 -7q0 -42 64 -43l-7 -33h-249l6 33q73 1 85 57l41 213l-112 316
q-22 56 -50 58l7 33h214l-7 -33q-42 -2 -48 -33q-1 -3 -1 -8q0 -9 3 -16l81 -251l173 251q10 14 11 24q1 3 1 8q0 23 -36 25l6 33h170l-7 -33q-40 -2 -80 -58z" />
    <glyph glyph-name="Omegatonos" unicode="&#x38f;" horiz-adv-x="826" 
d="M123 545l16 80q4 21 7 35t7 21q9 15 23 24.5t31 11.5h3q9 0 18 -3q19 -8 26 -27q1 -4 1.5 -7t0.5 -7v-6l-1 -4q-1 -7 -5 -16l-2 -4q-15 -27 -100 -106zM495 51q216 120 254 314q4 22 6 47q1 10 1.5 19t0.5 17q0 191 -187 194h-4q-199 0 -267 -224q-7 -20 -10 -43
q-7 -35 -7 -71q0 -148 136 -250l-10 -54h-268l-22 139h46q31 -85 119 -85h75q-191 92 -191 276q0 19 2 38.5t6 40.5q2 11 4.5 22.5t6.5 22.5q78 278 403 278q297 0 297 -233q0 -23 -3 -45q-1 -11 -3 -22.5t-4 -22.5q-46 -244 -320 -355h74q88 0 152 85h46l-76 -139h-267z
" />
    <glyph glyph-name="iotadieresistonos" unicode="&#x390;" horiz-adv-x="306" 
d="M232 90q-2 -10 -2 -14q0 -18 14 -18q15 0 50 23l-6 -34q-56 -48 -115 -48q-48 0 -48 55q0 19 4 36l59 306q2 10 2 14q0 18 -14 18q-16 0 -50 -22l6 33q55 49 115 49q48 0 48 -55q0 -18 -4 -37zM238 545l16 80q7 41 14 56q9 15 23 24.5t31 11.5h3q9 0 18 -3q21 -8 26 -27
q1 -4 1.5 -7t0.5 -7v-6l-1 -4q-1 -7 -5 -16l-2 -4q-15 -27 -100 -106zM228 588q0 -19 -13.5 -32.5t-34.5 -13.5t-35 13.5t-14 32.5q0 20 14 34t35 14t34.5 -14t13.5 -34zM454 588q0 -19 -14 -32.5t-35 -13.5t-34.5 13.5t-13.5 32.5q0 20 13.5 34t34.5 14t35 -14t14 -34z" />
    <glyph glyph-name="Alpha" unicode="&#x391;" horiz-adv-x="627" 
d="M244 276h207l-43 310zM213 223l-54 -95q-10 -20 -13 -37q-2 -10 -2 -15q0 -42 60 -43l-7 -33h-207l7 33q32 2 79 80l342 597h65l112 -597q16 -78 49 -80l-7 -33h-256l7 33q74 0 84 58q3 12 3 27q0 7 -1 10l-12 95h-249z" />
    <glyph glyph-name="Beta" unicode="&#x392;" horiz-adv-x="649" 
d="M415 402q111 9 134 128q4 17 4 35q0 99 -135 104h-63l-52 -267h112zM493 710q169 -1 169 -127q0 -11 -1.5 -22t-3.5 -23q-20 -105 -138 -156q134 -23 134 -139q0 -10 -1 -21t-3 -22q-39 -200 -274 -200h-326l6 33q73 1 85 57l103 530q1 5 1 13q0 43 -64 44l7 33h306z
M427 349h-134l-48 -246q-1 -5 -1 -14q0 -46 71 -46h22q166 1 196 151q2 14 3.5 26t1.5 23q0 101 -111 106z" />
    <glyph glyph-name="Gamma" unicode="&#x393;" horiz-adv-x="515" 
d="M233 115q-3 -14 -3 -26q0 -54 65 -56l-6 -33h-250l6 33q70 2 80 57l104 530q1 5 1 14q0 41 -60 43l7 33h476l-37 -188h-45q6 30 6 53q0 81 -71 81h-168z" />
    <glyph glyph-name="uni0394" unicode="&#x394;" 
d="M-15 0l308 713l309 -713h-617zM520 62l-213 513l-213 -513h426z" />
    <glyph glyph-name="Epsilon" unicode="&#x395;" horiz-adv-x="607" 
d="M267 340l-47 -245q-2 -10 -2 -12q0 -29 40 -29h144q135 0 161 134h46l-36 -188h-549l7 33q73 1 84 57l103 530q1 4 1.5 7t0.5 6q0 43 -64 44l7 33h516l-37 -188h-45q4 19 4 39q0 95 -118 95h-154l-51 -262h163q55 0 66 54h39l-30 -157h-39q1 4 1 12q0 37 -48 37h-163z
" />
    <glyph glyph-name="Zeta" unicode="&#x396;" horiz-adv-x="527" 
d="M139 54h222q112 0 146 178h45l-45 -232h-487l8 46l499 614h-194q-136 0 -161 -130h-46l36 184h482l-10 -54z" />
    <glyph glyph-name="Eta" unicode="&#x397;" horiz-adv-x="700" 
d="M256 337l-48 -247q-1 -5 -1 -13q0 -42 68 -44l-6 -33h-254l6 33q73 1 84 57l103 530q1 4 1.5 7t0.5 6q0 43 -64 44l7 33h254l-7 -33q-77 -1 -88 -57l-45 -229h318l44 229q1 4 1.5 7t0.5 6q0 43 -64 44l7 33h249l-7 -33q-77 -1 -88 -57l-103 -530q-1 -4 -1.5 -7t-0.5 -6
q0 -42 68 -44l-6 -33h-249l6 33q73 1 84 57l48 247h-318z" />
    <glyph glyph-name="Theta" unicode="&#x398;" horiz-adv-x="742" 
d="M763 349q-32 -161 -131 -259q-101 -98 -269 -98q-156 0 -218 98q-41 67 -41 159q0 23 2.5 48t7.5 52q33 169 132 268q101 98 258 98q168 0 230 -98q40 -64 40 -159q0 -48 -11 -109zM373 39q105 0 174 82q70 83 98 231q10 56 10 106q0 74 -26 126q-40 85 -134 85
q-93 0 -162 -83q-69 -81 -99 -234q-10 -53 -10 -101q0 -74 26 -128q42 -84 123 -84zM489 378q57 0 68 54h33l-30 -157h-34q1 4 1.5 7t0.5 6q0 36 -49 36h-90q-57 0 -67 -49h-33l31 157h33q-1 -5 -1 -15q0 -39 47 -39h90z" />
    <glyph glyph-name="Iota" unicode="&#x399;" horiz-adv-x="303" 
d="M218 90q-1 -5 -1 -13q0 -42 68 -44l-7 -33h-254l7 33q73 1 84 57l103 530q1 4 1.5 7t0.5 6q0 43 -64 44l7 33h254l-7 -33q-79 -2 -89 -57z" />
    <glyph glyph-name="Kappa" unicode="&#x39a;" horiz-adv-x="629" 
d="M274 305l309 324q2 5 4 8.5t3 7.5v3q0 21 -44 29l7 31h204l-7 -32q-62 -11 -113 -65l-202 -210l146 -313q23 -45 74 -56l-7 -32h-148l-155 304l-91 -102l-16 -87q-3 -14 -3 -26q0 -55 64 -56l-6 -33h-254l6 33q75 2 85 57l103 530q1 5 1 13q0 43 -64 44l7 33h254l-7 -33
q-78 -2 -88 -57z" />
    <glyph glyph-name="Lambda" unicode="&#x39b;" horiz-adv-x="680" 
d="M423 710h65l112 -598q16 -77 67 -79l-7 -33h-279l7 33q76 1 85 43q1 3 1 10q0 8 -1 12l-59 493l-251 -493q-8 -12 -9 -22q-1 -3 -1 -8q0 -34 70 -35l-6 -33h-197l6 33q31 1 79 79z" />
    <glyph glyph-name="Mu" unicode="&#x39c;" horiz-adv-x="855" 
d="M292 710l173 -578l366 578h133l-6 -33q-49 -1 -70 -106l-93 -481q-1 -5 -1.5 -9.5t-0.5 -9.5q0 -37 40 -38l-7 -33h-205l6 33q47 2 63 50l78 402l-316 -485h-68l-147 481l-76 -391q-1 -5 -1.5 -9.5t-0.5 -8.5q0 -38 40 -39l-7 -33h-163l7 33q48 1 60 57l93 481q6 31 6 53
q0 52 -34 53l6 33h125z" />
    <glyph glyph-name="Nu" unicode="&#x39d;" horiz-adv-x="688" 
d="M239 491l-78 -401q-1 -3 -1 -10q0 -45 92 -47l-6 -33h-217l7 33q48 1 60 57l93 481q6 31 6 53q0 52 -34 53l6 33h92l320 -511l82 421q1 3 1 10q0 46 -88 47l7 33h216l-7 -33q-54 -2 -64 -57l-121 -620h-40z" />
    <glyph glyph-name="Xi" unicode="&#x39e;" horiz-adv-x="548" 
d="M642 710l-12 -188h-46q-2 120 -91 120h-189q-91 0 -137 -120h-46l61 188h460zM442 383q57 0 68 54h33l-32 -166h-33q1 4 1 12q0 36 -49 36h-188q-56 0 -66 -48h-33l32 166h33q-1 -5 -1 -15q0 -39 48 -39h187zM44 0l12 188h46q1 -120 91 -120h188q91 0 139 120h45
l-61 -188h-460z" />
    <glyph glyph-name="Omicron" unicode="&#x39f;" horiz-adv-x="742" 
d="M764 351q-32 -162 -132 -259q-101 -99 -259 -99q-166 0 -227 99q-42 64 -42 158q0 23 3 48.5t8 52.5q31 168 132 267q100 99 257 99q169 0 231 -99q40 -64 40 -159q0 -47 -11 -108zM382 37q97 0 164 82q69 83 98 232q5 29 7.5 55t2.5 50q0 77 -25 127q-42 84 -134 84
q-94 0 -163 -82q-69 -83 -99 -234q-9 -56 -9 -101q0 -74 26 -128q40 -85 132 -85z" />
    <glyph glyph-name="Pi" unicode="&#x3a0;" horiz-adv-x="732" 
d="M323 654l-110 -564q-1 -5 -1 -13q0 -42 68 -44l-7 -33h-253l6 33q73 1 84 57l103 530q1 4 1.5 7t0.5 6q0 43 -64 44l7 33h693l-7 -33q-78 -2 -88 -57l-103 -530q-1 -4 -1.5 -7t-0.5 -6q0 -42 68 -44l-6 -33h-254l6 33q75 2 85 57l109 564h-336z" />
    <glyph glyph-name="Rho" unicode="&#x3a1;" horiz-adv-x="573" 
d="M267 316l-35 -177q-4 -20 -4 -39q0 -65 62 -67l-7 -33h-254l7 33q73 1 84 57l103 530q1 4 1.5 7t0.5 6q0 43 -64 44l6 33h238q258 -2 258 -154q0 -18 -5 -43q-37 -195 -330 -197h-61zM335 667l-51 -266q-1 -4 -1 -11q0 -32 42 -32h20q167 6 196 155q4 20 4 42
q0 107 -140 112h-70z" />
    <glyph glyph-name="Sigma" unicode="&#x3a3;" horiz-adv-x="587" 
d="M187 54h190q135 0 135 134h46v-188h-548v33q23 1 73 57l146 265l-146 265q-50 56 -73 57v33h516v-188h-46q0 134 -139 134h-154l146 -301z" />
    <glyph glyph-name="Tau" unicode="&#x3a4;" horiz-adv-x="562" 
d="M681 710l-37 -188h-45q2 15 3.5 28.5t1.5 24.5q0 81 -70 81h-74l-110 -566q-1 -5 -1 -13q0 -43 63 -44l-6 -33h-250l7 33q73 1 84 57l110 566h-74q-90 0 -116 -134h-46l37 188h523z" />
    <glyph glyph-name="Upsilon" unicode="&#x3a5;" horiz-adv-x="538" 
d="M381 301l-41 -211q-1 -5 -1 -13q0 -43 64 -44l-7 -33h-250l7 33q73 1 84 57l42 213l-112 316q-22 57 -50 58l7 33h213l-6 -33q-42 -2 -48 -33q-1 -3 -1 -9q0 -5 2 -15l81 -251l174 251q10 14 11 24q1 3 1 8q0 23 -36 25l6 33h170l-6 -33q-41 -2 -81 -58z" />
    <glyph glyph-name="Phi" unicode="&#x3a6;" horiz-adv-x="821" 
d="M492 151l-12 -61q-1 -5 -1 -13q0 -43 67 -44l-6 -33h-254l6 33q75 2 85 57l12 61q-313 0 -313 170q0 21 4 41q40 205 390 207l9 51q1 4 1.5 7t0.5 7q0 42 -64 43l7 33h254l-7 -33q-78 -2 -88 -57l-10 -51q312 -2 312 -167q0 -21 -4 -40q-40 -211 -389 -211zM397 193
l64 334q-233 -6 -264 -165q-2 -10 -3 -19.5t-1 -17.5q0 -128 204 -132zM500 193q232 4 264 169q4 17 4 35q0 124 -204 130z" />
    <glyph glyph-name="Chi" unicode="&#x3a7;" horiz-adv-x="610" 
d="M412 375l137 -284q33 -56 77 -58l-6 -33h-241l7 33q40 1 48 33q1 3 1 9q0 7 -3 15l-83 190l-162 -190q-8 -9 -9 -19q-1 -3 -1 -9q0 -28 45 -29l-6 -33h-226l7 33q70 2 125 58l210 243l-138 285q-27 56 -72 58l6 33h237l-7 -33q-42 -2 -48 -33q-1 -3 -1 -8q0 -9 3 -16
l83 -190l162 190q7 10 9 21q1 3 1 9q0 25 -33 27l7 33h217l-7 -33q-75 -2 -130 -58z" />
    <glyph glyph-name="Psi" unicode="&#x3a8;" horiz-adv-x="917" 
d="M510 90q0 -56 73 -57v-33h-250v33q74 2 74 57v61q-255 3 -294 266t-133 270v23h116q107 -2 138 -260q33 -258 173 -258v428q0 55 -74 57v33h254v-33q-77 -2 -77 -57v-428q140 0 170 258t141 260h116v-23q-94 -7 -133 -270t-294 -266v-61z" />
    <glyph glyph-name="uni03A9" unicode="&#x3a9;" horiz-adv-x="759" 
d="M428 51q216 120 254 314q4 22 6 47q1 10 1.5 19t0.5 17q0 191 -187 194h-4q-199 0 -267 -224q-3 -11 -5.5 -21.5t-4.5 -21.5q-7 -35 -7 -71q0 -148 136 -250l-10 -54h-268l-22 139h46q31 -85 119 -85h75q-191 92 -191 276q0 19 2 38.5t6 40.5q2 11 4.5 22.5t6.5 22.5
q78 278 403 278q297 0 297 -233q0 -23 -3 -45q-2 -23 -6 -45q-48 -244 -321 -355h74q88 0 152 85h46l-75 -139h-268z" />
    <glyph glyph-name="Iotadieresis" unicode="&#x3aa;" horiz-adv-x="303" 
d="M218 90q-1 -5 -1 -13q0 -42 68 -44l-7 -33h-254l7 33q73 1 84 57l103 530q1 4 1.5 7t0.5 6q0 43 -64 44l7 33h254l-7 -33q-79 -2 -89 -57zM289 822q-4 -20 -20.5 -33.5t-37.5 -13.5q-33 0 -39 29q-2 6 -2 9q0 6 1 9q4 19 21 33t38 14t32 -14q8 -11 8 -23q0 -7 -1 -10z
M431 822q-4 -20 -20 -33.5t-38 -13.5q-33 0 -39 29q-1 3 -1 9t1 9q4 19 20.5 33t37.5 14t32 -14q8 -11 8 -23q0 -7 -1 -10z" />
    <glyph glyph-name="Upsilondieresis" unicode="&#x3ab;" horiz-adv-x="538" 
d="M381 301l-41 -211q-1 -5 -1 -13q0 -43 64 -44l-7 -33h-250l7 33q73 1 84 57l42 213l-112 316q-22 57 -50 58l7 33h213l-6 -33q-42 -2 -48 -33q-1 -3 -1 -9q0 -5 2 -15l81 -251l174 251q10 14 11 24q1 3 1 8q0 23 -36 25l6 33h170l-6 -33q-41 -2 -81 -58zM407 822
q-4 -20 -20.5 -33.5t-37.5 -13.5q-33 0 -39 29q-1 3 -1 8q0 7 1 10q3 19 19.5 33t37.5 14t32 -14q9 -11 9 -24q0 -6 -1 -9zM549 822q-4 -20 -20 -33.5t-38 -13.5q-33 0 -39 29q-1 3 -1 8q0 7 1 10q4 19 20 33t37 14t33 -14q8 -11 8 -24q0 -6 -1 -9z" />
    <glyph glyph-name="alphatonos" unicode="&#x3ac;" horiz-adv-x="623" 
d="M375 448q-140 0 -177 -198l-2 -7q-7 -38 -7 -73q0 -125 111 -125q138 0 177 198l1 4q4 21 5.5 39.5t1.5 35.5q0 126 -110 126zM455 52q-74 -56 -166 -56q-206 0 -206 174q0 33 8 76q49 250 295 250q107 0 158 -48l9 29h103l-95 -236q-5 -35 -7.5 -63t-2.5 -49
q0 -66 25 -66q13 0 33 18l-6 -34q-45 -48 -90 -48q-47 0 -58 53zM404 545l15 80q8 43 15 56q8 16 22.5 25t30.5 11h4q9 0 17 -3q20 -7 27 -27q3 -8 3 -15q0 -3 -1 -5l-1 -4q-2 -9 -6 -16l-1 -4q-14 -26 -99 -106z" />
    <glyph glyph-name="epsilontonos" unicode="&#x3ad;" horiz-adv-x="429" 
d="M381 352q3 16 3 29q0 56 -55 56q-33 0 -58 -25q-16 -16 -22 -51q-1 -5 -1.5 -9t-0.5 -9q0 -59 86 -64l-10 -47q-143 -2 -161 -91q-1 -7 -1.5 -13.5t-0.5 -11.5q0 -69 91 -70q91 3 117 114h52l-22 -116q-56 -44 -166 -47q-172 3 -172 118q0 17 3 37q18 88 106 113
q-36 13 -36 62q0 17 4 33q9 51 53 83q52 39 123 39q96 0 135 -56l-14 -74h-53zM299 545l15 80q8 43 15 56q8 16 22.5 25t30.5 11h4q9 0 17 -3q20 -7 27 -27q3 -8 3 -15q0 -3 -1 -5l-1 -4q-2 -9 -6 -16l-1 -4q-14 -26 -99 -106z" />
    <glyph glyph-name="etatonos" unicode="&#x3ae;" horiz-adv-x="578" 
d="M272 417l2 1q79 75 175 75q74 0 105 -40q19 -25 19 -70q0 -11 -1.5 -23.5t-3.5 -26.5l-106 -543h-102l105 538q4 17 4 36q0 66 -65 66q-68 0 -142 -77l-69 -353h-103l77 396q1 4 1 7v7q0 18 -14 18q-16 0 -50 -22l7 33q53 49 114 49q48 0 48 -56q0 -10 -1 -15zM351 545
l15 80q8 43 15 56q8 16 22.5 25t30.5 11h4q9 0 17 -3q20 -7 27 -27q3 -8 3 -15q0 -3 -1 -5l-1 -4q-2 -9 -6 -16l-1 -4q-14 -26 -99 -106z" />
    <glyph glyph-name="iotatonos" unicode="&#x3af;" horiz-adv-x="306" 
d="M232 90q-2 -10 -2 -14q0 -18 14 -18q15 0 50 23l-6 -34q-56 -48 -115 -48q-48 0 -48 55q0 19 4 36l59 306q2 10 2 14q0 18 -14 18q-16 0 -50 -22l6 33q55 49 115 49q48 0 48 -55q0 -18 -4 -37zM247 545l15 80q8 43 15 56q8 16 22.5 25t30.5 11h4q9 0 17 -3q20 -7 27 -27
q3 -8 3 -15q0 -3 -1 -5l-1 -4q-2 -9 -6 -16l-1 -4q-14 -26 -99 -106z" />
    <glyph glyph-name="upsilondieresistonos" unicode="&#x3b0;" horiz-adv-x="545" 
d="M224 187q-6 -27 -6 -48q0 -81 77 -81q87 1 139 85q23 37 31 76q4 17 4 39q0 33 -10 63q-25 60 -25 96q0 5 2 15q11 55 65 55q31 0 46 -27q19 -29 19 -87q0 -14 -1.5 -30.5t-3.5 -34.5q-1 -5 -2 -10.5t-2 -10.5q-23 -114 -100 -197q-85 -91 -213 -91q-130 0 -130 124
q0 8 0.5 17.5t1.5 19.5h-1l46 236q2 10 2 14q0 18 -14 18q-16 0 -50 -22l6 33q53 49 114 49q49 0 49 -56q0 -19 -4 -36zM333 545l16 80q7 41 14 56q9 15 23 24.5t31 11.5h3q9 0 18 -3q21 -8 26 -27q1 -4 1.5 -7t0.5 -7v-6l-1 -4q-1 -7 -5 -16l-2 -4q-15 -27 -100 -106z
M323 588q0 -19 -13.5 -32.5t-34.5 -13.5t-35 13.5t-14 32.5q0 20 14 34t35 14t34.5 -14t13.5 -34zM549 588q0 -19 -14 -32.5t-35 -13.5t-34.5 13.5t-13.5 32.5q0 20 13.5 34t34.5 14t35 -14t14 -34z" />
    <glyph glyph-name="alpha" unicode="&#x3b1;" horiz-adv-x="623" 
d="M375 448q-140 0 -177 -198l-2 -7q-7 -38 -7 -73q0 -125 111 -125q138 0 177 198l1 4q4 21 5.5 39.5t1.5 35.5q0 126 -110 126zM455 52q-74 -56 -166 -56q-206 0 -206 174q0 33 8 76q49 250 295 250q107 0 158 -48l9 29h103l-95 -236q-5 -35 -7.5 -63t-2.5 -49
q0 -66 25 -66q13 0 33 18l-6 -34q-45 -48 -90 -48q-47 0 -58 53z" />
    <glyph glyph-name="beta" unicode="&#x3b2;" horiz-adv-x="512" 
d="M156 22l-45 -232h-103l144 744q36 186 228 188q148 0 148 -119v-11q0 -6 -1 -11q-21 -106 -136 -161q131 -36 131 -165q0 -28 -6 -61q-37 -192 -251 -197q-68 2 -109 25zM164 62q48 -22 101 -24q120 3 147 140q6 31 6 60q0 140 -167 142l9 43q143 36 166 141q6 25 6 47
q0 68 -59 68q-93 -12 -118 -148z" />
    <glyph glyph-name="gamma" unicode="&#x3b3;" horiz-adv-x="596" 
d="M169 396q1 4 1 7v7q0 18 -13 18q-17 0 -51 -22l7 33q53 49 115 49q47 0 47 -55q0 -18 -4 -37l-5 -32l-39 -203q-2 -10 -3 -19.5t-1 -17.5q0 -65 63 -65q68 0 143 77l66 341h103l-58 -304l-2 -2l-28 -138q-48 -242 -285 -243q-62 2 -99 31q-21 22 -21 50q0 3 0.5 6t1.5 7
q2 10 4 15q17 41 54 41h2q38 -2 41 -27v-7q0 -9 -1 -13q-3 -15 -15 -29q-4 -4 -4 -9v-2q0 -13 34 -20q147 0 195 202l6 27q-92 -66 -181 -66q-75 0 -105 40q-20 26 -20 70q0 22 6 51z" />
    <glyph glyph-name="delta" unicode="&#x3b4;" horiz-adv-x="579" 
d="M197 113q21 -68 103 -68q138 0 177 198l1 4q4 21 5.5 39.5t1.5 35.5q0 109 -83 123q-12 3 -27 3q-140 0 -177 -198l-2 -7q-7 -38 -7 -72q0 -31 8 -58zM303 487q2 1 4 1t4 1q-77 41 -77 104v9q0 4 1 9q22 117 216 119q96 -3 140 -50q25 -28 25 -68q0 -14 -3 -29
q-3 -20 -10 -36q-16 -31 -44 -31q-6 0 -16 2q-26 11 -26 35q0 6 1 9q3 15 12 31q21 15 26 35q-2 66 -113 66q-91 0 -104 -67l-1 -4q-1 -5 -1.5 -10t-0.5 -10q0 -59 74 -103q7 -2 13.5 -3.5t13.5 -3.5q153 -20 153 -171q0 -33 -8 -76q-48 -250 -293 -250q-169 0 -199 117
q-7 24 -7 58q0 32 8 75q40 204 212 241z" />
    <glyph glyph-name="epsilon" unicode="&#x3b5;" horiz-adv-x="429" 
d="M381 352q3 16 3 29q0 56 -55 56q-33 0 -58 -25q-16 -16 -22 -51q-1 -5 -1.5 -9t-0.5 -9q0 -59 86 -64l-10 -47q-143 -2 -161 -91q-1 -7 -1.5 -13.5t-0.5 -11.5q0 -69 91 -70q91 3 117 114h52l-22 -116q-56 -44 -166 -47q-172 3 -172 118q0 17 3 37q18 88 106 113
q-36 13 -36 62q0 17 4 33q9 51 53 83q52 39 123 39q96 0 135 -56l-14 -74h-53z" />
    <glyph glyph-name="zeta" unicode="&#x3b6;" horiz-adv-x="437" 
d="M548 657q-317 -230 -354 -423q-5 -28 -5 -50q0 -115 120 -142q129 -29 129 -106v-8q0 -4 -1 -9q-26 -128 -194 -129q-125 3 -125 79q0 5 0.5 10t1.5 10q2 8 4.5 17t5.5 19q16 31 45 31q5 0 15 -2q26 -11 26 -35q0 -7 -1 -10q-2 -14 -12 -30q-1 -4 -1 -12q0 -41 64 -41
q62 0 73 62q1 5 1.5 9.5t0.5 9.5q0 77 -135 110q-123 28 -123 154q0 15 1.5 31.5t5.5 33.5q44 224 382 420h-260l11 54h335z" />
    <glyph glyph-name="eta" unicode="&#x3b7;" horiz-adv-x="578" 
d="M272 417l2 1q79 75 175 75q74 0 105 -40q19 -25 19 -70q0 -11 -1.5 -23.5t-3.5 -26.5l-106 -543h-102l105 538q4 17 4 36q0 66 -65 66q-68 0 -142 -77l-69 -353h-103l77 396q1 4 1 7v7q0 18 -14 18q-16 0 -50 -22l7 33q53 49 114 49q48 0 48 -56q0 -10 -1 -15z" />
    <glyph glyph-name="theta" unicode="&#x3b8;" horiz-adv-x="543" 
d="M573 355q-70 -361 -305 -362q-177 0 -177 213q0 32 4.5 69t12.5 80q70 361 300 361q181 0 181 -214q0 -67 -16 -147zM478 328h-286q-14 -82 -14 -138q0 -153 98 -153q140 0 202 291zM487 377q14 82 14 139q0 156 -102 156q-134 0 -197 -295h285z" />
    <glyph glyph-name="iota" unicode="&#x3b9;" horiz-adv-x="306" 
d="M232 90q-2 -10 -2 -14q0 -18 14 -18q15 0 50 23l-6 -34q-56 -48 -115 -48q-48 0 -48 55q0 19 4 36l59 306q2 10 2 14q0 18 -14 18q-16 0 -50 -22l6 33q55 49 115 49q48 0 48 -55q0 -18 -4 -37z" />
    <glyph glyph-name="kappa" unicode="&#x3ba;" horiz-adv-x="604" 
d="M255 260q22 10 52.5 40.5t68.5 84.5q78 106 205 106q49 0 72 -29q9 -14 9 -31v-8q0 -4 -1 -8q-12 -54 -67 -54q-42 0 -42 32q0 7 1 11q5 23 35 37q10 4 10 6q-1 7 -20 7h-10q-28 -1 -102 -97q-74 -95 -112 -106q73 -13 114 -113q41 -98 109 -103l-7 -35h-97
q-91 0 -124 106q-31 106 -77 106q-17 0 -26 -4l-23 -118q-2 -10 -2 -15q0 -41 55 -42l-6 -33h-228l7 33q61 2 71 57l58 300v6q0 41 -68 43l7 40q25 0 48 0.5t45 1.5q43 3 90 9z" />
    <glyph glyph-name="lambda" unicode="&#x3bb;" horiz-adv-x="534" 
d="M420 405l62 -260q28 -110 68 -112l-6 -33h-164l6 33q41 2 47 32q1 3 1 12q0 5 -0.5 10.5t-1.5 12.5l-59 233l-116 -202q-18 -34 -22 -56q-1 -5 -1 -13q0 -29 32 -29l-7 -33h-225l7 33q49 0 124 112l181 309q-13 83 -57 127q-17 15 -29 15q-10 0 -19 -11q-19 -22 -58 -22
h-3q-40 1 -40 55v2q16 62 81 67q140 -3 199 -282z" />
    <glyph glyph-name="uni03BC" unicode="&#x3bc;" horiz-adv-x="575" 
d="M505 89q-1 -4 -1.5 -7t-0.5 -6q0 -18 15 -18t50 23l-7 -34q-54 -48 -114 -48q-49 0 -49 54v4q-83 -74 -177 -74q-24 0 -46 5l-21 -108q-2 -10 -2 -15q0 -41 55 -42l-6 -33h-227l6 33q61 2 71 57l100 516q1 4 1 7v7q0 18 -13 18q-17 0 -51 -22l7 33q53 49 114 49
q48 0 48 -55q0 -18 -4 -37l-3 -21l-47 -242q-1 -5 -1 -11v-10q0 -66 64 -66q68 0 143 78l68 353h103z" />
    <glyph glyph-name="nu" unicode="&#x3bd;" horiz-adv-x="545" 
d="M224 187q-6 -27 -6 -48q0 -81 77 -81q87 1 139 85q23 37 31 76q4 17 4 39q0 33 -10 63q-25 60 -25 96q0 5 2 15q11 55 65 55q31 0 46 -27q19 -29 19 -87q0 -14 -1.5 -30.5t-3.5 -34.5q-1 -5 -2 -10.5t-2 -10.5q-23 -114 -100 -197q-85 -91 -213 -91q-130 0 -130 124
q0 8 0.5 17.5t1.5 19.5h-1l46 236q2 10 2 14q0 18 -14 18q-16 0 -50 -22l6 33q53 49 114 49q49 0 49 -56q0 -19 -4 -36z" />
    <glyph glyph-name="xi" unicode="&#x3be;" horiz-adv-x="457" 
d="M506 433h-1v-1h-100q-170 -8 -198 -159q-3 -18 -3 -35q0 -103 122 -154q130 -54 130 -133q0 -7 -2 -17q-29 -143 -221 -144q-125 3 -125 79q0 5 0.5 10t1.5 10q3 14 11 36q16 31 44 31q5 0 15 -2q27 -11 27 -35q0 -7 -1 -10q-3 -15 -13 -30q-1 -4 -1 -12q0 -41 64 -41
q86 0 101 77q1 5 1.5 9t0.5 9q0 80 -143 137q-133 52 -133 171q0 23 4 46q26 129 148 176q-68 27 -68 90q0 6 0.5 12.5t1.5 13.5q29 143 233 143h157l-9 -49h-129q-138 0 -155 -89q-1 -5 -1.5 -9.5t-0.5 -9.5q0 -71 118 -72h133z" />
    <glyph glyph-name="omicron" unicode="&#x3bf;" horiz-adv-x="569" 
d="M370 445q-133 0 -172 -195q-4 -23 -6 -43t-2 -37q0 -123 105 -123q133 0 172 200q4 22 6 41t2 36q0 121 -105 121zM381 493q199 0 199 -170q0 -17 -2 -36.5t-6 -40.5q-49 -247 -288 -247q-201 0 -201 170q0 35 9 77q49 247 289 247z" />
    <glyph glyph-name="pi" unicode="&#x3c0;" horiz-adv-x="632" 
d="M361 423q-3 -30 -9 -62q-10 -50 -26 -98.5t-39 -97.5q-65 -134 -119 -167q-22 -14 -42 -14q-4 0 -8 0.5t-9 1.5q-25 7 -31 24q-2 8 -2 12q0 7 1 11q1 5 3 10l4 10q17 37 66 77q49 42 99 137q24 45 33 89q4 23 4 49v18h-39q-90 0 -103 -66h-45q22 120 105 120h491l-10 -54
h-139l-65 -334q-1 -4 -1.5 -7t-0.5 -6q0 -18 15 -18t50 23l-6 -34q-56 -48 -115 -48q-49 0 -49 55q0 8 1 16.5t3 18.5l65 334h-82z" />
    <glyph glyph-name="rho" unicode="&#x3c1;" horiz-adv-x="568" 
d="M369 448q-140 0 -177 -198l-2 -7q-7 -38 -7 -73q0 -125 111 -125q138 0 177 198l1 4q4 21 5.5 39.5t1.5 35.5q0 126 -110 126zM380 496q204 0 204 -174q0 -33 -8 -76q-48 -250 -293 -250q-87 0 -137 31l-45 -237h-103l95 486q57 220 287 220z" />
    <glyph glyph-name="sigma1" unicode="&#x3c2;" horiz-adv-x="482" 
d="M529 428h-109q-188 0 -217 -155q-4 -16 -4 -35q0 -103 123 -154q129 -54 129 -133v-9q0 -4 -1 -8q-29 -143 -221 -144q-125 3 -125 79q0 5 0.5 10t1.5 10q3 19 10 36q16 31 45 31q5 0 15 -2q26 -11 26 -35q0 -7 -1 -10q-3 -14 -12 -30q-1 -4 -1 -12q0 -41 64 -41
q86 0 101 77q1 5 1 10v9q0 79 -135 136q-126 52 -126 169q0 20 5 48q39 202 304 202h137z" />
    <glyph glyph-name="sigma" unicode="&#x3c3;" horiz-adv-x="607" 
d="M375 448q-140 0 -177 -198l-2 -7q-7 -38 -7 -73q0 -125 111 -125q138 0 177 198l1 4q4 21 5.5 39.5t1.5 35.5q0 126 -110 126zM563 427q27 -42 27 -106q0 -32 -8 -75q-48 -250 -293 -250q-206 0 -206 174q0 33 8 76q49 250 295 250q72 0 117 -19h167l-10 -50h-97z" />
    <glyph glyph-name="tau" unicode="&#x3c4;" horiz-adv-x="510" 
d="M295 423h-38q-90 0 -103 -66h-46q24 120 105 120h346l-11 -54h-150l-65 -334q-1 -5 -1 -13q0 -18 14 -18q15 0 50 23l-6 -34q-56 -48 -115 -48q-49 0 -49 55q0 8 1 16.5t3 18.5z" />
    <glyph glyph-name="upsilon" unicode="&#x3c5;" horiz-adv-x="545" 
d="M224 187q-6 -27 -6 -48q0 -81 77 -81q87 1 139 85q23 37 31 76q4 17 4 39q0 33 -10 63q-25 60 -25 96q0 5 2 15q11 55 65 55q31 0 46 -27q19 -29 19 -87q0 -14 -1.5 -30.5t-3.5 -34.5q-1 -5 -2 -10.5t-2 -10.5q-23 -114 -100 -197q-85 -91 -213 -91q-130 0 -130 124
q0 8 0.5 17.5t1.5 19.5h-1l46 236q2 10 2 14q0 18 -14 18q-16 0 -50 -22l6 33q53 49 114 49q49 0 49 -56q0 -19 -4 -36z" />
    <glyph glyph-name="phi" unicode="&#x3c6;" horiz-adv-x="667" 
d="M364 444q10 46 62 46q150 0 206 -83q39 -59 39 -134q0 -29 -6 -62q-23 -113 -107 -193q-72 -69 -189 -79l-29 -149h-103l30 150q-107 13 -151 78q-37 56 -37 130q0 31 6 63q23 114 106 196q43 42 100 62l-6 -31q-54 -33 -92 -227q-4 -20 -5.5 -38t-1.5 -35q0 -53 16 -92
q20 -47 73 -62zM496 437q-3 1 -7 1q-23 0 -33 -52l-79 -404q66 14 108 64q52 62 71 165q7 35 7 70q0 53 -18 97q-21 52 -49 59z" />
    <glyph glyph-name="chi" unicode="&#x3c7;" horiz-adv-x="605" 
d="M379 157l120 -276q31 -56 76 -58l-6 -33h-231l7 33q40 1 48 33q1 3 1 9q0 7 -3 15l-83 191l-162 -191q-8 -9 -9 -19q-1 -3 -1 -9q0 -28 45 -29l-6 -33h-226l7 33q70 2 125 58l198 235l-121 270q-36 57 -72 57l6 34h227l-7 -34q-40 0 -48 -32v-9q0 -4 0.5 -7.5t1.5 -8.5
l84 -185l161 185q9 14 10 21v10q0 24 -33 26l7 34h217l-6 -34q-75 0 -130 -57z" />
    <glyph glyph-name="psi" unicode="&#x3c8;" horiz-adv-x="710" 
d="M342 61l81 416h102l-81 -415q111 13 155 81q23 38 30 76q4 17 4 39q0 31 -9 63q-21 73 -21 113q0 13 1 18q10 54 65 54q31 0 46 -26q17 -29 17 -85q0 -19 -1.5 -40.5t-5.5 -46.5l-3 -21q-23 -114 -101 -197q-63 -67 -187 -85l-42 -215h-103l41 209q-197 2 -197 140
q0 20 5 48l39 201q1 2 1 7q0 40 -69 42l8 40q25 0 48 0.5t45 1.5q43 3 90 9l-59 -301q-3 -17 -3 -31q0 -81 104 -95z" />
    <glyph glyph-name="omega" unicode="&#x3c9;" horiz-adv-x="760" 
d="M421 383h58l-47 -237q-1 -7 -1.5 -13t-0.5 -11q0 -77 100 -77q90 0 128 198l1 4q10 56 10 100q0 89 -47 104l6 29q141 -14 141 -168q0 -20 -2.5 -43t-7.5 -48q-44 -225 -240 -225q-95 0 -133 59q-62 -59 -156 -59q-161 0 -161 150q0 32 8 75q46 239 232 259l-6 -29
q-79 -19 -115 -201l-1 -7q-11 -58 -11 -96q0 -102 65 -102q115 0 134 100z" />
    <glyph glyph-name="iotadieresis" unicode="&#x3ca;" horiz-adv-x="306" 
d="M232 90q-2 -10 -2 -14q0 -18 14 -18q15 0 50 23l-6 -34q-56 -48 -115 -48q-48 0 -48 55q0 19 4 36l59 306q2 10 2 14q0 18 -14 18q-16 0 -50 -22l6 33q55 49 115 49q48 0 48 -55q0 -18 -4 -37zM261 588q0 -19 -13.5 -32.5t-34.5 -13.5t-35 13.5t-14 32.5q0 20 14 34
t35 14t34.5 -14t13.5 -34zM404 588q0 -19 -14.5 -32.5t-34.5 -13.5q-21 0 -34.5 13.5t-13.5 32.5q0 20 13.5 34t34.5 14t35 -14t14 -34z" />
    <glyph glyph-name="upsilondieresis" unicode="&#x3cb;" horiz-adv-x="545" 
d="M224 187q-6 -27 -6 -48q0 -81 77 -81q87 1 139 85q23 37 31 76q4 17 4 39q0 33 -10 63q-25 60 -25 96q0 5 2 15q11 55 65 55q31 0 46 -27q19 -29 19 -87q0 -14 -1.5 -30.5t-3.5 -34.5q-1 -5 -2 -10.5t-2 -10.5q-23 -114 -100 -197q-85 -91 -213 -91q-130 0 -130 124
q0 8 0.5 17.5t1.5 19.5h-1l46 236q2 10 2 14q0 18 -14 18q-16 0 -50 -22l6 33q53 49 114 49q49 0 49 -56q0 -19 -4 -36zM356 588q0 -19 -13.5 -32.5t-34.5 -13.5t-35 13.5t-14 32.5q0 20 14 34t35 14t34.5 -14t13.5 -34zM499 588q0 -19 -14.5 -32.5t-34.5 -13.5
q-21 0 -34.5 13.5t-13.5 32.5q0 20 13.5 34t34.5 14t35 -14t14 -34z" />
    <glyph glyph-name="omicrontonos" unicode="&#x3cc;" horiz-adv-x="569" 
d="M283 448q-133 0 -133 -198q3 -205 137 -205q132 0 132 202q-2 201 -136 201zM285 496q239 0 239 -250t-239 -250q-241 0 -241 250t241 250zM248 545v80q0 44 4 56q5 16 18 25t28 11h4q9 0 18 -3q34 -12 37 -47v-4q0 -6 -2 -16l-1 -4q-9 -27 -79 -106z" />
    <glyph glyph-name="upsilontonos" unicode="&#x3cd;" horiz-adv-x="545" 
d="M224 187q-6 -27 -6 -48q0 -81 77 -81q87 1 139 85q23 37 31 76q4 17 4 39q0 33 -10 63q-25 60 -25 96q0 5 2 15q11 55 65 55q31 0 46 -27q19 -29 19 -87q0 -14 -1.5 -30.5t-3.5 -34.5q-1 -5 -2 -10.5t-2 -10.5q-23 -114 -100 -197q-85 -91 -213 -91q-130 0 -130 124
q0 8 0.5 17.5t1.5 19.5h-1l46 236q2 10 2 14q0 18 -14 18q-16 0 -50 -22l6 33q53 49 114 49q49 0 49 -56q0 -19 -4 -36zM343 545l15 80q8 43 15 56q8 16 22.5 25t30.5 11h4q9 0 17 -3q20 -7 27 -27q3 -8 3 -15q0 -3 -1 -5l-1 -4q-2 -9 -6 -16l-1 -4q-14 -26 -99 -106z" />
    <glyph glyph-name="omegatonos" unicode="&#x3ce;" horiz-adv-x="760" 
d="M421 383h58l-47 -237q-1 -7 -1.5 -13t-0.5 -11q0 -77 100 -77q90 0 128 198l1 4q10 56 10 100q0 89 -47 104l6 29q141 -14 141 -168q0 -20 -2.5 -43t-7.5 -48q-44 -225 -240 -225q-95 0 -133 59q-62 -59 -156 -59q-161 0 -161 150q0 32 8 75q46 239 232 259l-6 -29
q-79 -19 -115 -201l-1 -7q-11 -58 -11 -96q0 -102 65 -102q115 0 134 100zM460 545l15 80q8 43 15 56q8 16 22.5 25t30.5 11h4q9 0 17 -3q20 -7 27 -27q3 -8 3 -15q0 -3 -1 -5l-1 -4q-2 -9 -6 -16l-1 -4q-14 -26 -99 -106z" />
    <glyph glyph-name="uni03DC" unicode="&#x3dc;" horiz-adv-x="515" 
d="M267 340l-43 -225q-3 -14 -3 -26q0 -55 64 -56l-6 -33h-250l7 33q68 2 80 57l103 530q1 5 1 14q0 41 -59 43l6 33h476l-37 -188h-45q6 30 6 53q0 81 -70 81h-168l-51 -262h154q55 0 67 54h39l-31 -157h-39q1 4 1 12q0 37 -48 37h-154z" />
    <glyph glyph-name="uni03F2" unicode="&#x3f2;" horiz-adv-x="486" 
d="M261 -1q-178 1 -178 173q0 18 1.5 37.5t5.5 40.5q53 242 287 243q73 -2 109 -32q34 -28 34 -72v-8q0 -4 -1 -9q-11 -50 -63 -54q-48 4 -48 46v8q0 4 1 8l3 9t4 14q2 6 4 14q1 2 1 7q0 26 -41 26q-133 -1 -175 -199q-8 -43 -8 -73q0 -120 107 -122q86 0 151 96l24 -19
q-77 -134 -218 -134z" />
    <glyph glyph-name="afii10023" unicode="&#x401;" horiz-adv-x="607" 
d="M267 340l-47 -245q-2 -10 -2 -12q0 -29 40 -29h144q135 0 161 134h46l-36 -188h-549l7 33q73 1 84 57l103 530q1 4 1.5 7t0.5 6q0 43 -64 44l7 33h516l-37 -188h-45q4 19 4 39q0 95 -118 95h-154l-51 -262h163q55 0 66 54h39l-30 -157h-39q1 4 1 12q0 37 -48 37h-163z
M444 820q0 -19 -13.5 -32.5t-34.5 -13.5t-35 13.5t-14 32.5q0 20 14 34t35 14t34.5 -14t13.5 -34zM587 820q0 -19 -14.5 -32.5t-34.5 -13.5q-21 0 -34.5 13.5t-13.5 32.5q0 20 13.5 34t34.5 14t35 -14t14 -34z" />
    <glyph glyph-name="afii10051" unicode="&#x402;" horiz-adv-x="744" 
d="M643 315q4 20 4 40q0 80 -85 80q-96 0 -170 -80l-52 -265q-1 -5 -1 -14q0 -42 63 -43l-6 -33h-250l7 33q73 1 84 57l110 566h-74q-90 0 -111 -105h-45l30 159h523l-30 -159h-46q2 10 3 18.5t1 16.5q0 70 -74 70h-74l-47 -240q82 77 202 77q143 0 143 -138q0 -34 -7 -69
l-60 -310q-16 -88 -82 -137q-64 -49 -133 -49l8 41q33 4 61.5 41t42.5 112z" />
    <glyph glyph-name="afii10052" unicode="&#x403;" horiz-adv-x="515" 
d="M233 115q-3 -14 -3 -26q0 -54 65 -56l-6 -33h-250l6 33q70 2 80 57l104 530q1 5 1 14q0 41 -60 43l7 33h476l-37 -188h-45q6 30 6 53q0 81 -71 81h-168zM398 756q23 51 40 82t28 43l3 3q21 21 46 21q17 0 31 -12q10 -7 13 -19q1 -4 1.5 -7t0.5 -7q0 -7 -1 -10
q-3 -18 -17 -32q-24 -21 -126 -77z" />
    <glyph glyph-name="afii10053" unicode="&#x404;" horiz-adv-x="671" 
d="M419 394q56 0 67 54h38l-30 -157h-39q1 4 1 12q0 37 -47 37h-165q-4 -23 -6 -44t-2 -41q0 -72 27 -124q42 -83 134 -83q97 1 162 56q23 19 28 40q1 2 1 7q0 10 -4 17q-11 25 -11 43q0 4 2 12q11 56 57 56q37 -4 37 -49q0 -6 -0.5 -13t-1.5 -15q-21 -70 -100 -137
q-77 -66 -204 -68q-138 0 -205 93q-48 66 -48 165q0 49 10 99q32 168 144 265q112 100 234 100q98 0 137 -30q15 -12 27 -12q19 0 25 33h44l-45 -233h-43q1 8 1 15v14q0 70 -22 113q-25 52 -108 52q-82 0 -161 -90q-67 -76 -97 -187h163z" />
    <glyph glyph-name="afii10054" unicode="&#x405;" horiz-adv-x="557" 
d="M216 408q-52 45 -52 110q0 5 0.5 10.5t1.5 10.5q13 73 83 126q68 52 177 52q108 0 164 -62l-25 -132h-34q-5 82 -33 113t-76 31q-62 0 -96 -31q-36 -31 -45 -77v-7q0 -47 87 -99q47 -28 80.5 -51.5t54.5 -42.5q57 -53 57 -134q0 -8 -0.5 -16t-1.5 -16q-17 -89 -90 -144
q-74 -56 -199 -56q-146 0 -205 83l34 176h49q-1 -10 -1 -20v-18q0 -103 29 -135q33 -38 96 -38q74 0 114 31q42 31 55 98q1 5 1.5 9t0.5 9q0 71 -89 127q-51 31 -84.5 54t-52.5 39z" />
    <glyph glyph-name="afii10055" unicode="&#x406;" horiz-adv-x="303" 
d="M218 90q-1 -5 -1 -13q0 -42 68 -44l-7 -33h-254l7 33q73 1 84 57l103 530q1 4 1.5 7t0.5 6q0 43 -64 44l7 33h254l-7 -33q-79 -2 -89 -57z" />
    <glyph glyph-name="afii10056" unicode="&#x407;" horiz-adv-x="303" 
d="M218 90q-1 -5 -1 -13q0 -42 68 -44l-7 -33h-254l7 33q73 1 84 57l103 530q1 4 1.5 7t0.5 6q0 43 -64 44l7 33h254l-7 -33q-79 -2 -89 -57zM296 820q0 -19 -13.5 -32.5t-34.5 -13.5t-35 13.5t-14 32.5q0 20 14 34t35 14t34.5 -14t13.5 -34zM439 820q0 -19 -14.5 -32.5
t-34.5 -13.5q-21 0 -34.5 13.5t-13.5 32.5q0 20 13.5 34t34.5 14t35 -14t14 -34z" />
    <glyph glyph-name="afii10057" unicode="&#x408;" horiz-adv-x="312" 
d="M224 64q-27 -128 -120 -201q-92 -73 -155 -73l9 44q68 33 105 85t60 153l106 548q1 5 1 14q0 41 -63 43l6 33h255l-7 -33q-79 -2 -89 -57z" />
    <glyph glyph-name="afii10058" unicode="&#x409;" horiz-adv-x="941" 
d="M563 42h64q167 6 196 155q2 11 3.5 21t1.5 20q0 109 -141 114h-63zM350 656q-1 -41 -5 -81.5t-12 -82.5q-25 -134 -95 -274q-109 -220 -208 -220h-8q-34 3 -34 35q0 4 0.5 7t1.5 7l1 7q14 50 77 50h5q68 0 146 167q20 45 35.5 92.5t25.5 98.5q16 88 18 187q-10 26 -62 28
l7 33h524l-7 -33q-74 -2 -84 -57l-44 -226h55q258 -2 258 -155q0 -17 -5 -42q-37 -195 -329 -197h-236l6 33q79 2 89 57l110 566h-230z" />
    <glyph glyph-name="afii10059" unicode="&#x40a;" horiz-adv-x="998" 
d="M684 42q167 6 196 155q4 20 4 41q0 109 -140 114h-74l-60 -310h74zM679 394h65q257 -2 257 -155q0 -22 -4 -42q-37 -195 -330 -197h-236l6 33q70 1 84 57l47 247h-317l-47 -247q-1 -4 -1.5 -7t-0.5 -6q0 -42 68 -44l-6 -33h-254l6 33q73 1 85 57l103 530q1 5 1 13
q0 43 -64 44l7 33h254l-7 -33q-77 -1 -88 -57l-45 -229h317l45 229v-1l1 1q1 5 1 13q0 43 -64 44l7 33h249l-6 -33q-78 -1 -89 -57z" />
    <glyph glyph-name="afii10060" unicode="&#x40b;" horiz-adv-x="784" 
d="M392 355l-52 -265q-1 -5 -1 -13q0 -43 64 -44l-7 -33h-250l7 33q73 1 84 57l111 566h-75q-90 0 -111 -110h-46l32 164h523l-32 -164h-45q4 19 4 38q0 72 -73 72h-74l-47 -240q82 77 201 77q144 0 144 -138q0 -29 -8 -69l-38 -196q-1 -5 -1 -15q0 -41 55 -42l-7 -33h-227
l7 33q51 1 67 46l46 236q4 19 4 39q0 81 -85 81q-96 0 -170 -80z" />
    <glyph glyph-name="afii10061" unicode="&#x40c;" horiz-adv-x="644" 
d="M290 361q81 32 145 192q66 162 229 162q61 0 86 -37q11 -17 11 -39q0 -11 -3 -24q-14 -65 -71 -65q-42 0 -42 34q0 10 1 15q5 27 39 43q24 14 25 25q-5 24 -45 24q-10 0 -15 -1q-56 -5 -117 -150q-62 -146 -167 -177q151 -31 160 -170q10 -164 102 -171l-4 -22h-116
q-109 1 -109 175v8q0 140 -79 140q-30 0 -61 -10h-1l-43 -223q-1 -4 -1.5 -7t-0.5 -6q0 -42 68 -44l-6 -33h-254l6 33q75 2 85 57l103 530q1 5 1 13q0 43 -64 44l7 33h250l-7 -33q-74 -2 -84 -57l-50 -259h22zM438 756q23 51 40 82t28 43l3 3q21 21 46 21q17 0 31 -12
q10 -7 13 -19q1 -4 1.5 -7t0.5 -7q0 -7 -1 -10q-3 -18 -17 -32q-24 -21 -126 -77z" />
    <glyph glyph-name="uni040D" unicode="&#x40d;" horiz-adv-x="688" 
d="M123 0h-40l120 620q1 5 1.5 9t0.5 8q0 38 -44 40l6 33h217l-7 -33q-98 -2 -108 -57l-82 -421l519 511h91l-7 -33q-50 -2 -69 -106l-94 -481q-1 -5 -1.5 -9.5t-0.5 -9.5q0 -37 40 -38l-6 -33h-217l6 33q103 1 114 57l78 401zM501 741q-82 57 -96 77q-6 10 -6 21q0 7 1 11
q3 12 10.5 23.5t20.5 19.5q16 12 36 12q25 0 38 -21l1 -3q12 -21 20 -125z" />
    <glyph glyph-name="afii10062" unicode="&#x40e;" horiz-adv-x="595" 
d="M119 1q-13 -1 -22 -1h-14q-61 0 -66 53q0 26 20 48q22 20 51 20q34 0 51 -21q7 -9 17 -9q15 0 54.5 32t90.5 111l-232 385q-48 57 -79 58v33h232v-33q-42 -2 -42 -33q0 -11 6 -24l169 -288l130 288q5 12 5 21q0 34 -53 36v33h178v-33q-22 -2 -65 -58l-138 -300
q-143 -300 -293 -318zM215 874q4 6 13 6q7 0 10 -4q-1 -3 -1 -9q0 -45 84 -45q93 0 104 54q4 4 11 4q9 0 11 -6q-24 -115 -138 -115q-97 0 -97 81q0 16 3 34z" />
    <glyph glyph-name="afii10145" unicode="&#x40f;" horiz-adv-x="732" 
d="M313 0h-293l6 33q73 1 84 57l103 530q1 4 1.5 7t0.5 6q0 43 -64 44l7 33h229l-7 -33q-54 -2 -64 -57l-109 -564h336l110 564q1 5 1 13q0 43 -64 44l7 33h254l-7 -33q-78 -2 -88 -57l-103 -530q-2 -10 -2 -12q0 -43 68 -45l-6 -33h-294q-38 -85 -62 -192h-56
q7 41 10.5 77.5t3.5 70.5q0 11 -0.5 22t-1.5 22z" />
    <glyph glyph-name="afii10017" unicode="&#x410;" horiz-adv-x="627" 
d="M244 276h207l-43 310zM213 223l-54 -95q-10 -20 -13 -37q-2 -10 -2 -15q0 -42 60 -43l-7 -33h-207l7 33q32 2 79 80l342 597h65l112 -597q16 -78 49 -80l-7 -33h-256l7 33q74 0 84 58q3 12 3 27q0 7 -1 10l-12 95h-249z" />
    <glyph glyph-name="afii10018" unicode="&#x411;" horiz-adv-x="583" 
d="M269 42q167 6 196 155q4 20 4 41q0 109 -140 114h-70l-60 -310h70zM104 76l108 558q1 3 1 8q0 33 -69 35l7 33h479l-35 -184h-46q2 10 3 19.5t1 17.5q0 93 -115 93h-119l-50 -262h60q257 -2 257 -155q0 -22 -4 -42q-37 -189 -312 -197h-257l6 33q67 1 85 43z" />
    <glyph glyph-name="afii10019" unicode="&#x412;" horiz-adv-x="649" 
d="M415 402q111 9 134 128q4 17 4 35q0 99 -135 104h-63l-52 -267h112zM493 710q169 -1 169 -127q0 -11 -1.5 -22t-3.5 -23q-20 -105 -138 -156q134 -23 134 -139q0 -10 -1 -21t-3 -22q-39 -200 -274 -200h-326l6 33q73 1 85 57l103 530q1 5 1 13q0 43 -64 44l7 33h306z
M427 349h-134l-48 -246q-1 -5 -1 -14q0 -46 71 -46h22q166 1 196 151q2 14 3.5 26t1.5 23q0 101 -111 106z" />
    <glyph glyph-name="afii10020" unicode="&#x413;" horiz-adv-x="515" 
d="M233 115q-3 -14 -3 -26q0 -54 65 -56l-6 -33h-250l6 33q70 2 80 57l104 530q1 5 1 14q0 41 -60 43l7 33h476l-37 -188h-45q6 30 6 53q0 81 -71 81h-168z" />
    <glyph glyph-name="afii10021" unicode="&#x414;" horiz-adv-x="674" 
d="M140 56h335l117 600h-210q-2 -66 -15 -132q-45 -232 -227 -468zM80 72q189 228 235 470q5 28 8.5 56t5.5 56q-24 21 -71 23l6 33h514l-6 -33q-73 -1 -85 -57l-103 -530q-1 -5 -1 -12q0 -43 68 -45l-75 -225h-47q15 87 15 147q0 12 -0.5 23t-1.5 22h-437q-35 -72 -62 -192
h-46l10 225q52 15 75 38z" />
    <glyph glyph-name="afii10022" unicode="&#x415;" horiz-adv-x="607" 
d="M267 340l-47 -245q-2 -10 -2 -12q0 -29 40 -29h144q135 0 161 134h46l-36 -188h-549l7 33q73 1 84 57l103 530q1 4 1.5 7t0.5 6q0 43 -64 44l7 33h516l-37 -188h-45q4 19 4 39q0 95 -118 95h-154l-51 -262h163q55 0 66 54h39l-30 -157h-39q1 4 1 12q0 37 -48 37h-163z
" />
    <glyph glyph-name="afii10024" unicode="&#x416;" horiz-adv-x="1005" 
d="M646 361q80 32 146 192q66 162 229 162q61 0 86 -37q10 -16 10 -39q0 -5 -0.5 -11t-1.5 -13q-14 -65 -72 -65q-42 0 -42 34q0 5 2 15q5 26 38 43q23 14 26 25q-5 24 -46 24q-10 0 -15 -1q-56 -5 -117 -150q-62 -146 -166 -177q151 -31 159 -170q10 -163 103 -171l-5 -22
h-115q-110 2 -110 175v8q0 140 -78 140q-31 0 -62 -10l-44 -223q-1 -5 -1 -13q0 -42 68 -44l-7 -33h-254l7 33q73 1 84 57l44 223q-30 10 -59 10q-79 0 -133 -143q-69 -179 -180 -180h-116l5 22q96 8 169 171q62 138 226 170q-95 31 -99 177q-4 145 -58 150q-5 1 -15 1
q-41 0 -54 -24q-1 -1 -1 -3q0 -11 17 -22q22 -15 22 -35q0 -5 -1 -8q-9 -49 -59 -49q-49 0 -49 46q0 4 0.5 9t1.5 10q7 39 33 63q40 37 101 37q162 0 165 -162q3 -160 71 -192h22l50 259q1 4 1.5 7t0.5 6q0 43 -64 44l7 33h249l-7 -33q-74 -2 -84 -57l-50 -259h22z" />
    <glyph glyph-name="afii10025" unicode="&#x417;" horiz-adv-x="542" 
d="M435 530q3 19 3 35q0 25 -9 42q-26 45 -82 45q-55 0 -71 -28q-1 -1 -1 -3q0 -11 17 -22q22 -15 22 -36q0 -4 -1 -7q-8 -45 -59 -50q-47 5 -47 48v8q0 5 1 10q8 39 32 63q59 53 149 53t135 -53q29 -34 29 -78q0 -14 -3 -30q-22 -115 -148 -151q133 -28 133 -139
q0 -18 -5 -43q-37 -193 -259 -197q-143 4 -174 96q-13 39 -13 74q0 14 3 28q17 77 83 77q49 0 49 -39q0 -4 -0.5 -7.5t-1.5 -8.5q-7 -40 -43 -68q-21 -15 -26 -35q2 -72 117 -76q135 3 162 140q2 11 3 22t1 21q0 123 -171 125l8 43q144 36 167 141z" />
    <glyph glyph-name="afii10026" unicode="&#x418;" horiz-adv-x="688" 
d="M123 0h-40l120 620q1 5 1.5 9t0.5 8q0 38 -44 40l6 33h217l-7 -33q-98 -2 -108 -57l-82 -421l519 511h91l-7 -33q-50 -2 -69 -106l-94 -481q-1 -5 -1.5 -9.5t-0.5 -9.5q0 -37 40 -38l-6 -33h-217l6 33q103 1 114 57l78 401z" />
    <glyph glyph-name="afii10027" unicode="&#x419;" horiz-adv-x="688" 
d="M123 0h-40l120 620q1 5 1.5 9t0.5 8q0 38 -44 40l6 33h217l-7 -33q-98 -2 -108 -57l-82 -421l519 511h91l-7 -33q-50 -2 -69 -106l-94 -481q-1 -5 -1.5 -9.5t-0.5 -9.5q0 -37 40 -38l-6 -33h-217l6 33q103 1 114 57l78 401zM398 874q4 6 13 6q7 0 10 -4q-1 -3 -1 -9
q0 -45 84 -45q93 0 104 54q4 4 11 4q9 0 11 -6q-24 -115 -138 -115q-97 0 -97 81q0 16 3 34z" />
    <glyph glyph-name="afii10028" unicode="&#x41a;" horiz-adv-x="644" 
d="M290 361q81 32 145 192q66 162 229 162q61 0 86 -37q11 -17 11 -39q0 -11 -3 -24q-14 -65 -71 -65q-42 0 -42 34q0 10 1 15q5 27 39 43q24 14 25 25q-5 24 -45 24q-10 0 -15 -1q-56 -5 -117 -150q-62 -146 -167 -177q151 -31 160 -170q10 -164 102 -171l-4 -22h-116
q-109 1 -109 175v8q0 140 -79 140q-30 0 -61 -10h-1l-43 -223q-1 -4 -1.5 -7t-0.5 -6q0 -42 68 -44l-6 -33h-254l6 33q75 2 85 57l103 530q1 5 1 13q0 43 -64 44l7 33h250l-7 -33q-74 -2 -84 -57l-50 -259h22z" />
    <glyph glyph-name="afii10029" unicode="&#x41b;" horiz-adv-x="713" 
d="M440 61q10 11 13 29l112 569h-230q0 -84 -16 -164q-27 -136 -95 -274q-110 -221 -208 -221h-8q-34 4 -34 35q0 5 2 15l1 7q13 49 77 49h5q66 0 146 168q20 45 35.5 92.5t25.5 98.5q16 88 18 187q-11 27 -62 27l7 33h523l-6 -33q-74 0 -84 -57l-111 -532q-1 -5 -1 -13
q0 -42 68 -44l-6 -33h-250l1 2l6 31q50 2 71 28z" />
    <glyph glyph-name="afii10030" unicode="&#x41c;" horiz-adv-x="855" 
d="M292 710l173 -578l366 578h133l-6 -33q-49 -1 -70 -106l-93 -481q-1 -5 -1.5 -9.5t-0.5 -9.5q0 -37 40 -38l-7 -33h-205l6 33q47 2 63 50l78 402l-316 -485h-68l-147 481l-76 -391q-1 -5 -1.5 -9.5t-0.5 -8.5q0 -38 40 -39l-7 -33h-163l7 33q48 1 60 57l93 481q6 31 6 53
q0 52 -34 53l6 33h125z" />
    <glyph glyph-name="afii10031" unicode="&#x41d;" horiz-adv-x="700" 
d="M256 337l-48 -247q-1 -5 -1 -13q0 -42 68 -44l-6 -33h-254l6 33q73 1 84 57l103 530q1 4 1.5 7t0.5 6q0 43 -64 44l7 33h254l-7 -33q-77 -1 -88 -57l-45 -229h318l44 229q1 4 1.5 7t0.5 6q0 43 -64 44l7 33h249l-7 -33q-77 -1 -88 -57l-103 -530q-1 -4 -1.5 -7t-0.5 -6
q0 -42 68 -44l-6 -33h-249l6 33q73 1 84 57l48 247h-318z" />
    <glyph glyph-name="afii10032" unicode="&#x41e;" horiz-adv-x="742" 
d="M764 351q-32 -162 -132 -259q-101 -99 -259 -99q-166 0 -227 99q-42 64 -42 158q0 23 3 48.5t8 52.5q31 168 132 267q100 99 257 99q169 0 231 -99q40 -64 40 -159q0 -47 -11 -108zM382 37q97 0 164 82q69 83 98 232q5 29 7.5 55t2.5 50q0 77 -25 127q-42 84 -134 84
q-94 0 -163 -82q-69 -83 -99 -234q-9 -56 -9 -101q0 -74 26 -128q40 -85 132 -85z" />
    <glyph glyph-name="afii10033" unicode="&#x41f;" horiz-adv-x="732" 
d="M324 659l-111 -569q-1 -5 -1 -13q0 -42 68 -44l-7 -33h-253l6 33q73 1 84 57l103 530q1 4 1.5 7t0.5 6q0 43 -64 44l7 33h693l-7 -33q-78 -2 -88 -57l-103 -530q-1 -4 -1.5 -7t-0.5 -6q0 -42 68 -44l-6 -33h-254l6 33q75 2 85 57l110 569h-336z" />
    <glyph glyph-name="afii10034" unicode="&#x420;" horiz-adv-x="573" 
d="M267 316l-35 -177q-4 -20 -4 -39q0 -65 62 -67l-7 -33h-254l7 33q73 1 84 57l103 530q1 4 1.5 7t0.5 6q0 43 -64 44l6 33h238q258 -2 258 -154q0 -18 -5 -43q-37 -195 -330 -197h-61zM335 667l-51 -266q-1 -4 -1 -11q0 -32 42 -32h20q167 6 196 155q4 20 4 42
q0 107 -140 112h-70z" />
    <glyph glyph-name="afii10035" unicode="&#x421;" horiz-adv-x="657" 
d="M244 351q-5 -28 -8 -53t-3 -48q0 -72 27 -123q42 -83 134 -83q97 1 162 56q67 55 88 108h29q-30 -80 -109 -147q-77 -66 -204 -68q-138 0 -205 93q-48 66 -48 165q0 23 2.5 48t7.5 52q33 169 145 266q112 100 248 100q83 0 122 -30q16 -12 28 -12q19 0 25 33h44l-46 -233
h-43q1 8 1 15v14q0 69 -21 113q-25 52 -108 52t-162 -90q-79 -88 -106 -228z" />
    <glyph glyph-name="afii10036" unicode="&#x422;" horiz-adv-x="562" 
d="M681 710l-37 -188h-45q2 15 3.5 28.5t1.5 24.5q0 81 -70 81h-74l-110 -566q-1 -5 -1 -13q0 -43 63 -44l-6 -33h-250l7 33q73 1 84 57l110 566h-74q-90 0 -116 -134h-46l37 188h523z" />
    <glyph glyph-name="afii10037" unicode="&#x423;" horiz-adv-x="595" 
d="M119 1q-13 -1 -22 -1h-14q-61 0 -66 53q0 26 20 48q22 20 51 20q34 0 51 -21q7 -9 17 -9q15 0 54.5 32t90.5 111l-232 385q-48 57 -79 58v33h232v-33q-42 -2 -42 -33q0 -11 6 -24l169 -288l130 288q5 12 5 21q0 34 -53 36v33h178v-33q-22 -2 -65 -58l-138 -300
q-143 -300 -293 -318z" />
    <glyph glyph-name="afii10038" unicode="&#x424;" horiz-adv-x="870" 
d="M516 151l-12 -61q-1 -5 -1 -13q0 -42 68 -44l-7 -33h-253l6 33q73 1 84 57l12 61q-313 0 -313 170q0 21 4 41q40 205 390 207l10 51q1 5 1 14q0 41 -63 43l6 33h254l-6 -33q-79 -2 -89 -57l-10 -51q313 -1 313 -167q0 -21 -4 -40q-42 -211 -390 -211zM421 193l65 334
q-234 -6 -264 -165q-2 -10 -3 -19.5t-1 -17.5q0 -127 203 -132zM524 193q233 5 265 169q3 19 3 35q0 124 -203 130z" />
    <glyph glyph-name="afii10039" unicode="&#x425;" horiz-adv-x="610" 
d="M412 375l137 -284q33 -56 77 -58l-6 -33h-241l7 33q40 1 48 33q1 3 1 9q0 7 -3 15l-83 190l-162 -190q-8 -9 -9 -19q-1 -3 -1 -9q0 -28 45 -29l-6 -33h-226l7 33q70 2 125 58l210 243l-138 285q-27 56 -72 58l6 33h237l-7 -33q-42 -2 -48 -33q-1 -3 -1 -8q0 -9 3 -16
l83 -190l162 190q7 10 9 21q1 3 1 9q0 25 -33 27l7 33h217l-7 -33q-75 -2 -130 -58z" />
    <glyph glyph-name="afii10040" unicode="&#x426;" horiz-adv-x="732" 
d="M610 0h-590l6 33q73 1 84 57l103 530q1 4 1.5 7t0.5 6q0 43 -64 44l7 33h254l-7 -33q-79 -2 -89 -57l-109 -564h336l110 564q1 5 1 13q0 43 -64 44l7 33h254l-7 -33q-78 -2 -88 -57l-103 -530q-2 -10 -2 -12q0 -43 68 -45l-75 -225h-46q15 88 15 148q0 24 -3 44z" />
    <glyph glyph-name="afii10041" unicode="&#x427;" horiz-adv-x="662" 
d="M504 294q-82 -77 -202 -77q-143 0 -143 138q0 29 8 69l37 196q2 10 2 15q0 41 -55 42l6 33h227l-6 -33q-51 -1 -67 -46l-46 -236q-2 -11 -3.5 -21t-1.5 -19q0 -80 85 -80q96 0 171 80l51 265q1 5 1 14q0 41 -63 43l6 33h250l-7 -33q-74 -2 -84 -57l-105 -538v-5
q0 -43 64 -44l-6 -33h-249l6 33q73 1 84 57z" />
    <glyph glyph-name="afii10042" unicode="&#x428;" horiz-adv-x="977" 
d="M445 56l110 564q1 4 1.5 7t0.5 6q0 43 -64 44l7 33h253l-6 -33q-79 -2 -89 -57l-110 -564h239l110 564q1 5 1 13q0 43 -64 44l7 33h254l-7 -33q-78 -2 -88 -57l-103 -530q-1 -5 -1 -12q0 -44 67 -45l-6 -33h-937l6 33q73 1 84 57l103 530q1 4 1.5 7t0.5 6q0 43 -64 44
l7 33h254l-7 -33q-79 -2 -89 -57l-109 -564h238z" />
    <glyph glyph-name="afii10043" unicode="&#x429;" horiz-adv-x="977" 
d="M854 0h-834l6 33q73 1 84 57l103 530q1 4 1.5 7t0.5 6q0 43 -64 44l7 33h254l-7 -33q-79 -2 -89 -57l-109 -564h238l110 564q1 4 1.5 7t0.5 6q0 43 -64 44l7 33h253l-6 -33q-79 -2 -89 -57l-110 -564h239l110 564q1 5 1 13q0 43 -64 44l7 33h254l-7 -33q-78 -2 -88 -57
l-103 -530q-1 -5 -1 -12q0 -44 67 -45l-75 -225h-46q15 88 15 148q0 24 -3 44z" />
    <glyph glyph-name="afii10044" unicode="&#x42a;" horiz-adv-x="819" 
d="M436 42h64q167 6 196 155q2 11 3.5 21t1.5 20q0 109 -141 114h-64zM504 394h56q258 -2 258 -155q0 -17 -5 -42q-37 -195 -330 -197h-236l7 33q77 1 88 57l111 566h-168q-87 0 -112 -130h-46l36 184h476l-6 -33q-73 -1 -85 -57z" />
    <glyph glyph-name="afii10045" unicode="&#x42b;" horiz-adv-x="903" 
d="M329 394q257 -2 257 -155q0 -22 -4 -42q-37 -195 -330 -197h-237l6 33q73 1 84 57l103 530q1 4 1.5 7t0.5 6q0 43 -64 44l7 33h254l-7 -33q-79 -2 -98 -106l-34 -177h61zM269 42q167 6 196 155q4 20 4 41q0 109 -140 114h-70l-60 -310h70zM799 90q-1 -5 -1 -13
q0 -42 68 -44l-7 -33h-254l7 33q73 1 84 57l103 530q1 4 1.5 7t0.5 6q0 43 -64 44l7 33h254l-7 -33q-79 -2 -89 -57z" />
    <glyph glyph-name="afii10046" unicode="&#x42c;" horiz-adv-x="583" 
d="M329 394q257 -2 257 -155q0 -22 -4 -42q-37 -195 -330 -197h-237l6 33q73 1 84 57l103 530q1 4 1.5 7t0.5 6q0 43 -64 44l7 33h254l-7 -33q-79 -2 -98 -106l-34 -177h61zM269 42q167 6 196 155q4 20 4 41q0 109 -140 114h-70l-60 -310h70z" />
    <glyph glyph-name="afii10047" unicode="&#x42d;" horiz-adv-x="655" 
d="M558 394q2 15 3 29.5t1 28.5q0 73 -27 129q-45 90 -127 90t-128 -52q-23 -26 -42.5 -61.5t-33.5 -80.5h-43l45 233h44q-2 -10 -2 -15q0 -18 14 -18q12 0 32 12q51 30 149 30q122 0 195 -100q51 -68 51 -169q0 -47 -10 -96q-33 -166 -140 -264q-105 -93 -242 -93
q-126 2 -178 68q-46 59 -46 122v15q15 72 65 77q37 0 37 -36q0 -5 -0.5 -10t-1.5 -10q-5 -24 -30 -55q-10 -11 -13 -24q-1 -3 -1 -8q0 -15 14 -32q44 -54 140 -56q92 0 167 83q71 80 99 209h-164q-56 0 -66 -49h-39l31 157h39q-2 -10 -2 -15q0 -39 47 -39h163z" />
    <glyph glyph-name="afii10048" unicode="&#x42e;" horiz-adv-x="1027" 
d="M674 36q96 0 165 82q70 83 98 231q10 56 10 107q0 75 -25 126q-42 84 -135 84t-162 -83q-69 -81 -99 -234q-10 -53 -10 -101q0 -74 26 -128q40 -84 132 -84zM405 337h-154l-47 -247q-1 -4 -1.5 -7t-0.5 -6q0 -42 68 -44l-6 -33h-254l6 33q73 1 85 57l103 530q1 5 1 13
q0 43 -64 44l7 33h254l-7 -33q-77 -1 -88 -57l-45 -229h155q36 139 123 226q100 98 257 98q169 0 231 -98q39 -65 39 -159q0 -48 -11 -109q-32 -161 -131 -259q-101 -98 -259 -98q-166 0 -228 98q-42 66 -42 159q0 41 9 88z" />
    <glyph glyph-name="afii10049" unicode="&#x42f;" horiz-adv-x="608" 
d="M179 531q43 177 342 179h201l-7 -33q-74 -2 -84 -57l-103 -530q-1 -4 -1.5 -7t-0.5 -7q0 -42 64 -43l-7 -33h-253l6 33q79 2 98 106l34 174q-30 10 -59 10q-79 0 -133 -143q-69 -179 -180 -180h-116l5 22q96 8 169 171q64 144 211 144q-191 21 -191 153q0 10 1.5 20
t3.5 21zM486 665q-176 -18 -203 -152q-3 -18 -3 -34q0 -105 147 -118h51l59 304h-51z" />
    <glyph glyph-name="afii10065" unicode="&#x430;" horiz-adv-x="561" 
d="M440 364q-24 79 -84 84q-110 -2 -156 -200q-13 -48 -13 -85v-3q0 -111 104 -111q63 0 99 58zM490 80q0 -22 27 -22q31 0 66 23l-7 -34q-56 -48 -129 -48q-52 0 -52 39q0 7 1 12q-71 -51 -150 -51q-159 0 -159 155v4q0 38 12 88q52 247 239 247q111 0 144 -48q21 23 56 35
l25 -16z" />
    <glyph glyph-name="afii10066" unicode="&#x431;" horiz-adv-x="579" 
d="M196 243q-7 -38 -7 -73q0 -125 111 -125q138 0 177 198l1 4q4 21 5.5 39.5t1.5 35.5q0 126 -110 126q-136 0 -179 -205zM98 283q87 445 500 445h4l-8 -40h-2q-233 -2 -332 -213q54 21 126 21q204 0 204 -174q0 -33 -8 -76q-48 -250 -293 -250q-201 0 -201 191q0 46 10 96
z" />
    <glyph glyph-name="afii10067" unicode="&#x432;" horiz-adv-x="473" 
d="M274 429l-29 -149h32q86 5 99 74q1 5 1.5 9.5t0.5 9.5q0 53 -72 56h-32zM243 48q99 3 116 89q3 12 3 23q0 63 -85 66h-43l-34 -178h43zM406 254q62 -26 62 -89q0 -13 -3 -28q-26 -137 -236 -137h-205l7 33q78 2 94 82l47 247q3 13 3 25q0 56 -65 56l7 34h193
q175 0 175 -98q0 -12 -3 -25q-13 -70 -76 -100z" />
    <glyph glyph-name="afii10068" unicode="&#x433;" horiz-adv-x="495" 
d="M224 115q-3 -14 -3 -26q0 -55 64 -56l-6 -33h-250l7 33q68 2 80 57l57 296q2 10 2 14q0 41 -60 43l7 34h427l-37 -188h-45q6 28 6 53q0 81 -71 81h-119z" />
    <glyph glyph-name="afii10069" unicode="&#x434;" horiz-adv-x="572" 
d="M249 423h-1q-14 20 -54 20l6 34h426l-6 -34q-70 -2 -80 -57l-58 -296q-1 -4 -1.5 -7t-0.5 -7q0 -42 60 -43l-72 -225h-46q15 87 15 147q0 12 -0.5 23t-1.5 22h-325q-35 -72 -62 -192h-46l15 225q42 2 61 21h1q108 123 170 369zM296 423q-62 -246 -170 -369h246l60 308
q1 7 1.5 13t0.5 11v6h3l7 31h-148z" />
    <glyph glyph-name="afii10070" unicode="&#x435;" horiz-adv-x="488" 
d="M217 291q16 -2 30.5 -3t27.5 -1q98 0 136 86q10 23 10 42q0 36 -42 41q-86 0 -162 -165zM267 -1q-180 4 -180 183q0 32 6 70q56 240 270 241q146 0 146 -98q-2 -149 -209 -149q-20 0 -42.5 1.5t-47.5 3.5q-8 -46 -8 -78q0 -117 100 -118q91 0 153 95l25 -21
q-71 -126 -213 -130z" />
    <glyph glyph-name="afii10072" unicode="&#x436;" horiz-adv-x="900" 
d="M553 260q43 21 120 126q76 105 204 105q49 0 72 -29q9 -14 9 -31v-8q0 -4 -1 -8q-12 -54 -67 -54q-42 0 -42 32q0 7 1 11q5 23 35 37q10 4 10 6q-1 7 -20 7h-10q-29 -2 -103 -97q-74 -96 -111 -106q73 -13 114 -113q41 -98 109 -103l-7 -35h-97q-91 0 -124 106
q-31 106 -77 106q-16 0 -25 -4h-1l-23 -118q-2 -10 -2 -15q0 -41 55 -42l-7 -33h-227l7 33q61 2 71 57l22 118q-8 4 -24 4q-46 0 -119 -106t-164 -106h-96l7 35q68 4 148 103q80 100 158 113q-33 10 -71 106q-36 96 -64 97h-9q-19 0 -23 -7q0 -2 7 -6q21 -12 21 -30
q0 -4 -1 -7q-7 -43 -57 -43q-47 0 -47 40q0 9 1 14q4 27 26 47q35 29 84 29q127 0 163 -105t71 -126l24 126q1 5 1.5 8.5t0.5 7.5q0 39 -51 41l7 34h227l-7 -34q-65 0 -75 -57l-25 -126h2z" />
    <glyph glyph-name="afii10073" unicode="&#x437;" horiz-adv-x="429" 
d="M131 350l15 74q62 56 157 56q71 0 107 -38q24 -26 24 -59q0 -5 -0.5 -10t-1.5 -10q-18 -94 -70 -98q65 -14 65 -80q0 -15 -3 -33q-29 -149 -228 -152q-113 2 -148 46l22 116h53q-3 -18 -3 -33q0 -79 76 -80q109 2 125 92q1 5 1.5 9t0.5 9q0 71 -128 73l10 47q99 5 116 86
q1 5 1.5 10t0.5 10q0 14 -6 25q-15 25 -48 25q-69 0 -85 -85h-53z" />
    <glyph glyph-name="afii10074" unicode="&#x438;" horiz-adv-x="641" 
d="M522 475v2h172l-7 -34q-69 0 -79 -57l-58 -296q-1 -5 -1 -14q0 -41 59 -43l-6 -33h-250l6 33q78 1 94 82l51 263l-291 -373l-1 -5h-172l6 33q70 2 80 57l58 296q2 10 2 14q0 43 -60 43l7 34h249l-6 -34q-78 0 -94 -81l-49 -255z" />
    <glyph glyph-name="afii10075" unicode="&#x439;" horiz-adv-x="641" 
d="M522 475v2h172l-7 -34q-69 0 -79 -57l-58 -296q-1 -5 -1 -14q0 -41 59 -43l-6 -33h-250l6 33q78 1 94 82l51 263l-291 -373l-1 -5h-172l6 33q70 2 80 57l58 296q2 10 2 14q0 43 -60 43l7 34h249l-6 -34q-78 0 -94 -81l-49 -255zM327 642q4 6 13 6q7 0 10 -4q-1 -3 -1 -9
q0 -45 84 -45q93 0 104 54q4 4 11 4q9 0 11 -6q-24 -115 -138 -115q-97 0 -97 81q0 16 3 34z" />
    <glyph glyph-name="afii10076" unicode="&#x43a;" horiz-adv-x="604" 
d="M255 260q22 10 52.5 40.5t68.5 84.5q78 106 205 106q49 0 72 -29q9 -14 9 -31v-8q0 -4 -1 -8q-12 -54 -67 -54q-42 0 -42 32q0 7 1 11q5 23 35 37q10 4 10 6q-1 7 -20 7h-10q-28 -1 -102 -97q-74 -95 -112 -106q73 -13 114 -113q41 -98 109 -103l-7 -35h-97
q-91 0 -124 106q-31 106 -77 106q-17 0 -26 -4l-23 -118q-2 -10 -2 -15q0 -41 55 -42l-6 -33h-228l7 33q61 2 71 57l58 300v6q0 41 -68 43l7 40q25 0 48 0.5t45 1.5q43 3 90 9z" />
    <glyph glyph-name="afii10077" unicode="&#x43b;" horiz-adv-x="658" 
d="M280 0l7 33q77 2 93 82l60 308h-123q-32 -161 -75 -258q-65 -133 -118 -167q-22 -14 -42 -14q-7 0 -17 2q-25 7 -31 24q-2 8 -2 12q0 7 1 11q1 5 3 10l4 10q17 38 65 77q25 21 45.5 46.5t36.5 56.5q16 30 30 72t25 97q-1 40 -59 41l6 34h435l-6 -34q-69 -1 -80 -57
l-57 -296q-1 -5 -1 -15q0 -41 55 -42l-7 -33h-248z" />
    <glyph glyph-name="afii10078" unicode="&#x43c;" horiz-adv-x="638" 
d="M248 479l104 -352l218 352h117l-8 -42q-35 0 -45 -58l-61 -310v-7q0 -20 30 -20l-9 -42h-171l9 42q34 0 41 22l38 194l-165 -258h-67l-77 260l-37 -191q-1 -3 -1 -7q0 -20 29 -20l-8 -42h-141l8 42q34 0 39 27l61 310q3 13 3 25q0 33 -26 33l8 42h111z" />
    <glyph glyph-name="afii10079" unicode="&#x43d;" horiz-adv-x="650" 
d="M252 214l-19 -99q-3 -14 -3 -26q0 -54 65 -56l-6 -33h-250l6 33q70 2 80 57l58 296q2 10 2 14q0 43 -60 43l7 34h249l-6 -34q-78 0 -94 -81l-19 -98h229l19 98q1 7 1.5 13t0.5 12q0 56 -64 56l7 34h249l-7 -34q-69 0 -79 -57l-58 -296q-1 -5 -1 -14q0 -41 59 -43l-7 -33
h-249l6 33q78 1 94 82l19 99h-229z" />
    </font>
</defs>
</svg>
