<?xml version="1.0" encoding="utf-8"?>
<!-- Generator: Adobe Illustrator 17.0.0, SVG Export Plug-In . SVG Version: 6.00 Build 0)  -->
<!DOCTYPE svg PUBLIC "-//W3C//DTD SVG 1.1//EN" "http://www.w3.org/Graphics/SVG/1.1/DTD/svg11.dtd">
<svg version="1.1" id="Layer_1" xmlns="http://www.w3.org/2000/svg" xmlns:xlink="http://www.w3.org/1999/xlink" x="0px" y="0px"
	 width="229.5px" height="60px" viewBox="0 0 229.5 60" enable-background="new 0 0 229.5 60" xml:space="preserve">
<g>
	<path d="M1.956,9.472h9.214v7.94H1.956V9.472z M2.014,21.758h9.099v30.831H2.014V21.758z"/>
	<path d="M24.5,26.452h0.174c1.913-3.709,5.216-5.563,9.504-5.563c6.78,0,10.721,4.521,10.721,11.417v20.283h-9.041V34.044
		c0-3.361-1.796-5.622-5.158-5.622c-3.535,0-5.911,2.839-5.911,6.781v17.386h-9.099V21.758H24.5V26.452z"/>
	<path d="M47.279,43.085h8.577c0.521,2.897,2.724,4.52,6.259,4.52c3.246,0,5.1-1.332,5.1-3.535c0-2.781-3.651-3.129-7.939-3.94
		c-5.506-1.043-11.069-2.434-11.069-9.62c0-6.317,5.737-9.62,12.981-9.62c8.577,0,12.866,3.709,13.677,9.099h-8.461
		c-0.58-2.202-2.318-3.303-5.216-3.303c-2.782,0-4.578,1.159-4.578,3.129c0,2.318,3.361,2.666,7.592,3.419
		c5.505,0.985,11.765,2.435,11.765,10.2c0,6.664-5.911,10.142-13.909,10.142C53.132,53.574,47.743,49.285,47.279,43.085z"/>
	<path d="M76.374,21.758h4.636v-9.852h8.925v9.852h6.027v5.795h-6.027v15.299c0,2.318,1.275,2.956,3.419,2.956
		c0.58,0,1.507-0.059,2.086-0.116h0.463v6.78c-0.985,0.174-2.84,0.464-5.273,0.464c-5.738,0-9.621-1.854-9.621-8.113v-17.27h-4.636
		V21.758z"/>
	<path d="M118.565,48.822h-0.116c-2.028,2.84-4.578,4.578-9.33,4.578c-6.085,0-10.547-3.245-10.547-9.331
		c0-6.838,5.39-8.576,12.112-9.388c5.506-0.754,7.766-1.623,7.766-3.941c0-2.202-1.449-3.708-4.578-3.708
		c-3.477,0-5.158,1.623-5.39,4.056h-8.403c0.232-5.273,4.521-10.199,13.677-10.199c3.941,0,6.722,0.58,8.867,1.854
		c3.188,1.854,4.694,5.042,4.694,9.215v15.82c0,2.435,0.348,3.768,1.159,4.289v0.521h-8.867
		C119.145,51.894,118.739,50.561,118.565,48.822z M118.681,41.52v-3.998c-1.333,0.811-3.303,1.274-5.332,1.738
		c-3.999,0.869-5.911,1.854-5.911,4.521s2.028,3.65,4.52,3.65C116.016,47.431,118.681,44.881,118.681,41.52z"/>
	<path d="M140.822,26.452h0.174c1.912-3.709,5.216-5.563,9.505-5.563c6.78,0,10.721,4.521,10.721,11.417v20.283h-9.04V34.044
		c0-3.361-1.797-5.622-5.158-5.622c-3.535,0-5.911,2.839-5.911,6.781v17.386h-9.099V21.758h8.809V26.452z"/>
	<path d="M164.122,37.231c0-9.272,6.317-16.343,15.995-16.343c8.229,0,13.329,4.694,14.431,11.417h-8.81
		c-0.637-2.84-2.491-4.637-5.505-4.637c-4.578,0-6.896,3.768-6.896,9.562c0,5.621,2.318,9.446,6.896,9.446
		c3.361,0,5.39-2.028,5.795-5.563h8.751c-0.29,7.013-5.854,12.46-14.43,12.46C170.497,53.574,164.122,46.446,164.122,37.231z"/>
	<path d="M196.115,37.231c0-9.272,6.433-16.343,15.821-16.343c4.404,0,7.882,1.449,10.605,3.941
		c3.478,3.361,5.042,8.577,4.984,14.662H205.04c0.58,4.637,3.071,7.418,7.477,7.418c2.839,0,4.636-1.101,5.621-3.014h8.809
		c-1.564,5.448-6.606,9.62-14.546,9.62C202.316,53.516,196.115,46.446,196.115,37.231z M205.099,34.218h13.155
		c-0.29-4.289-2.725-6.896-6.317-6.896C207.764,27.321,205.678,29.987,205.099,34.218z"/>
</g>
</svg>
